<?xml version="1.0" standalone="no"?>
<!DOCTYPE svg PUBLIC "-//W3C//DTD SVG 1.1//EN" "http://www.w3.org/Graphics/SVG/1.1/DTD/svg11.dtd" >
<svg xmlns="http://www.w3.org/2000/svg" xmlns:xlink="http://www.w3.org/1999/xlink" version="1.1">
<metadata>
Created by FontForge 20150804 at Sat Nov 23 07:52:36 2019
 By cloudconvert
Please contact us to learn more about license restrictions.
</metadata>
<defs>
<font id="SofiaProBlack" horiz-adv-x="612" >
  <font-face 
    font-family="Sofia Pro Black"
    font-weight="900"
    font-stretch="normal"
    units-per-em="1000"
    panose-1="0 0 5 0 0 0 0 0 0 0"
    ascent="800"
    descent="-200"
    x-height="466"
    cap-height="689"
    bbox="-482 -254.174 1574 1137"
    underline-thickness="50"
    underline-position="-100"
    stemh="112"
    stemv="140"
    unicode-range="U+0020-FB04"
  />
<missing-glyph horiz-adv-x="635" 
d="M80 0v665h475v-665h-475zM268 222h62v33c0 32 18 54 47 62c46 14 85 57 85 124c0 83 -67 135 -141 135s-136 -56 -136 -145h62c0 51 33 83 74 83c40 0 80 -28 80 -73c0 -34 -24 -58 -57 -71c-53 -16 -76 -43 -76 -110v-38zM300 88c24 0 45 18 45 43s-21 43 -45 43
c-25 0 -46 -18 -46 -43s21 -43 46 -43z" />
    <glyph glyph-name="f_f" unicode="ff" horiz-adv-x="753" 
d="M704 712h59v-136h-28c-73 0 -98 -38 -99 -92v-18h99v-111h-99v-355h-148v355h-229v-355h-148v355h-87v111h87v21c0 147 81 225 216 225h59v-136h-28c-73 0 -98 -38 -99 -92v-18h229v21c0 147 80 225 216 225z" />
    <glyph glyph-name="f_f_i" unicode="ffi" horiz-adv-x="1027" 
d="M965 466v-466h-148v355h-181v-355h-148v355h-229v-355h-148v355h-87v111h87v21c0 147 81 225 216 225h59v-136h-28c-73 0 -98 -38 -99 -92v-18h229v21c0 147 80 225 216 225h29v-136h-13c-57 0 -84 -33 -84 -80v-30h329zM891 537c-50 0 -92 39 -92 86c0 49 42 86 92 86
s91 -37 91 -86c0 -47 -41 -86 -91 -86z" />
    <glyph glyph-name="f_f_l" unicode="ffl" horiz-adv-x="1027" 
d="M965 712v-712h-147v576h-83c-73 0 -98 -38 -99 -92v-18h99v-111h-99v-355h-148v355h-229v-355h-148v355h-87v111h87v21c0 147 81 225 216 225h59v-136h-28c-73 0 -98 -38 -99 -92v-18h229v21c0 147 80 225 216 225h261z" />
    <glyph glyph-name="fi" unicode="fi" horiz-adv-x="651" 
d="M589 466v-466h-148v355h-182v-355h-148v355h-87v111h87v21c0 147 81 225 216 225h48v-136h-17c-73 0 -98 -38 -99 -92v-18h330zM514 537c-49 0 -91 39 -91 86c0 49 42 86 91 86c51 0 91 -37 91 -86c0 -47 -40 -86 -91 -86z" />
    <glyph glyph-name="fl" unicode="fl" horiz-adv-x="651" 
d="M589 712v-712h-148v576h-83c-73 0 -98 -38 -99 -92v-18h100v-111h-100v-355h-148v355h-87v111h87v21c0 147 81 225 216 225h262z" />
    <glyph glyph-name=".notdef" horiz-adv-x="635" 
d="M80 0v665h475v-665h-475zM268 222h62v33c0 32 18 54 47 62c46 14 85 57 85 124c0 83 -67 135 -141 135s-136 -56 -136 -145h62c0 51 33 83 74 83c40 0 80 -28 80 -73c0 -34 -24 -58 -57 -71c-53 -16 -76 -43 -76 -110v-38zM300 88c24 0 45 18 45 43s-21 43 -45 43
c-25 0 -46 -18 -46 -43s21 -43 46 -43z" />
    <glyph glyph-name="A" unicode="A" horiz-adv-x="663" 
d="M505 0l-52 160h-242l-51 -160h-168l255 689h171l254 -689h-167zM254 296h155l-78 241z" />
    <glyph glyph-name="Aacute" unicode="&#xc1;" horiz-adv-x="663" 
d="M517 941l-135 -171h-101l94 171h142zM505 0l-52 160h-242l-51 -160h-168l255 689h171l254 -689h-167zM254 296h155l-78 241z" />
    <glyph glyph-name="Abreve" unicode="&#x102;" horiz-adv-x="663" 
d="M332 785c-92 0 -135 66 -135 132h87c0 -34 13 -52 48 -52s47 24 47 52h89c0 -79 -57 -132 -136 -132zM505 0l-52 160h-242l-51 -160h-168l255 689h171l254 -689h-167zM254 296h155l-78 241z" />
    <glyph glyph-name="uni01CD" unicode="&#x1cd;" horiz-adv-x="663" 
d="M405 770h-148l-109 171h104l79 -89l79 89h105zM505 0l-52 160h-242l-51 -160h-168l255 689h171l254 -689h-167zM254 296h155l-78 241z" />
    <glyph glyph-name="Acircumflex" unicode="&#xc2;" horiz-adv-x="663" 
d="M331 859l-79 -89h-104l109 171h148l110 -171h-105zM505 0l-52 160h-242l-51 -160h-168l255 689h171l254 -689h-167zM254 296h155l-78 241z" />
    <glyph glyph-name="Adieresis" unicode="&#xc4;" horiz-adv-x="663" 
d="M226 788c-41 0 -75 31 -75 71c0 39 34 70 75 70s73 -31 73 -70c0 -40 -32 -71 -73 -71zM440 788c-42 0 -76 31 -76 71c0 39 34 70 76 70c40 0 73 -31 73 -70c0 -40 -33 -71 -73 -71zM505 0l-52 160h-242l-51 -160h-168l255 689h171l254 -689h-167zM254 296h155l-78 241z
" />
    <glyph glyph-name="Agrave" unicode="&#xc0;" horiz-adv-x="663" 
d="M386 770h-101l-135 171h143zM505 0l-52 160h-242l-51 -160h-168l255 689h171l254 -689h-167zM254 296h155l-78 241z" />
    <glyph glyph-name="Amacron" unicode="&#x100;" horiz-adv-x="663" 
d="M473 894v-87h-283v87h283zM505 0l-52 160h-242l-51 -160h-168l255 689h171l254 -689h-167zM254 296h155l-78 241z" />
    <glyph glyph-name="Aogonek" unicode="&#x104;" horiz-adv-x="663" 
d="M551 -145c29 0 37 22 37 51h73c0 -83 -55 -119 -113 -119c-55 0 -103 43 -103 103c0 13 0 31 11 50l43 80l-46 140h-242l-51 -160h-168l255 689h171l254 -689h-110l-41 -86c-3 -8 -4 -16 -4 -22c0 -23 16 -37 34 -37zM254 296h155l-78 241z" />
    <glyph glyph-name="Aring" unicode="&#xc5;" horiz-adv-x="663" 
d="M331 757c-68 0 -126 54 -126 124s58 126 126 126c70 0 128 -56 128 -126s-58 -124 -128 -124zM331 947c-35 0 -65 -29 -65 -66s30 -63 65 -63c36 0 68 26 68 63s-32 66 -68 66zM505 0l-52 160h-242l-51 -160h-168l255 689h171l254 -689h-167zM254 296h155l-78 241z" />
    <glyph glyph-name="Aringacute" unicode="&#x1fa;" horiz-adv-x="663" 
d="M331 757c-68 0 -126 54 -126 124c0 52 32 96 77 115l53 94h143l-88 -98c41 -21 69 -62 69 -111c0 -70 -58 -124 -128 -124zM331 817c36 0 68 27 68 64c0 36 -32 66 -68 66c-35 0 -65 -30 -65 -66c0 -37 30 -64 65 -64zM505 0l-52 160h-242l-51 -160h-168l255 689h171
l254 -689h-167zM254 296h155l-78 241z" />
    <glyph glyph-name="Atilde" unicode="&#xc3;" horiz-adv-x="663" 
d="M288 832c-7 0 -25 -11 -26 -43h-73c5 96 58 128 99 128c42 0 64 -41 87 -41c8 0 26 9 27 41h73c-4 -97 -60 -126 -100 -126c-39 0 -63 41 -87 41zM505 0l-52 160h-242l-51 -160h-168l255 689h171l254 -689h-167zM254 296h155l-78 241z" />
    <glyph glyph-name="AE" unicode="&#xc6;" horiz-adv-x="935" 
d="M592 138h294v-138h-450v155h-197l-74 -155h-189l357 689h545v-138h-286v-144h250v-134h-250v-135zM303 291h132v260h-8z" />
    <glyph glyph-name="AEacute" unicode="&#x1fc;" horiz-adv-x="935" 
d="M653 941l-135 -171h-101l94 171h142zM592 138h294v-138h-450v155h-197l-74 -155h-189l357 689h545v-138h-286v-144h250v-134h-250v-135zM303 291h132v260h-8z" />
    <glyph glyph-name="B" unicode="B" horiz-adv-x="641" 
d="M468 368c91 -13 133 -91 133 -170c0 -94 -61 -198 -223 -198h-299v689h279c126 0 207 -76 207 -178c0 -48 -18 -120 -97 -143zM347 552h-111v-132h110c37 0 62 24 62 66c0 35 -18 66 -61 66zM359 137c56 0 84 38 84 77c0 36 -25 77 -84 77h-123v-154h123z" />
    <glyph glyph-name="C" unicode="C" horiz-adv-x="703" 
d="M389 -8c-194 0 -350 158 -350 354c0 194 156 352 350 352c121 0 227 -61 290 -153l-122 -85c-36 55 -89 89 -161 89c-116 0 -199 -89 -199 -203s80 -206 198 -206c73 0 126 34 162 90l122 -86c-63 -92 -169 -152 -290 -152z" />
    <glyph glyph-name="Cacute" unicode="&#x106;" horiz-adv-x="703" 
d="M300 770l94 171h142l-135 -171h-101zM389 -8c-194 0 -350 158 -350 354c0 194 156 352 350 352c121 0 227 -61 290 -153l-122 -85c-36 55 -89 89 -161 89c-116 0 -199 -89 -199 -203s80 -206 198 -206c73 0 126 34 162 90l122 -86c-63 -92 -169 -152 -290 -152z" />
    <glyph glyph-name="Ccaron" unicode="&#x10c;" horiz-adv-x="703" 
d="M310 770l-109 171h104l79 -89l79 89h105l-110 -171h-148zM389 -8c-194 0 -350 158 -350 354c0 194 156 352 350 352c121 0 227 -61 290 -153l-122 -85c-36 55 -89 89 -161 89c-116 0 -199 -89 -199 -203s80 -206 198 -206c73 0 126 34 162 90l122 -86
c-63 -92 -169 -152 -290 -152z" />
    <glyph glyph-name="Ccedilla" unicode="&#xc7;" horiz-adv-x="703" 
d="M395 140c73 0 126 34 162 90l122 -86c-57 -84 -150 -141 -258 -151l29 -53c11 -19 11 -37 11 -50c0 -60 -48 -103 -103 -103c-58 0 -112 36 -112 119h72c0 -29 8 -51 37 -51c18 0 34 14 34 37c0 6 -1 14 -4 22l-38 81c-174 20 -308 169 -308 351c0 194 156 352 350 352
c121 0 227 -61 290 -153l-122 -85c-36 55 -89 89 -161 89c-116 0 -199 -89 -199 -203s80 -206 198 -206z" />
    <glyph glyph-name="Cdotaccent" unicode="&#x10a;" horiz-adv-x="703" 
d="M387 778c-45 0 -80 32 -80 78c0 45 35 77 80 77s81 -32 81 -77c0 -46 -36 -78 -81 -78zM389 -8c-194 0 -350 158 -350 354c0 194 156 352 350 352c121 0 227 -61 290 -153l-122 -85c-36 55 -89 89 -161 89c-116 0 -199 -89 -199 -203s80 -206 198 -206
c73 0 126 34 162 90l122 -86c-63 -92 -169 -152 -290 -152z" />
    <glyph glyph-name="D" unicode="D" horiz-adv-x="707" 
d="M79 0v689h272c199 0 314 -150 314 -346c0 -195 -115 -343 -314 -343h-272zM236 137h115c103 0 156 99 156 206c0 108 -53 209 -156 209h-115v-415z" />
    <glyph glyph-name="Eth" unicode="&#xd0;" horiz-adv-x="719" 
d="M363 689c198 0 313 -150 313 -346c0 -195 -115 -343 -313 -343h-272v283h-75v115h75v291h272zM363 137c103 0 155 99 155 206c0 108 -52 209 -155 209h-115v-154h113v-115h-113v-146h115z" />
    <glyph glyph-name="Dcaron" unicode="&#x10e;" horiz-adv-x="707" 
d="M247 770l-109 171h104l79 -89l79 89h105l-110 -171h-148zM79 0v689h272c199 0 314 -150 314 -346c0 -195 -115 -343 -314 -343h-272zM236 137h115c103 0 156 99 156 206c0 108 -53 209 -156 209h-115v-415z" />
    <glyph glyph-name="Dcroat" unicode="&#x110;" horiz-adv-x="719" 
d="M363 689c198 0 313 -150 313 -346c0 -195 -115 -343 -313 -343h-272v283h-75v115h75v291h272zM363 137c103 0 155 99 155 206c0 108 -52 209 -155 209h-115v-154h113v-115h-113v-146h115z" />
    <glyph glyph-name="E" unicode="E" horiz-adv-x="579" 
d="M236 137h294v-137h-451v689h442v-137h-285v-142h250v-141h-250v-132z" />
    <glyph glyph-name="Eacute" unicode="&#xc9;" horiz-adv-x="579" 
d="M475 941l-135 -171h-101l94 171h142zM236 137h294v-137h-451v689h442v-137h-285v-142h250v-141h-250v-132z" />
    <glyph glyph-name="Ecaron" unicode="&#x11a;" horiz-adv-x="579" 
d="M363 770h-148l-109 171h104l79 -89l79 89h105zM236 137h294v-137h-451v689h442v-137h-285v-142h250v-141h-250v-132z" />
    <glyph glyph-name="Ecircumflex" unicode="&#xca;" horiz-adv-x="579" 
d="M289 859l-79 -89h-104l109 171h148l110 -171h-105zM236 137h294v-137h-451v689h442v-137h-285v-142h250v-141h-250v-132z" />
    <glyph glyph-name="Edieresis" unicode="&#xcb;" horiz-adv-x="579" 
d="M184 788c-41 0 -75 31 -75 71c0 39 34 70 75 70s73 -31 73 -70c0 -40 -32 -71 -73 -71zM398 788c-42 0 -76 31 -76 71c0 39 34 70 76 70c40 0 73 -31 73 -70c0 -40 -33 -71 -73 -71zM236 137h294v-137h-451v689h442v-137h-285v-142h250v-141h-250v-132z" />
    <glyph glyph-name="Edotaccent" unicode="&#x116;" horiz-adv-x="579" 
d="M290 778c-45 0 -80 32 -80 78c0 45 35 77 80 77s81 -32 81 -77c0 -46 -36 -78 -81 -78zM236 137h294v-137h-451v689h442v-137h-285v-142h250v-141h-250v-132z" />
    <glyph glyph-name="Egrave" unicode="&#xc8;" horiz-adv-x="579" 
d="M344 770h-101l-135 171h143zM236 137h294v-137h-451v689h442v-137h-285v-142h250v-141h-250v-132z" />
    <glyph glyph-name="Emacron" unicode="&#x112;" horiz-adv-x="579" 
d="M431 894v-87h-283v87h283zM236 137h294v-137h-451v689h442v-137h-285v-142h250v-141h-250v-132z" />
    <glyph glyph-name="Eogonek" unicode="&#x118;" horiz-adv-x="579" 
d="M422 0l-41 -86c-2 -8 -3 -16 -3 -22c0 -23 15 -37 33 -37c30 0 37 22 37 51h73c0 -83 -55 -119 -112 -119c-56 0 -104 43 -104 103c0 13 1 31 11 50l32 60h-269v689h442v-137h-285v-142h250v-141h-250v-132h294v-137h-108z" />
    <glyph glyph-name="F" unicode="F" horiz-adv-x="548" 
d="M515 552h-279v-145h221v-136h-221v-271h-157v689h436v-137z" />
    <glyph glyph-name="G" unicode="G" horiz-adv-x="756" 
d="M393 -9c-199 0 -354 159 -354 353c0 196 155 354 354 354c109 0 204 -46 264 -118l-116 -97c-37 43 -89 69 -148 69c-111 0 -196 -93 -196 -208c0 -113 85 -213 196 -213c80 0 142 32 162 92c2 5 4 10 5 16h-194v127h365c0 -261 -140 -375 -338 -375z" />
    <glyph glyph-name="Gbreve" unicode="&#x11e;" horiz-adv-x="756" 
d="M377 785c-92 0 -135 66 -135 132h87c0 -34 13 -52 48 -52s47 24 47 52h89c0 -79 -57 -132 -136 -132zM393 -9c-199 0 -354 159 -354 353c0 196 155 354 354 354c109 0 204 -46 264 -118l-116 -97c-37 43 -89 69 -148 69c-111 0 -196 -93 -196 -208
c0 -113 85 -213 196 -213c80 0 142 32 162 92c2 5 4 10 5 16h-194v127h365c0 -261 -140 -375 -338 -375z" />
    <glyph glyph-name="Gcommaaccent" unicode="&#x122;" horiz-adv-x="756" 
d="M393 -9c-199 0 -354 159 -354 353c0 196 155 354 354 354c109 0 204 -46 264 -118l-116 -97c-37 43 -89 69 -148 69c-111 0 -196 -93 -196 -208c0 -113 85 -213 196 -213c80 0 142 32 162 92c2 5 4 10 5 16h-194v127h365c0 -261 -140 -375 -338 -375zM332 -238l-70 39
c34 38 46 99 45 160h136c0 -80 -54 -157 -111 -199z" />
    <glyph glyph-name="Gdotaccent" unicode="&#x120;" horiz-adv-x="756" 
d="M377 778c-45 0 -80 32 -80 78c0 45 35 77 80 77s81 -32 81 -77c0 -46 -36 -78 -81 -78zM393 -9c-199 0 -354 159 -354 353c0 196 155 354 354 354c109 0 204 -46 264 -118l-116 -97c-37 43 -89 69 -148 69c-111 0 -196 -93 -196 -208c0 -113 85 -213 196 -213
c80 0 142 32 162 92c2 5 4 10 5 16h-194v127h365c0 -261 -140 -375 -338 -375z" />
    <glyph glyph-name="H" unicode="H" horiz-adv-x="700" 
d="M463 689h157v-689h-157v272h-227v-272h-157v689h157v-276h227v276z" />
    <glyph glyph-name="Hbar" unicode="&#x126;" horiz-adv-x="719" 
d="M704 586v-77h-74v-509h-157v272h-227v-272h-157v509h-74v77h74v103h157v-103h227v103h157v-103h74zM473 413v96h-227v-96h227z" />
    <glyph glyph-name="I" unicode="I" horiz-adv-x="316" 
d="M79 0v689h157v-689h-157z" />
    <glyph glyph-name="IJ" unicode="&#x132;" horiz-adv-x="640" 
d="M79 0v689h157v-689h-157zM332 -236c-19 0 -67 5 -106 17l14 142c31 -11 87 -11 92 -11c51 0 71 39 71 87v690h157v-690c0 -127 -61 -235 -228 -235z" />
    <glyph glyph-name="Iacute" unicode="&#xcd;" horiz-adv-x="316" 
d="M107 770l94 171h142l-135 -171h-101zM79 0v689h157v-689h-157z" />
    <glyph glyph-name="uni01CF" unicode="&#x1cf;" horiz-adv-x="316" 
d="M83 770l-109 171h104l79 -89l79 89h105l-110 -171h-148zM79 0v689h157v-689h-157z" />
    <glyph glyph-name="Icircumflex" unicode="&#xce;" horiz-adv-x="316" 
d="M-26 770l109 171h148l110 -171h-105l-79 89l-79 -89h-104zM79 0v689h157v-689h-157z" />
    <glyph glyph-name="Idieresis" unicode="&#xcf;" horiz-adv-x="316" 
d="M52 788c-41 0 -75 31 -75 71c0 39 34 70 75 70s73 -31 73 -70c0 -40 -32 -71 -73 -71zM266 788c-42 0 -76 31 -76 71c0 39 34 70 76 70c40 0 73 -31 73 -70c0 -40 -33 -71 -73 -71zM79 0v689h157v-689h-157z" />
    <glyph glyph-name="Idotaccent" unicode="&#x130;" horiz-adv-x="316" 
d="M158 778c-45 0 -80 32 -80 78c0 45 35 77 80 77s81 -32 81 -77c0 -46 -36 -78 -81 -78zM79 0v689h157v-689h-157z" />
    <glyph glyph-name="Igrave" unicode="&#xcc;" horiz-adv-x="316" 
d="M111 770l-135 171h143l93 -171h-101zM79 0v689h157v-689h-157z" />
    <glyph glyph-name="Imacron" unicode="&#x12a;" horiz-adv-x="316" 
d="M16 807v87h283v-87h-283zM79 0v689h157v-689h-157z" />
    <glyph glyph-name="Iogonek" unicode="&#x12e;" horiz-adv-x="316" 
d="M176 -94h73c0 -83 -55 -119 -113 -119c-55 0 -103 43 -103 103c0 13 1 31 11 50l35 66v683h157v-689h-85l-42 -86c-3 -8 -4 -16 -4 -22c0 -23 16 -37 34 -37c30 0 37 22 37 51z" />
    <glyph glyph-name="Itilde" unicode="&#x128;" horiz-adv-x="316" 
d="M15 789c5 96 58 128 99 128c42 0 64 -41 87 -41c8 0 26 9 27 41h73c-4 -97 -60 -126 -100 -126c-39 0 -63 41 -87 41c-7 0 -25 -11 -26 -43h-73zM79 0v689h157v-689h-157z" />
    <glyph glyph-name="J" unicode="J" horiz-adv-x="324" 
d="M16 -236c-19 0 -67 5 -106 17l14 142c31 -11 87 -11 92 -11c51 0 71 39 71 87v690h157v-690c0 -127 -61 -235 -228 -235z" />
    <glyph glyph-name="Jcircumflex" unicode="&#x134;" horiz-adv-x="324" 
d="M-18 770l109 171h148l110 -171h-105l-79 89l-79 -89h-104zM16 -236c-19 0 -67 5 -106 17l14 142c31 -11 87 -11 92 -11c51 0 71 39 71 87v690h157v-690c0 -127 -61 -235 -228 -235z" />
    <glyph glyph-name="K" unicode="K" horiz-adv-x="624" 
d="M644 0h-215l-193 222v-222h-157v689h157v-211l150 211h196l-260 -341z" />
    <glyph glyph-name="Kcommaaccent" unicode="&#x136;" horiz-adv-x="624" 
d="M322 348l322 -348h-215l-193 222v-222h-157v689h157v-211l150 211h196zM198 -199c34 38 46 99 45 160h136c0 -80 -54 -157 -111 -199z" />
    <glyph glyph-name="L" unicode="L" horiz-adv-x="509" 
d="M79 0v689h157v-552h253v-137h-410z" />
    <glyph glyph-name="Lacute" unicode="&#x139;" horiz-adv-x="509" 
d="M84 770l94 171h142l-135 -171h-101zM79 0v689h157v-552h253v-137h-410z" />
    <glyph glyph-name="Lcaron" unicode="&#x13d;" horiz-adv-x="528" 
d="M79 0v689h157v-552h253v-137h-410zM385 453l-61 35c42 61 60 108 61 201h112c-12 -135 -64 -197 -112 -236z" />
    <glyph glyph-name="Lcommaaccent" unicode="&#x13b;" horiz-adv-x="509" 
d="M79 0v689h157v-552h253v-137h-410zM211 -238l-70 39c34 38 46 99 45 160h136c0 -80 -54 -157 -111 -199z" />
    <glyph glyph-name="Lslash" unicode="&#x141;" horiz-adv-x="525" 
d="M252 137h253v-137h-410v249l-76 -47v90l76 47v350h157v-252l99 61v-90l-99 -61v-210z" />
    <glyph glyph-name="M" unicode="M" horiz-adv-x="920" 
d="M877 0h-161l-45 392l-150 -313h-120l-150 312l-46 -391h-161l85 689h131l201 -431l198 431h134z" />
    <glyph glyph-name="N" unicode="N" horiz-adv-x="679" 
d="M443 689h157v-689h-138l-226 396v-396h-157v689h144l220 -391v391z" />
    <glyph glyph-name="Nacute" unicode="&#x143;" horiz-adv-x="679" 
d="M525 941l-135 -171h-101l94 171h142zM443 689h157v-689h-138l-226 396v-396h-157v689h144l220 -391v391z" />
    <glyph glyph-name="Ncaron" unicode="&#x147;" horiz-adv-x="679" 
d="M413 770h-148l-109 171h104l79 -89l79 89h105zM443 689h157v-689h-138l-226 396v-396h-157v689h144l220 -391v391z" />
    <glyph glyph-name="Ncommaaccent" unicode="&#x145;" horiz-adv-x="679" 
d="M443 689h157v-689h-138l-226 396v-396h-157v689h144l220 -391v391zM225 -199c34 38 46 99 45 160h136c0 -80 -54 -157 -111 -199z" />
    <glyph glyph-name="Eng" unicode="&#x14a;" horiz-adv-x="679" 
d="M443 689h157v-689c0 -127 -62 -236 -229 -236c-19 0 -67 6 -106 18l14 142c32 -11 87 -12 92 -12c51 0 72 40 72 88v33l-207 363v-396h-157v689h144l220 -390v390z" />
    <glyph glyph-name="Ntilde" unicode="&#xd1;" horiz-adv-x="679" 
d="M296 832c-7 0 -25 -11 -26 -43h-73c5 96 58 128 99 128c42 0 64 -41 87 -41c8 0 26 9 27 41h73c-4 -97 -60 -126 -100 -126c-39 0 -63 41 -87 41zM443 689h157v-689h-138l-226 396v-396h-157v689h144l220 -391v391z" />
    <glyph glyph-name="O" unicode="O" horiz-adv-x="781" 
d="M391 -9c-197 0 -352 159 -352 354s155 353 352 353c194 0 351 -158 351 -353s-157 -354 -351 -354zM390 139c115 0 194 91 194 206s-79 205 -194 205c-116 0 -193 -90 -193 -205s77 -206 193 -206z" />
    <glyph glyph-name="Oacute" unicode="&#xd3;" horiz-adv-x="781" 
d="M340 770l94 171h142l-135 -171h-101zM391 -9c-197 0 -352 159 -352 354s155 353 352 353c194 0 351 -158 351 -353s-157 -354 -351 -354zM390 139c115 0 194 91 194 206s-79 205 -194 205c-116 0 -193 -90 -193 -205s77 -206 193 -206z" />
    <glyph glyph-name="uni01D1" unicode="&#x1d1;" horiz-adv-x="781" 
d="M316 770l-109 171h104l79 -89l79 89h105l-110 -171h-148zM391 -9c-197 0 -352 159 -352 354s155 353 352 353c194 0 351 -158 351 -353s-157 -354 -351 -354zM390 139c115 0 194 91 194 206s-79 205 -194 205c-116 0 -193 -90 -193 -205s77 -206 193 -206z" />
    <glyph glyph-name="Ocircumflex" unicode="&#xd4;" horiz-adv-x="781" 
d="M207 770l109 171h148l110 -171h-105l-79 89l-79 -89h-104zM391 -9c-197 0 -352 159 -352 354s155 353 352 353c194 0 351 -158 351 -353s-157 -354 -351 -354zM390 139c115 0 194 91 194 206s-79 205 -194 205c-116 0 -193 -90 -193 -205s77 -206 193 -206z" />
    <glyph glyph-name="Odieresis" unicode="&#xd6;" horiz-adv-x="781" 
d="M285 788c-41 0 -75 31 -75 71c0 39 34 70 75 70s73 -31 73 -70c0 -40 -32 -71 -73 -71zM499 788c-42 0 -76 31 -76 71c0 39 34 70 76 70c40 0 73 -31 73 -70c0 -40 -33 -71 -73 -71zM391 -9c-197 0 -352 159 -352 354s155 353 352 353c194 0 351 -158 351 -353
s-157 -354 -351 -354zM390 139c115 0 194 91 194 206s-79 205 -194 205c-116 0 -193 -90 -193 -205s77 -206 193 -206z" />
    <glyph glyph-name="Ograve" unicode="&#xd2;" horiz-adv-x="781" 
d="M344 770l-135 171h143l93 -171h-101zM391 -9c-197 0 -352 159 -352 354s155 353 352 353c194 0 351 -158 351 -353s-157 -354 -351 -354zM390 139c115 0 194 91 194 206s-79 205 -194 205c-116 0 -193 -90 -193 -205s77 -206 193 -206z" />
    <glyph glyph-name="Ohungarumlaut" unicode="&#x150;" horiz-adv-x="781" 
d="M283 770l91 171h103l-103 -171h-91zM425 770l105 171h105l-113 -171h-97zM391 -9c-197 0 -352 159 -352 354s155 353 352 353c194 0 351 -158 351 -353s-157 -354 -351 -354zM390 139c115 0 194 91 194 206s-79 205 -194 205c-116 0 -193 -90 -193 -205s77 -206 193 -206
z" />
    <glyph glyph-name="Omacron" unicode="&#x14c;" horiz-adv-x="781" 
d="M249 807v87h283v-87h-283zM391 -9c-197 0 -352 159 -352 354s155 353 352 353c194 0 351 -158 351 -353s-157 -354 -351 -354zM390 139c115 0 194 91 194 206s-79 205 -194 205c-116 0 -193 -90 -193 -205s77 -206 193 -206z" />
    <glyph glyph-name="Oslash" unicode="&#xd8;" horiz-adv-x="783" 
d="M660 574c52 -62 83 -142 83 -229c0 -195 -156 -354 -351 -354c-85 0 -162 29 -222 79l-79 -82l-47 47l79 81c-51 62 -82 142 -82 229c0 195 154 353 351 353c84 0 161 -29 221 -78l79 81l47 -46zM199 345c0 -44 11 -85 32 -118l277 285c-32 24 -72 38 -117 38
c-115 0 -192 -90 -192 -205zM391 139c115 0 194 91 194 206c0 44 -12 85 -33 118l-277 -286c31 -24 71 -38 116 -38z" />
    <glyph glyph-name="Oslashacute" unicode="&#x1fe;" horiz-adv-x="783" 
d="M576 941l-135 -171h-101l94 171h142zM660 574c52 -62 83 -142 83 -229c0 -195 -156 -354 -351 -354c-85 0 -162 29 -222 79l-79 -82l-47 47l79 81c-51 62 -82 142 -82 229c0 195 154 353 351 353c84 0 161 -29 221 -78l79 81l47 -46zM199 345c0 -44 11 -85 32 -118
l277 285c-32 24 -72 38 -117 38c-115 0 -192 -90 -192 -205zM391 139c115 0 194 91 194 206c0 44 -12 85 -33 118l-277 -286c31 -24 71 -38 116 -38z" />
    <glyph glyph-name="Otilde" unicode="&#xd5;" horiz-adv-x="781" 
d="M248 789c5 96 58 128 99 128c42 0 64 -41 87 -41c8 0 26 9 27 41h73c-4 -97 -60 -126 -100 -126c-39 0 -63 41 -87 41c-7 0 -25 -11 -26 -43h-73zM391 -9c-197 0 -352 159 -352 354s155 353 352 353c194 0 351 -158 351 -353s-157 -354 -351 -354zM390 139
c115 0 194 91 194 206s-79 205 -194 205c-116 0 -193 -90 -193 -205s77 -206 193 -206z" />
    <glyph glyph-name="OE" unicode="&#x152;" horiz-adv-x="1083" 
d="M741 137h294v-137h-450v61c-50 -48 -124 -70 -194 -70c-197 0 -352 159 -352 354s155 353 352 353c72 0 141 -21 194 -71v62h441v-137h-285v-142h250v-141h-250v-132zM390 139c115 0 194 91 194 206s-79 205 -194 205c-116 0 -193 -90 -193 -205s77 -206 193 -206z" />
    <glyph glyph-name="P" unicode="P" horiz-adv-x="621" 
d="M363 689c160 0 232 -114 232 -228c0 -115 -72 -227 -232 -227h-127v-234h-157v689h284zM356 371c59 0 81 46 81 90s-22 91 -80 91h-121v-181h120z" />
    <glyph glyph-name="Thorn" unicode="&#xde;" horiz-adv-x="624" 
d="M358 573c130 0 230 -88 230 -226c0 -139 -100 -230 -230 -230h-122v-117h-157v689h157v-116h122zM346 254c50 0 85 37 85 90c0 56 -36 92 -86 92h-109v-182h110z" />
    <glyph glyph-name="Q" unicode="Q" horiz-adv-x="781" 
d="M742 344c0 -118 -57 -222 -145 -287l66 -109l-110 -66l-72 120c-29 -8 -59 -12 -90 -12c-197 0 -352 159 -352 354s155 353 352 353c194 0 351 -158 351 -353zM390 138h8l-54 90l110 65l65 -107c41 38 65 94 65 158c0 115 -79 205 -194 205c-116 0 -193 -90 -193 -205
s77 -206 193 -206z" />
    <glyph glyph-name="R" unicode="R" horiz-adv-x="642" 
d="M426 0l-159 242h-31v-242h-157v689h282c160 0 232 -114 232 -228c0 -97 -51 -182 -162 -210l178 -251h-183zM236 552v-186h100c69 0 99 45 99 91s-31 95 -95 95h-104z" />
    <glyph glyph-name="Racute" unicode="&#x154;" horiz-adv-x="642" 
d="M505 941l-135 -171h-101l94 171h142zM426 0l-159 242h-31v-242h-157v689h282c160 0 232 -114 232 -228c0 -97 -51 -182 -162 -210l178 -251h-183zM236 552v-186h100c69 0 99 45 99 91s-31 95 -95 95h-104z" />
    <glyph glyph-name="Rcaron" unicode="&#x158;" horiz-adv-x="642" 
d="M393 770h-148l-109 171h104l79 -89l79 89h105zM426 0l-159 242h-31v-242h-157v689h282c160 0 232 -114 232 -228c0 -97 -51 -182 -162 -210l178 -251h-183zM236 552v-186h100c69 0 99 45 99 91s-31 95 -95 95h-104z" />
    <glyph glyph-name="Rcommaaccent" unicode="&#x156;" horiz-adv-x="642" 
d="M431 251l178 -251h-183l-159 242h-31v-242h-157v689h282c160 0 232 -114 232 -228c0 -97 -51 -182 -162 -210zM236 552v-186h100c69 0 99 45 99 91s-31 95 -95 95h-104zM205 -199c34 38 46 99 45 160h136c0 -80 -54 -157 -111 -199z" />
    <glyph glyph-name="S" unicode="S" horiz-adv-x="587" 
d="M292 -9c-147 0 -249 86 -249 213h157c0 -44 44 -78 98 -78c51 0 90 23 90 68c0 27 -15 52 -76 72l-82 25c-152 41 -181 134 -181 199c0 124 106 208 243 208c132 0 233 -79 233 -213h-157c0 41 -25 76 -79 76c-49 0 -81 -30 -81 -68c0 -14 4 -45 68 -63l72 -22
c98 -30 198 -81 198 -206c0 -148 -128 -211 -254 -211z" />
    <glyph glyph-name="Sacute" unicode="&#x15a;" horiz-adv-x="587" 
d="M243 770l94 171h142l-135 -171h-101zM292 -9c-147 0 -249 86 -249 213h157c0 -44 44 -78 98 -78c51 0 90 23 90 68c0 27 -15 52 -76 72l-82 25c-152 41 -181 134 -181 199c0 124 106 208 243 208c132 0 233 -79 233 -213h-157c0 41 -25 76 -79 76c-49 0 -81 -30 -81 -68
c0 -14 4 -45 68 -63l72 -22c98 -30 198 -81 198 -206c0 -148 -128 -211 -254 -211z" />
    <glyph glyph-name="Scaron" unicode="&#x160;" horiz-adv-x="587" 
d="M219 770l-109 171h104l79 -89l79 89h105l-110 -171h-148zM292 -9c-147 0 -249 86 -249 213h157c0 -44 44 -78 98 -78c51 0 90 23 90 68c0 27 -15 52 -76 72l-82 25c-152 41 -181 134 -181 199c0 124 106 208 243 208c132 0 233 -79 233 -213h-157c0 41 -25 76 -79 76
c-49 0 -81 -30 -81 -68c0 -14 4 -45 68 -63l72 -22c98 -30 198 -81 198 -206c0 -148 -128 -211 -254 -211z" />
    <glyph glyph-name="Scedilla" unicode="&#x15e;" horiz-adv-x="587" 
d="M546 202c0 -132 -103 -197 -214 -209l28 -53c11 -19 11 -37 11 -50c0 -60 -48 -103 -103 -103c-58 0 -112 36 -112 119h72c0 -29 8 -51 37 -51c18 0 34 14 34 37c0 6 -1 14 -4 22l-37 79c-129 12 -215 94 -215 211h157c0 -44 44 -78 98 -78c51 0 90 23 90 68
c0 27 -15 52 -76 72l-82 25c-152 41 -181 134 -181 199c0 124 106 208 243 208c132 0 233 -79 233 -213h-157c0 41 -25 76 -79 76c-49 0 -81 -30 -81 -68c0 -14 4 -45 68 -63l72 -22c98 -30 198 -81 198 -206z" />
    <glyph glyph-name="Scommaaccent" unicode="&#x218;" horiz-adv-x="587" 
d="M292 -9c-147 0 -249 86 -249 213h157c0 -44 44 -78 98 -78c51 0 90 23 90 68c0 27 -15 52 -76 72l-82 25c-152 41 -181 134 -181 199c0 124 106 208 243 208c132 0 233 -79 233 -213h-157c0 41 -25 76 -79 76c-49 0 -81 -30 -81 -68c0 -14 4 -45 68 -63l72 -22
c98 -30 198 -81 198 -206c0 -148 -128 -211 -254 -211zM249 -238l-70 39c34 38 46 99 45 160h136c0 -80 -54 -157 -111 -199z" />
    <glyph glyph-name="uni1E9E" unicode="&#x1e9e;" horiz-adv-x="696" 
d="M490 418c99 -23 168 -93 168 -197c0 -132 -97 -231 -243 -231c-46 0 -86 5 -117 17l18 136c20 -11 42 -14 76 -14c65 0 108 42 108 105c0 67 -51 112 -128 112h-40l-2 57l83 147c-20 6 -41 8 -57 8c-63 0 -127 -47 -127 -147v-411h-157v408c0 198 127 289 286 289
c84 0 185 -27 247 -64v-14z" />
    <glyph glyph-name="T" unicode="T" horiz-adv-x="561" 
d="M541 689v-137h-182v-552h-157v552h-182v137h521z" />
    <glyph glyph-name="Tbar" unicode="&#x166;" horiz-adv-x="573" 
d="M547 552h-182v-191h100v-76h-100v-285h-157v285h-100v76h100v191h-182v137h521v-137z" />
    <glyph glyph-name="Tcaron" unicode="&#x164;" horiz-adv-x="561" 
d="M354 770h-148l-109 171h104l79 -89l79 89h105zM541 689v-137h-182v-552h-157v552h-182v137h521z" />
    <glyph glyph-name="uni0162" unicode="&#x162;" horiz-adv-x="561" 
d="M541 552h-182v-541l38 -71c11 -19 11 -37 11 -50c0 -60 -48 -103 -103 -103c-58 0 -113 36 -113 119h73c0 -29 8 -51 37 -51c18 0 34 14 34 37c0 6 -1 14 -4 22l-41 86h-89v552h-182v137h521v-137z" />
    <glyph glyph-name="uni021A" unicode="&#x21a;" horiz-adv-x="561" 
d="M541 689v-137h-182v-552h-157v552h-182v137h521zM166 -199c34 38 46 99 45 160h136c0 -80 -54 -157 -111 -199z" />
    <glyph glyph-name="U" unicode="U" horiz-adv-x="681" 
d="M341 -9c-142 0 -269 99 -269 258v440h157v-428c0 -87 55 -121 112 -121c56 0 111 34 111 121v428h157v-440c0 -159 -126 -258 -268 -258z" />
    <glyph glyph-name="Uacute" unicode="&#xda;" horiz-adv-x="681" 
d="M290 770l94 171h142l-135 -171h-101zM341 -9c-142 0 -269 99 -269 258v440h157v-428c0 -87 55 -121 112 -121c56 0 111 34 111 121v428h157v-440c0 -159 -126 -258 -268 -258z" />
    <glyph glyph-name="uni01D3" unicode="&#x1d3;" horiz-adv-x="681" 
d="M266 770l-109 171h104l79 -89l79 89h105l-110 -171h-148zM341 -9c-142 0 -269 99 -269 258v440h157v-428c0 -87 55 -121 112 -121c56 0 111 34 111 121v428h157v-440c0 -159 -126 -258 -268 -258z" />
    <glyph glyph-name="Ucircumflex" unicode="&#xdb;" horiz-adv-x="681" 
d="M157 770l109 171h148l110 -171h-105l-79 89l-79 -89h-104zM341 -9c-142 0 -269 99 -269 258v440h157v-428c0 -87 55 -121 112 -121c56 0 111 34 111 121v428h157v-440c0 -159 -126 -258 -268 -258z" />
    <glyph glyph-name="Udieresis" unicode="&#xdc;" horiz-adv-x="681" 
d="M235 788c-41 0 -75 31 -75 71c0 39 34 70 75 70s73 -31 73 -70c0 -40 -32 -71 -73 -71zM449 788c-42 0 -76 31 -76 71c0 39 34 70 76 70c40 0 73 -31 73 -70c0 -40 -33 -71 -73 -71zM341 -9c-142 0 -269 99 -269 258v440h157v-428c0 -87 55 -121 112 -121
c56 0 111 34 111 121v428h157v-440c0 -159 -126 -258 -268 -258z" />
    <glyph glyph-name="uni01D7" unicode="&#x1d7;" horiz-adv-x="681" 
d="M289 966l94 171h142l-135 -171h-101zM235 788c-41 0 -75 31 -75 71c0 39 34 70 75 70s73 -31 73 -70c0 -40 -32 -71 -73 -71zM449 788c-42 0 -76 31 -76 71c0 39 34 70 76 70c40 0 73 -31 73 -70c0 -40 -33 -71 -73 -71zM341 -9c-142 0 -269 99 -269 258v440h157v-428
c0 -87 55 -121 112 -121c56 0 111 34 111 121v428h157v-440c0 -159 -126 -258 -268 -258z" />
    <glyph glyph-name="uni01D9" unicode="&#x1d9;" horiz-adv-x="681" 
d="M266 966l-109 171h104l79 -89l79 89h105l-110 -171h-148zM235 788c-41 0 -75 31 -75 71c0 39 34 70 75 70s73 -31 73 -70c0 -40 -32 -71 -73 -71zM449 788c-42 0 -76 31 -76 71c0 39 34 70 76 70c40 0 73 -31 73 -70c0 -40 -33 -71 -73 -71zM341 -9
c-142 0 -269 99 -269 258v440h157v-428c0 -87 55 -121 112 -121c56 0 111 34 111 121v428h157v-440c0 -159 -126 -258 -268 -258z" />
    <glyph glyph-name="uni01DB" unicode="&#x1db;" horiz-adv-x="681" 
d="M294 965l-135 171h143l93 -171h-101zM235 788c-41 0 -75 31 -75 71c0 39 34 70 75 70s73 -31 73 -70c0 -40 -32 -71 -73 -71zM449 788c-42 0 -76 31 -76 71c0 39 34 70 76 70c40 0 73 -31 73 -70c0 -40 -33 -71 -73 -71zM341 -9c-142 0 -269 99 -269 258v440h157v-428
c0 -87 55 -121 112 -121c56 0 111 34 111 121v428h157v-440c0 -159 -126 -258 -268 -258z" />
    <glyph glyph-name="uni01D5" unicode="&#x1d5;" horiz-adv-x="681" 
d="M199 1000v87h283v-87h-283zM235 788c-41 0 -75 31 -75 71c0 39 34 70 75 70s73 -31 73 -70c0 -40 -32 -71 -73 -71zM449 788c-42 0 -76 31 -76 71c0 39 34 70 76 70c40 0 73 -31 73 -70c0 -40 -33 -71 -73 -71zM341 -9c-142 0 -269 99 -269 258v440h157v-428
c0 -87 55 -121 112 -121c56 0 111 34 111 121v428h157v-440c0 -159 -126 -258 -268 -258z" />
    <glyph glyph-name="Ugrave" unicode="&#xd9;" horiz-adv-x="681" 
d="M294 770l-135 171h143l93 -171h-101zM341 -9c-142 0 -269 99 -269 258v440h157v-428c0 -87 55 -121 112 -121c56 0 111 34 111 121v428h157v-440c0 -159 -126 -258 -268 -258z" />
    <glyph glyph-name="Uhungarumlaut" unicode="&#x170;" horiz-adv-x="681" 
d="M233 770l91 171h103l-103 -171h-91zM375 770l105 171h105l-113 -171h-97zM341 -9c-142 0 -269 99 -269 258v440h157v-428c0 -87 55 -121 112 -121c56 0 111 34 111 121v428h157v-440c0 -159 -126 -258 -268 -258z" />
    <glyph glyph-name="Umacron" unicode="&#x16a;" horiz-adv-x="681" 
d="M199 807v87h283v-87h-283zM341 -9c-142 0 -269 99 -269 258v440h157v-428c0 -87 55 -121 112 -121c56 0 111 34 111 121v428h157v-440c0 -159 -126 -258 -268 -258z" />
    <glyph glyph-name="Uogonek" unicode="&#x172;" horiz-adv-x="681" 
d="M452 689h157v-440c0 -144 -104 -239 -229 -255l-38 -80c-2 -8 -3 -16 -3 -22c0 -23 15 -37 33 -37c30 0 37 22 37 51h73c0 -83 -55 -119 -112 -119c-56 0 -104 43 -104 103c0 13 1 31 11 50l28 53c-127 15 -233 110 -233 256v440h157v-428c0 -87 55 -121 112 -121
c56 0 111 34 111 121v428z" />
    <glyph glyph-name="Uring" unicode="&#x16e;" horiz-adv-x="681" 
d="M340 757c-68 0 -126 54 -126 124s58 126 126 126c70 0 128 -56 128 -126s-58 -124 -128 -124zM340 818c36 0 68 26 68 63s-32 66 -68 66c-35 0 -65 -29 -65 -66s30 -63 65 -63zM341 -9c-142 0 -269 99 -269 258v440h157v-428c0 -87 55 -121 112 -121c56 0 111 34 111 121
v428h157v-440c0 -159 -126 -258 -268 -258z" />
    <glyph glyph-name="V" unicode="V" horiz-adv-x="589" 
d="M409 689h165l-210 -689h-139l-210 689h163l116 -436z" />
    <glyph glyph-name="W" unicode="W" horiz-adv-x="905" 
d="M728 689h171l-234 -689h-122l-92 350l-89 -350h-123l-232 689h169l127 -412l85 314h129l84 -316z" />
    <glyph glyph-name="Wacute" unicode="&#x1e82;" horiz-adv-x="905" 
d="M638 941l-135 -171h-101l94 171h142zM728 689h171l-234 -689h-122l-92 350l-89 -350h-123l-232 689h169l127 -412l85 314h129l84 -316z" />
    <glyph glyph-name="Wcircumflex" unicode="&#x174;" horiz-adv-x="905" 
d="M452 859l-79 -89h-104l109 171h148l110 -171h-105zM728 689h171l-234 -689h-122l-92 350l-89 -350h-123l-232 689h169l127 -412l85 314h129l84 -316z" />
    <glyph glyph-name="Wdieresis" unicode="&#x1e84;" horiz-adv-x="905" 
d="M347 788c-41 0 -75 31 -75 71c0 39 34 70 75 70s73 -31 73 -70c0 -40 -32 -71 -73 -71zM561 788c-42 0 -76 31 -76 71c0 39 34 70 76 70c40 0 73 -31 73 -70c0 -40 -33 -71 -73 -71zM728 689h171l-234 -689h-122l-92 350l-89 -350h-123l-232 689h169l127 -412l85 314h129
l84 -316z" />
    <glyph glyph-name="Wgrave" unicode="&#x1e80;" horiz-adv-x="905" 
d="M507 770h-101l-135 171h143zM728 689h171l-234 -689h-122l-92 350l-89 -350h-123l-232 689h169l127 -412l85 314h129l84 -316z" />
    <glyph glyph-name="X" unicode="X" horiz-adv-x="666" 
d="M665 0h-185l-147 242l-147 -242h-184l237 367l-217 322h190l121 -197l123 197h188l-218 -322z" />
    <glyph glyph-name="Y" unicode="Y" horiz-adv-x="687" 
d="M504 689h187l-269 -381v-308h-158v311l-268 378h187l159 -254z" />
    <glyph glyph-name="Yacute" unicode="&#xdd;" horiz-adv-x="687" 
d="M529 941l-135 -171h-101l94 171h142zM504 689h187l-269 -381v-308h-158v311l-268 378h187l159 -254z" />
    <glyph glyph-name="Ycircumflex" unicode="&#x176;" horiz-adv-x="687" 
d="M343 859l-79 -89h-104l109 171h148l110 -171h-105zM504 689h187l-269 -381v-308h-158v311l-268 378h187l159 -254z" />
    <glyph glyph-name="Ydieresis" unicode="&#x178;" horiz-adv-x="687" 
d="M238 788c-41 0 -75 31 -75 71c0 39 34 70 75 70s73 -31 73 -70c0 -40 -32 -71 -73 -71zM452 788c-42 0 -76 31 -76 71c0 39 34 70 76 70c40 0 73 -31 73 -70c0 -40 -33 -71 -73 -71zM504 689h187l-269 -381v-308h-158v311l-268 378h187l159 -254z" />
    <glyph glyph-name="Ygrave" unicode="&#x1ef2;" horiz-adv-x="687" 
d="M398 770h-101l-135 171h143zM504 689h187l-269 -381v-308h-158v311l-268 378h187l159 -254z" />
    <glyph glyph-name="Z" unicode="Z" horiz-adv-x="596" 
d="M550 689v-117l-309 -435h309v-137h-510v117l304 435h-291v137h497z" />
    <glyph glyph-name="Zacute" unicode="&#x179;" horiz-adv-x="596" 
d="M483 941l-135 -171h-101l94 171h142zM550 689v-117l-309 -435h309v-137h-510v117l304 435h-291v137h497z" />
    <glyph glyph-name="Zcaron" unicode="&#x17d;" horiz-adv-x="596" 
d="M371 770h-148l-109 171h104l79 -89l79 89h105zM550 689v-117l-309 -435h309v-137h-510v117l304 435h-291v137h497z" />
    <glyph glyph-name="Zdotaccent" unicode="&#x17b;" horiz-adv-x="596" 
d="M298 778c-45 0 -80 32 -80 78c0 45 35 77 80 77s81 -32 81 -77c0 -46 -36 -78 -81 -78zM550 689v-117l-309 -435h309v-137h-510v117l304 435h-291v137h497z" />
    <glyph glyph-name="IJ.alt" horiz-adv-x="752" 
d="M79 0v689h157v-689h-157zM450 -9c-19 0 -68 5 -106 18l14 141c31 -11 86 -11 92 -11c51 0 71 39 71 87v463h157v-463c0 -127 -61 -235 -228 -235z" />
    <glyph glyph-name="J.alt" horiz-adv-x="422" 
d="M120 -9c-19 0 -67 5 -106 18l14 141c32 -11 87 -11 92 -11c51 0 72 39 72 87v463h157v-463c0 -127 -62 -235 -229 -235z" />
    <glyph glyph-name="Jcircumflex.alt" horiz-adv-x="422" 
d="M87 770l109 171h148l110 -171h-105l-79 89l-79 -89h-104zM120 -9c-19 0 -67 5 -106 18l14 141c32 -11 87 -11 92 -11c51 0 72 39 72 87v463h157v-463c0 -127 -62 -235 -229 -235z" />
    <glyph glyph-name="W.alt" horiz-adv-x="916" 
d="M726 689h178l-203 -689h-131l-111 404l-112 -404h-131l-204 689h178l100 -387l103 364h130l103 -364z" />
    <glyph glyph-name="Wacute.alt" horiz-adv-x="916" 
d="M644 941l-136 -171h-101l94 171h143zM726 689h178l-203 -689h-131l-111 404l-112 -404h-131l-204 689h178l100 -387l103 364h130l103 -364z" />
    <glyph glyph-name="Wcircumflex.alt" horiz-adv-x="916" 
d="M458 859l-79 -89h-104l109 171h147l110 -171h-104zM726 689h178l-203 -689h-131l-111 404l-112 -404h-131l-204 689h178l100 -387l103 364h130l103 -364z" />
    <glyph glyph-name="Wdieresis.alt" horiz-adv-x="916" 
d="M352 788c-41 0 -75 31 -75 71c0 39 34 70 75 70s73 -31 73 -70c0 -40 -32 -71 -73 -71zM567 788c-42 0 -76 31 -76 71c0 39 34 70 76 70c40 0 72 -31 72 -70c0 -40 -32 -71 -72 -71zM726 689h178l-203 -689h-131l-111 404l-112 -404h-131l-204 689h178l100 -387l103 364
h130l103 -364z" />
    <glyph glyph-name="Wgrave.alt" horiz-adv-x="916" 
d="M513 770h-101l-135 171h143zM726 689h178l-203 -689h-131l-111 404l-112 -404h-131l-204 689h178l100 -387l103 364h130l103 -364z" />
    <glyph glyph-name="A.c2sc" horiz-adv-x="602" 
d="M447 0l-43 132h-205l-42 -132h-159l222 583h162l221 -583h-156zM240 260h122l-62 188z" />
    <glyph glyph-name="Aacute.c2sc" horiz-adv-x="602" 
d="M465 803l-121 -149h-91l82 149h130zM447 0l-43 132h-205l-42 -132h-159l222 583h162l221 -583h-156zM240 260h122l-62 188z" />
    <glyph glyph-name="Abreve.c2sc" horiz-adv-x="602" 
d="M301 667c-81 0 -119 56 -119 112h78c0 -29 10 -42 41 -42s40 18 40 42h80c0 -66 -50 -112 -120 -112zM447 0l-43 132h-205l-42 -132h-159l222 583h162l221 -583h-156zM240 260h122l-62 188z" />
    <glyph glyph-name="uni01CD.c2sc" horiz-adv-x="602" 
d="M369 654h-138l-96 149h95l70 -76l70 76h96zM447 0l-43 132h-205l-42 -132h-159l222 583h162l221 -583h-156zM240 260h122l-62 188z" />
    <glyph glyph-name="Acircumflex.c2sc" horiz-adv-x="602" 
d="M300 730l-70 -76h-95l96 149h138l97 -149h-96zM447 0l-43 132h-205l-42 -132h-159l222 583h162l221 -583h-156zM240 260h122l-62 188z" />
    <glyph glyph-name="Adieresis.c2sc" horiz-adv-x="602" 
d="M206 671c-37 0 -67 28 -67 63s30 63 67 63c38 0 66 -28 66 -63s-28 -63 -66 -63zM398 671c-38 0 -69 28 -69 63s31 63 69 63c36 0 65 -28 65 -63s-29 -63 -65 -63zM447 0l-43 132h-205l-42 -132h-159l222 583h162l221 -583h-156zM240 260h122l-62 188z" />
    <glyph glyph-name="Agrave.c2sc" horiz-adv-x="602" 
d="M352 654h-91l-121 149h130zM447 0l-43 132h-205l-42 -132h-159l222 583h162l221 -583h-156zM240 260h122l-62 188z" />
    <glyph glyph-name="Amacron.c2sc" horiz-adv-x="602" 
d="M428 760v-75h-254v75h254zM447 0l-43 132h-205l-42 -132h-159l222 583h162l221 -583h-156zM240 260h122l-62 188z" />
    <glyph glyph-name="Aogonek.c2sc" horiz-adv-x="602" 
d="M487 -122c28 0 32 18 32 42h66c0 -74 -51 -103 -101 -103c-48 0 -91 38 -91 88c0 11 0 27 10 44l39 67l-38 116h-205l-42 -132h-159l222 583h162l221 -583h-103l-38 -73c-3 -6 -3 -13 -3 -20c0 -19 13 -29 28 -29zM240 260h122l-62 188z" />
    <glyph glyph-name="Aring.c2sc" horiz-adv-x="602" 
d="M300 641c-62 0 -114 48 -114 110c0 61 52 110 114 110c63 0 116 -49 116 -110c0 -62 -53 -110 -116 -110zM300 809c-31 0 -59 -26 -59 -58c0 -34 28 -58 59 -58c33 0 62 24 62 58c0 32 -29 58 -62 58zM447 0l-43 132h-205l-42 -132h-159l222 583h162l221 -583h-156z
M240 260h122l-62 188z" />
    <glyph glyph-name="Aringacute.c2sc" horiz-adv-x="602" 
d="M300 641c-62 0 -114 48 -114 110c0 46 29 85 70 102l48 83h131l-81 -88c36 -18 62 -55 62 -97c0 -62 -53 -110 -116 -110zM300 693c33 0 62 24 62 58c0 32 -29 58 -62 58c-31 0 -59 -26 -59 -58c0 -34 28 -58 59 -58zM447 0l-43 132h-205l-42 -132h-159l222 583h162
l221 -583h-156zM240 260h122l-62 188z" />
    <glyph glyph-name="Atilde.c2sc" horiz-adv-x="602" 
d="M263 707c-6 0 -22 -9 -23 -36h-66c4 83 52 111 89 111c36 0 55 -35 76 -35c6 0 22 8 22 35h66c-3 -84 -53 -109 -88 -109c-34 0 -57 34 -76 34zM447 0l-43 132h-205l-42 -132h-159l222 583h162l221 -583h-156zM240 260h122l-62 188z" />
    <glyph glyph-name="AE.c2sc" horiz-adv-x="837" 
d="M536 129h253v-129h-401v127h-164l-60 -127h-179l305 583h491v-129h-245v-104h215v-124h-215v-97zM285 254h102v200h-7z" />
    <glyph glyph-name="AEacute.c2sc" horiz-adv-x="837" 
d="M585 803l-121 -149h-91l82 149h130zM536 129h253v-129h-401v127h-164l-60 -127h-179l305 583h491v-129h-245v-104h215v-124h-215v-97zM285 254h102v200h-7z" />
    <glyph glyph-name="B.c2sc" horiz-adv-x="579" 
d="M422 311c80 -11 117 -76 117 -142c0 -79 -52 -169 -201 -169h-264v583h247c113 0 186 -66 186 -151c0 -37 -15 -100 -85 -121zM310 454h-88v-94h87c29 0 50 15 50 46c0 25 -14 48 -49 48zM322 128c45 0 67 29 67 56c0 25 -19 55 -68 55h-99v-111h100z" />
    <glyph glyph-name="C.c2sc" horiz-adv-x="631" 
d="M346 -6c-170 0 -307 133 -307 299c0 164 137 298 307 298c108 0 204 -55 259 -138l-116 -79c-30 48 -73 76 -136 76c-97 0 -165 -68 -165 -157c0 -88 65 -159 165 -159c63 0 106 28 136 76l116 -79c-55 -82 -151 -137 -259 -137z" />
    <glyph glyph-name="Cacute.c2sc" horiz-adv-x="631" 
d="M268 654l82 149h130l-121 -149h-91zM346 -6c-170 0 -307 133 -307 299c0 164 137 298 307 298c108 0 204 -55 259 -138l-116 -79c-30 48 -73 76 -136 76c-97 0 -165 -68 -165 -157c0 -88 65 -159 165 -159c63 0 106 28 136 76l116 -79c-55 -82 -151 -137 -259 -137z" />
    <glyph glyph-name="Ccaron.c2sc" horiz-adv-x="631" 
d="M274 654l-96 149h95l70 -76l70 76h96l-97 -149h-138zM346 -6c-170 0 -307 133 -307 299c0 164 137 298 307 298c108 0 204 -55 259 -138l-116 -79c-30 48 -73 76 -136 76c-97 0 -165 -68 -165 -157c0 -88 65 -159 165 -159c63 0 106 28 136 76l116 -79
c-55 -82 -151 -137 -259 -137z" />
    <glyph glyph-name="Ccedilla.c2sc" horiz-adv-x="631" 
d="M353 134c63 0 106 28 136 76l116 -79c-50 -75 -134 -127 -230 -136l27 -46c9 -17 9 -33 9 -44c0 -50 -43 -88 -91 -88c-50 0 -100 29 -100 103h66c0 -24 4 -42 31 -42c15 0 30 10 30 29c0 7 -1 14 -4 20l-37 69c-151 19 -267 144 -267 297c0 164 137 298 307 298
c108 0 204 -55 259 -138l-116 -79c-30 48 -73 76 -136 76c-97 0 -165 -68 -165 -157c0 -88 65 -159 165 -159z" />
    <glyph glyph-name="Cdotaccent.c2sc" horiz-adv-x="631" 
d="M346 661c-42 0 -74 29 -74 71c0 40 32 69 74 69c40 0 73 -29 73 -69c0 -42 -33 -71 -73 -71zM346 -6c-170 0 -307 133 -307 299c0 164 137 298 307 298c108 0 204 -55 259 -138l-116 -79c-30 48 -73 76 -136 76c-97 0 -165 -68 -165 -157c0 -88 65 -159 165 -159
c63 0 106 28 136 76l116 -79c-55 -82 -151 -137 -259 -137z" />
    <glyph glyph-name="D.c2sc" horiz-adv-x="631" 
d="M74 0v583h239c174 0 276 -127 276 -293c0 -165 -102 -290 -276 -290h-239zM222 128h91c84 0 127 81 127 162c0 82 -43 164 -127 164h-91v-326z" />
    <glyph glyph-name="Eth.c2sc" horiz-adv-x="644" 
d="M326 583c175 0 275 -127 275 -293c0 -165 -100 -290 -275 -290h-239v233h-66v108h66v242h239zM326 128c84 0 126 81 126 162c0 82 -42 164 -126 164h-91v-113h91v-108h-91v-105h91z" />
    <glyph glyph-name="Dcaron.c2sc" horiz-adv-x="631" 
d="M219 654l-95 149h94l70 -76l71 76h95l-97 -149h-138zM74 0v583h239c174 0 276 -127 276 -293c0 -165 -102 -290 -276 -290h-239zM222 128h91c84 0 127 81 127 162c0 82 -43 164 -127 164h-91v-326z" />
    <glyph glyph-name="Dcroat.c2sc" horiz-adv-x="644" 
d="M326 583c175 0 275 -127 275 -293c0 -165 -100 -290 -275 -290h-239v233h-66v108h66v242h239zM326 128c84 0 126 81 126 162c0 82 -42 164 -126 164h-91v-113h91v-108h-91v-105h91z" />
    <glyph glyph-name="E.c2sc" horiz-adv-x="524" 
d="M222 128h253v-128h-401v583h393v-129h-245v-101h216v-132h-216v-93z" />
    <glyph glyph-name="Eacute.c2sc" horiz-adv-x="524" 
d="M427 803l-122 -149h-90l81 149h131zM222 128h253v-128h-401v583h393v-129h-245v-101h216v-132h-216v-93z" />
    <glyph glyph-name="Ecaron.c2sc" horiz-adv-x="524" 
d="M331 654h-138l-96 149h94l71 -76l70 76h96zM222 128h253v-128h-401v583h393v-129h-245v-101h216v-132h-216v-93z" />
    <glyph glyph-name="Ecircumflex.c2sc" horiz-adv-x="524" 
d="M262 730l-71 -76h-94l96 149h138l97 -149h-96zM222 128h253v-128h-401v583h393v-129h-245v-101h216v-132h-216v-93z" />
    <glyph glyph-name="Edieresis.c2sc" horiz-adv-x="524" 
d="M167 671c-36 0 -68 28 -68 63s32 63 68 63c37 0 67 -28 67 -63s-30 -63 -67 -63zM360 671c-38 0 -69 28 -69 63s31 63 69 63c36 0 64 -28 64 -63s-28 -63 -64 -63zM222 128h253v-128h-401v583h393v-129h-245v-101h216v-132h-216v-93z" />
    <glyph glyph-name="Edotaccent.c2sc" horiz-adv-x="524" 
d="M263 661c-42 0 -74 29 -74 71c0 40 32 69 74 69c40 0 73 -29 73 -69c0 -42 -33 -71 -73 -71zM222 128h253v-128h-401v583h393v-129h-245v-101h216v-132h-216v-93z" />
    <glyph glyph-name="Egrave.c2sc" horiz-adv-x="524" 
d="M313 654h-90l-122 149h130zM222 128h253v-128h-401v583h393v-129h-245v-101h216v-132h-216v-93z" />
    <glyph glyph-name="Emacron.c2sc" horiz-adv-x="524" 
d="M389 760v-75h-253v75h253zM222 128h253v-128h-401v583h393v-129h-245v-101h216v-132h-216v-93z" />
    <glyph glyph-name="Eogonek.c2sc" horiz-adv-x="524" 
d="M382 0l-39 -73c-3 -6 -3 -13 -3 -20c0 -19 14 -29 28 -29c28 0 32 18 32 42h66c0 -74 -51 -103 -100 -103c-48 0 -91 38 -91 88c0 11 -1 27 10 44l30 51h-241v583h393v-129h-245v-101h216v-132h-216v-93h253v-128h-93z" />
    <glyph glyph-name="F.c2sc" horiz-adv-x="496" 
d="M462 454h-240v-104h190v-127h-190v-223h-148v583h388v-129z" />
    <glyph glyph-name="G.c2sc" horiz-adv-x="675" 
d="M350 -7c-174 0 -311 134 -311 298c0 166 137 300 311 300c99 0 184 -42 237 -107l-110 -91c-32 38 -77 60 -127 60c-91 0 -162 -72 -162 -162c0 -87 71 -168 162 -168c64 0 113 20 132 59c3 5 4 8 5 14h-169v118h330c0 -226 -124 -321 -298 -321z" />
    <glyph glyph-name="Gbreve.c2sc" horiz-adv-x="675" 
d="M337 667c-80 0 -120 56 -120 112h79c0 -29 10 -42 41 -42c30 0 39 18 39 42h80c0 -66 -50 -112 -119 -112zM350 -7c-174 0 -311 134 -311 298c0 166 137 300 311 300c99 0 184 -42 237 -107l-110 -91c-32 38 -77 60 -127 60c-91 0 -162 -72 -162 -162
c0 -87 71 -168 162 -168c64 0 113 20 132 59c3 5 4 8 5 14h-169v118h330c0 -226 -124 -321 -298 -321z" />
    <glyph glyph-name="Gcommaaccent.c2sc" horiz-adv-x="675" 
d="M350 -7c-174 0 -311 134 -311 298c0 166 137 300 311 300c99 0 184 -42 237 -107l-110 -91c-32 38 -77 60 -127 60c-91 0 -162 -72 -162 -162c0 -87 71 -168 162 -168c64 0 113 20 132 59c3 5 4 8 5 14h-169v118h330c0 -226 -124 -321 -298 -321zM295 -202l-64 37
c30 29 39 86 40 132h127c0 -61 -51 -132 -103 -169z" />
    <glyph glyph-name="Gdotaccent.c2sc" horiz-adv-x="675" 
d="M337 661c-42 0 -73 29 -73 71c0 40 31 69 73 69c41 0 73 -29 73 -69c0 -42 -32 -71 -73 -71zM350 -7c-174 0 -311 134 -311 298c0 166 137 300 311 300c99 0 184 -42 237 -107l-110 -91c-32 38 -77 60 -127 60c-91 0 -162 -72 -162 -162c0 -87 71 -168 162 -168
c64 0 113 20 132 59c3 5 4 8 5 14h-169v118h330c0 -226 -124 -321 -298 -321z" />
    <glyph glyph-name="H.c2sc" horiz-adv-x="626" 
d="M404 583h148v-583h-148v223h-182v-223h-148v583h148v-227h182v227z" />
    <glyph glyph-name="Hbar.c2sc" horiz-adv-x="646" 
d="M628 502v-70h-66v-432h-148v223h-182v-223h-148v432h-66v70h66v81h148v-81h182v81h148v-81h66zM414 356v76h-182v-76h182z" />
    <glyph glyph-name="I.c2sc" horiz-adv-x="296" 
d="M74 0v583h148v-583h-148z" />
    <glyph glyph-name="IJ.c2sc" horiz-adv-x="580" 
d="M74 0v583h148v-583h-148zM302 -201c-16 0 -61 5 -97 17l13 133c30 -11 80 -11 84 -11c39 0 56 28 56 63v582h148v-582c0 -109 -55 -202 -204 -202z" />
    <glyph glyph-name="Iacute.c2sc" horiz-adv-x="296" 
d="M101 654l81 149h131l-121 -149h-91zM74 0v583h148v-583h-148z" />
    <glyph glyph-name="uni01CF.c2sc" horiz-adv-x="296" 
d="M79 654l-96 149h94l71 -76l70 76h96l-97 -149h-138zM74 0v583h148v-583h-148z" />
    <glyph glyph-name="Icircumflex.c2sc" horiz-adv-x="296" 
d="M-17 654l96 149h138l97 -149h-96l-70 76l-71 -76h-94zM74 0v583h148v-583h-148z" />
    <glyph glyph-name="Idieresis.c2sc" horiz-adv-x="296" 
d="M53 671c-36 0 -67 28 -67 63s31 63 67 63c37 0 67 -28 67 -63s-30 -63 -67 -63zM245 671c-38 0 -68 28 -68 63s30 63 68 63c36 0 65 -28 65 -63s-29 -63 -65 -63zM74 0v583h148v-583h-148z" />
    <glyph glyph-name="Idotaccent.c2sc" horiz-adv-x="296" 
d="M149 661c-42 0 -74 29 -74 71c0 40 32 69 74 69c40 0 73 -29 73 -69c0 -42 -33 -71 -73 -71zM74 0v583h148v-583h-148z" />
    <glyph glyph-name="Igrave.c2sc" horiz-adv-x="296" 
d="M109 654l-122 149h131l81 -149h-90zM74 0v583h148v-583h-148z" />
    <glyph glyph-name="Imacron.c2sc" horiz-adv-x="296" 
d="M22 685v75h253v-75h-253zM74 0v583h148v-583h-148z" />
    <glyph glyph-name="Iogonek.c2sc" horiz-adv-x="297" 
d="M159 -80h66c0 -74 -50 -103 -100 -103c-48 0 -91 38 -91 88c0 11 -1 26 9 44l31 54l1 580h148v-583h-83l-38 -73c-2 -6 -3 -13 -3 -20c0 -19 14 -29 28 -29c28 0 32 18 32 42z" />
    <glyph glyph-name="Itilde.c2sc" horiz-adv-x="296" 
d="M21 671c4 83 52 111 90 111c36 0 54 -35 76 -35c6 0 22 8 23 35h65c-3 -84 -54 -109 -88 -109c-35 0 -57 34 -76 34c-7 0 -22 -9 -23 -36h-67zM74 0v583h148v-583h-148z" />
    <glyph glyph-name="J.c2sc" horiz-adv-x="304" 
d="M28 -201c-17 0 -63 5 -99 17l14 133c30 -11 81 -11 85 -11c38 0 54 28 54 63v582h148v-582c0 -109 -54 -202 -202 -202z" />
    <glyph glyph-name="Jcircumflex.c2sc" horiz-adv-x="304" 
d="M-8 654l95 149h138l97 -149h-95l-70 76l-72 -76h-93zM28 -201c-17 0 -63 5 -99 17l14 133c30 -11 81 -11 85 -11c38 0 54 28 54 63v582h148v-582c0 -109 -54 -202 -202 -202z" />
    <glyph glyph-name="K.c2sc" horiz-adv-x="570" 
d="M582 0h-204l-156 171v-171h-148v583h148v-158l118 158h186l-227 -287z" />
    <glyph glyph-name="Kcommaaccent.c2sc" horiz-adv-x="570" 
d="M299 296l283 -296h-204l-156 171v-171h-148v583h148v-158l118 158h186zM179 -165c31 29 40 86 40 132h128c0 -61 -51 -132 -104 -169z" />
    <glyph glyph-name="L.c2sc" horiz-adv-x="464" 
d="M74 0v583h148v-455h217v-128h-365z" />
    <glyph glyph-name="Lacute.c2sc" horiz-adv-x="464" 
d="M79 654l81 149h131l-122 -149h-90zM74 0v583h148v-455h217v-128h-365z" />
    <glyph glyph-name="Lcaron.c2sc" horiz-adv-x="487" 
d="M74 0v583h148v-455h217v-128h-365zM358 373l-54 34c37 53 53 96 54 176h103c-12 -122 -61 -176 -103 -210z" />
    <glyph glyph-name="Lcommaaccent.c2sc" horiz-adv-x="464" 
d="M74 0v583h148v-455h217v-128h-365zM190 -202l-63 37c29 29 39 86 39 132h127c0 -61 -50 -132 -103 -169z" />
    <glyph glyph-name="Lslash.c2sc" horiz-adv-x="481" 
d="M239 128h216v-128h-364v210l-69 -42v81l69 42v292h148v-202l86 52v-80l-86 -53v-172z" />
    <glyph glyph-name="M.c2sc" horiz-adv-x="818" 
d="M774 0h-152l-37 302l-119 -234h-112l-121 235l-38 -303h-152l75 583h123l168 -347l168 347h124z" />
    <glyph glyph-name="N.c2sc" horiz-adv-x="609" 
d="M387 583h148v-583h-129l-184 305v-305h-148v583h134l179 -301v301z" />
    <glyph glyph-name="Nacute.c2sc" horiz-adv-x="609" 
d="M468 803l-121 -149h-91l82 149h130zM387 583h148v-583h-129l-184 305v-305h-148v583h134l179 -301v301z" />
    <glyph glyph-name="Ncaron.c2sc" horiz-adv-x="609" 
d="M372 654h-138l-95 149h94l70 -76l71 76h95zM387 583h148v-583h-129l-184 305v-305h-148v583h134l179 -301v301z" />
    <glyph glyph-name="Ncommaaccent.c2sc" horiz-adv-x="609" 
d="M387 583h148v-583h-129l-184 305v-305h-148v583h134l179 -301v301zM198 -165c30 29 40 86 40 132h127c0 -61 -50 -132 -104 -169z" />
    <glyph glyph-name="Eng.c2sc" horiz-adv-x="609" 
d="M387 583h148v-582c0 -110 -55 -203 -204 -203c-16 0 -61 5 -98 17l13 133c31 -11 81 -10 85 -10c39 0 56 28 56 63v34l-165 270v-305h-148v583h134l179 -300v300z" />
    <glyph glyph-name="Ntilde.c2sc" horiz-adv-x="609" 
d="M266 707c-6 0 -22 -9 -23 -36h-66c4 83 51 111 89 111c36 0 55 -35 76 -35c6 0 22 8 23 35h66c-4 -84 -53 -109 -89 -109c-34 0 -56 34 -76 34zM387 583h148v-583h-129l-184 305v-305h-148v583h134l179 -301v301z" />
    <glyph glyph-name="O.c2sc" horiz-adv-x="696" 
d="M348 -7c-172 0 -308 134 -308 299s136 299 308 299c171 0 308 -134 308 -299s-137 -299 -308 -299zM347 132c96 0 160 71 160 160c0 90 -64 159 -160 159s-159 -69 -159 -159c0 -89 63 -160 159 -160z" />
    <glyph glyph-name="Oacute.c2sc" horiz-adv-x="696" 
d="M301 654l81 149h131l-122 -149h-90zM348 -7c-172 0 -308 134 -308 299s136 299 308 299c171 0 308 -134 308 -299s-137 -299 -308 -299zM347 132c96 0 160 71 160 160c0 90 -64 159 -160 159s-159 -69 -159 -159c0 -89 63 -160 159 -160z" />
    <glyph glyph-name="uni01D1.c2sc" horiz-adv-x="696" 
d="M278 654l-96 149h95l70 -76l71 76h95l-97 -149h-138zM348 -7c-172 0 -308 134 -308 299s136 299 308 299c171 0 308 -134 308 -299s-137 -299 -308 -299zM347 132c96 0 160 71 160 160c0 90 -64 159 -160 159s-159 -69 -159 -159c0 -89 63 -160 159 -160z" />
    <glyph glyph-name="Ocircumflex.c2sc" horiz-adv-x="696" 
d="M182 654l96 149h138l97 -149h-95l-71 76l-70 -76h-95zM348 -7c-172 0 -308 134 -308 299s136 299 308 299c171 0 308 -134 308 -299s-137 -299 -308 -299zM347 132c96 0 160 71 160 160c0 90 -64 159 -160 159s-159 -69 -159 -159c0 -89 63 -160 159 -160z" />
    <glyph glyph-name="Odieresis.c2sc" horiz-adv-x="696" 
d="M253 671c-37 0 -67 28 -67 63s30 63 67 63c38 0 66 -28 66 -63s-28 -63 -66 -63zM445 671c-38 0 -69 28 -69 63s31 63 69 63c36 0 65 -28 65 -63s-29 -63 -65 -63zM348 -7c-172 0 -308 134 -308 299s136 299 308 299c171 0 308 -134 308 -299s-137 -299 -308 -299z
M347 132c96 0 160 71 160 160c0 90 -64 159 -160 159s-159 -69 -159 -159c0 -89 63 -160 159 -160z" />
    <glyph glyph-name="Ograve.c2sc" horiz-adv-x="696" 
d="M308 654l-121 149h131l81 -149h-91zM348 -7c-172 0 -308 134 -308 299s136 299 308 299c171 0 308 -134 308 -299s-137 -299 -308 -299zM347 132c96 0 160 71 160 160c0 90 -64 159 -160 159s-159 -69 -159 -159c0 -89 63 -160 159 -160z" />
    <glyph glyph-name="Ohungarumlaut.c2sc" horiz-adv-x="696" 
d="M254 654l81 149h93l-92 -149h-82zM380 654l93 149h96l-101 -149h-88zM348 -7c-172 0 -308 134 -308 299s136 299 308 299c171 0 308 -134 308 -299s-137 -299 -308 -299zM347 132c96 0 160 71 160 160c0 90 -64 159 -160 159s-159 -69 -159 -159c0 -89 63 -160 159 -160z
" />
    <glyph glyph-name="Omacron.c2sc" horiz-adv-x="696" 
d="M222 685v75h253v-75h-253zM348 -7c-172 0 -308 134 -308 299s136 299 308 299c171 0 308 -134 308 -299s-137 -299 -308 -299zM347 132c96 0 160 71 160 160c0 90 -64 159 -160 159s-159 -69 -159 -159c0 -89 63 -160 159 -160z" />
    <glyph glyph-name="Oslash.c2sc" horiz-adv-x="698" 
d="M584 485c46 -52 73 -119 73 -193c0 -165 -137 -299 -308 -299c-74 0 -141 25 -194 66l-70 -69l-41 40l69 69c-45 52 -72 119 -72 193c0 165 136 299 308 299c74 0 142 -25 194 -67l70 69l41 -39zM190 292c0 -34 9 -66 26 -92l226 224c-26 17 -57 27 -94 27
c-96 0 -158 -69 -158 -159zM348 132c96 0 160 71 160 160c0 34 -9 66 -26 91l-226 -224c25 -17 56 -27 92 -27z" />
    <glyph glyph-name="Oslashacute.c2sc" horiz-adv-x="698" 
d="M513 803l-122 -149h-90l81 149h131zM584 485c46 -52 73 -119 73 -193c0 -165 -137 -299 -308 -299c-74 0 -141 25 -194 66l-70 -69l-41 40l69 69c-45 52 -72 119 -72 193c0 165 136 299 308 299c74 0 142 -25 194 -67l70 69l41 -39zM190 292c0 -34 9 -66 26 -92l226 224
c-26 17 -57 27 -94 27c-96 0 -158 -69 -158 -159zM348 132c96 0 160 71 160 160c0 34 -9 66 -26 91l-226 -224c25 -17 56 -27 92 -27z" />
    <glyph glyph-name="Otilde.c2sc" horiz-adv-x="696" 
d="M221 671c4 83 52 111 89 111c36 0 55 -35 76 -35c6 0 22 8 22 35h66c-3 -84 -53 -109 -88 -109c-34 0 -56 34 -76 34c-6 0 -22 -9 -23 -36h-66zM348 -7c-172 0 -308 134 -308 299s136 299 308 299c171 0 308 -134 308 -299s-137 -299 -308 -299zM347 132
c96 0 160 71 160 160c0 90 -64 159 -160 159s-159 -69 -159 -159c0 -89 63 -160 159 -160z" />
    <glyph glyph-name="OE.c2sc" horiz-adv-x="957" 
d="M655 128h253v-128h-400v44c-42 -36 -104 -51 -160 -51c-172 0 -308 134 -308 299s136 299 308 299c58 0 115 -14 160 -51v43h392v-129h-245v-101h216v-132h-216v-93zM347 132c96 0 160 71 160 160c0 90 -64 159 -160 159s-159 -69 -159 -159c0 -89 63 -160 159 -160z" />
    <glyph glyph-name="P.c2sc" horiz-adv-x="560" 
d="M324 583c143 0 208 -99 208 -196c0 -99 -65 -195 -208 -195h-102v-192h-148v583h250zM318 320c48 0 65 34 65 67s-17 67 -65 67h-96v-134h96z" />
    <glyph glyph-name="Thorn.c2sc" horiz-adv-x="568" 
d="M326 488c116 0 205 -75 205 -194c0 -120 -89 -199 -205 -199h-104v-95h-148v583h148v-95h104zM313 224c41 0 69 26 69 67c0 42 -27 69 -69 69h-91v-136h91z" />
    <glyph glyph-name="Q.c2sc" horiz-adv-x="696" 
d="M656 291c0 -98 -48 -185 -123 -240l56 -90l-103 -61l-62 100c-24 -6 -50 -9 -76 -9c-172 0 -308 135 -308 300s136 298 308 298c171 0 308 -133 308 -298zM188 291c0 -88 61 -157 155 -159l-41 67l102 60l54 -86c31 29 49 71 49 118c0 90 -64 159 -160 159
s-159 -69 -159 -159z" />
    <glyph glyph-name="R.c2sc" horiz-adv-x="581" 
d="M376 0l-136 200h-18v-200h-148v583h251c142 0 208 -99 208 -196c0 -81 -45 -152 -139 -177l153 -210h-171zM222 454v-139h81c56 0 81 36 81 67s-26 72 -81 72h-81z" />
    <glyph glyph-name="Racute.c2sc" horiz-adv-x="581" 
d="M453 803l-122 -149h-90l82 149h130zM376 0l-136 200h-18v-200h-148v583h251c142 0 208 -99 208 -196c0 -81 -45 -152 -139 -177l153 -210h-171zM222 454v-139h81c56 0 81 36 81 67s-26 72 -81 72h-81z" />
    <glyph glyph-name="Rcaron.c2sc" horiz-adv-x="581" 
d="M357 654h-138l-96 149h94l71 -76l71 76h94zM376 0l-136 200h-18v-200h-148v583h251c142 0 208 -99 208 -196c0 -81 -45 -152 -139 -177l153 -210h-171zM222 454v-139h81c56 0 81 36 81 67s-26 72 -81 72h-81z" />
    <glyph glyph-name="Rcommaaccent.c2sc" horiz-adv-x="581" 
d="M394 210l153 -210h-171l-136 200h-18v-200h-148v583h251c142 0 208 -99 208 -196c0 -81 -45 -152 -139 -177zM222 454v-139h81c56 0 81 36 81 67s-26 72 -81 72h-81zM182 -165c31 29 40 86 40 132h128c0 -61 -51 -132 -104 -169z" />
    <glyph glyph-name="S.c2sc" horiz-adv-x="531" 
d="M263 -7c-130 0 -220 68 -220 180h148c1 -33 37 -54 78 -54c39 0 71 12 71 47c0 12 -6 32 -60 50l-72 23c-133 35 -160 116 -160 172c0 106 94 180 215 180c119 0 209 -67 209 -184h-149c0 29 -17 55 -62 55c-39 0 -63 -22 -63 -47c0 -10 4 -31 56 -47l60 -18
c82 -25 175 -64 175 -178c0 -134 -119 -179 -226 -179z" />
    <glyph glyph-name="Sacute.c2sc" horiz-adv-x="531" 
d="M218 654l81 149h131l-121 -149h-91zM263 -7c-130 0 -220 68 -220 180h148c1 -33 37 -54 78 -54c39 0 71 12 71 47c0 12 -6 32 -60 50l-72 23c-133 35 -160 116 -160 172c0 106 94 180 215 180c119 0 209 -67 209 -184h-149c0 29 -17 55 -62 55c-39 0 -63 -22 -63 -47
c0 -10 4 -31 56 -47l60 -18c82 -25 175 -64 175 -178c0 -134 -119 -179 -226 -179z" />
    <glyph glyph-name="Scaron.c2sc" horiz-adv-x="531" 
d="M196 654l-96 149h94l71 -76l70 76h96l-97 -149h-138zM263 -7c-130 0 -220 68 -220 180h148c1 -33 37 -54 78 -54c39 0 71 12 71 47c0 12 -6 32 -60 50l-72 23c-133 35 -160 116 -160 172c0 106 94 180 215 180c119 0 209 -67 209 -184h-149c0 29 -17 55 -62 55
c-39 0 -63 -22 -63 -47c0 -10 4 -31 56 -47l60 -18c82 -25 175 -64 175 -178c0 -134 -119 -179 -226 -179z" />
    <glyph glyph-name="Scedilla.c2sc" horiz-adv-x="531" 
d="M489 172c0 -120 -96 -169 -192 -177l26 -46c10 -17 10 -33 10 -44c0 -50 -43 -88 -91 -88c-50 0 -100 29 -100 103h66c0 -24 3 -42 31 -42c15 0 29 10 29 29c0 7 -1 14 -4 20l-36 68c-111 11 -185 76 -185 178h148c1 -33 37 -54 78 -54c39 0 71 12 71 47
c0 12 -6 32 -60 50l-72 23c-133 35 -160 116 -160 172c0 106 94 180 215 180c119 0 209 -67 209 -184h-149c0 29 -17 55 -62 55c-39 0 -63 -22 -63 -47c0 -10 4 -31 56 -47l60 -18c82 -25 175 -64 175 -178z" />
    <glyph glyph-name="Scommaaccent.c2sc" horiz-adv-x="531" 
d="M263 -7c-130 0 -220 68 -220 180h148c1 -33 37 -54 78 -54c39 0 71 12 71 47c0 12 -6 32 -60 50l-72 23c-133 35 -160 116 -160 172c0 106 94 180 215 180c119 0 209 -67 209 -184h-149c0 29 -17 55 -62 55c-39 0 -63 -22 -63 -47c0 -10 4 -31 56 -47l60 -18
c82 -25 175 -64 175 -178c0 -134 -119 -179 -226 -179zM223 -202l-63 37c29 29 39 86 39 132h128c-1 -61 -51 -132 -104 -169z" />
    <glyph glyph-name="uni1E9E.c2sc" horiz-adv-x="627" 
d="M445 355c83 -18 143 -74 143 -165c0 -110 -85 -199 -213 -199c-43 1 -77 5 -104 16l16 128c17 -10 34 -12 64 -12c53 0 88 32 88 81c0 55 -43 92 -107 92h-38v42l69 117c-14 4 -28 5 -41 5c-48 0 -107 -36 -107 -122v-338h-148v334c0 181 118 255 257 255
c77 0 163 -25 219 -60v-12z" />
    <glyph glyph-name="T.c2sc" horiz-adv-x="508" 
d="M484 583v-129h-156v-454h-148v454h-156v129h460z" />
    <glyph glyph-name="Tbar.c2sc" horiz-adv-x="517" 
d="M488 454h-156v-153h83v-66h-83v-235h-148v235h-82v66h82v153h-155v129h459v-129z" />
    <glyph glyph-name="Tcaron.c2sc" horiz-adv-x="508" 
d="M322 654h-138l-95 149h94l71 -76l70 76h95zM484 583v-129h-156v-454h-148v454h-156v129h460z" />
    <glyph glyph-name="uni0162.c2sc" horiz-adv-x="508" 
d="M484 454h-156v-448l34 -57c9 -17 9 -33 9 -44c0 -50 -44 -88 -92 -88c-49 0 -100 29 -100 103h67c0 -24 4 -42 31 -42c14 0 29 10 29 29c0 7 -1 14 -4 20l-38 73h-84v454h-156v129h460v-129z" />
    <glyph glyph-name="uni021A.c2sc" horiz-adv-x="508" 
d="M484 583v-129h-156v-454h-148v454h-156v129h460zM148 -165c30 29 40 86 40 132h127c0 -61 -50 -132 -103 -169z" />
    <glyph glyph-name="U.c2sc" 
d="M306 -7c-125 0 -238 86 -238 220v370h148v-356c0 -69 46 -94 90 -94c45 0 90 25 90 94v356h148v-370c0 -134 -112 -220 -238 -220z" />
    <glyph glyph-name="Uacute.c2sc" 
d="M259 654l81 149h131l-122 -149h-90zM306 -7c-125 0 -238 86 -238 220v370h148v-356c0 -69 46 -94 90 -94c45 0 90 25 90 94v356h148v-370c0 -134 -112 -220 -238 -220z" />
    <glyph glyph-name="uni01D3.c2sc" 
d="M236 654l-96 149h95l70 -76l71 76h95l-97 -149h-138zM306 -7c-125 0 -238 86 -238 220v370h148v-356c0 -69 46 -94 90 -94c45 0 90 25 90 94v356h148v-370c0 -134 -112 -220 -238 -220z" />
    <glyph glyph-name="Ucircumflex.c2sc" 
d="M140 654l96 149h138l97 -149h-95l-71 76l-70 -76h-95zM306 -7c-125 0 -238 86 -238 220v370h148v-356c0 -69 46 -94 90 -94c45 0 90 25 90 94v356h148v-370c0 -134 -112 -220 -238 -220z" />
    <glyph glyph-name="Udieresis.c2sc" 
d="M211 671c-37 0 -67 28 -67 63s30 63 67 63c38 0 66 -28 66 -63s-28 -63 -66 -63zM403 671c-38 0 -69 28 -69 63s31 63 69 63c36 0 65 -28 65 -63s-29 -63 -65 -63zM306 -7c-125 0 -238 86 -238 220v370h148v-356c0 -69 46 -94 90 -94c45 0 90 25 90 94v356h148v-370
c0 -134 -112 -220 -238 -220z" />
    <glyph glyph-name="uni01D7.c2sc" 
d="M259 826l81 150h131l-122 -150h-90zM211 671c-37 0 -67 28 -67 63s30 63 67 63c38 0 66 -28 66 -63s-28 -63 -66 -63zM403 671c-38 0 -69 28 -69 63s31 63 69 63c36 0 65 -28 65 -63s-29 -63 -65 -63zM306 -7c-125 0 -238 86 -238 220v370h148v-356c0 -69 46 -94 90 -94
c45 0 90 25 90 94v356h148v-370c0 -134 -112 -220 -238 -220z" />
    <glyph glyph-name="uni01D9.c2sc" 
d="M236 826l-96 150h95l70 -77l71 77h95l-97 -150h-138zM211 671c-37 0 -67 28 -67 63s30 63 67 63c38 0 66 -28 66 -63s-28 -63 -66 -63zM403 671c-38 0 -69 28 -69 63s31 63 69 63c36 0 65 -28 65 -63s-29 -63 -65 -63zM306 -7c-125 0 -238 86 -238 220v370h148v-356
c0 -69 46 -94 90 -94c45 0 90 25 90 94v356h148v-370c0 -134 -112 -220 -238 -220z" />
    <glyph glyph-name="uni01DB.c2sc" 
d="M266 825l-121 149h130l82 -149h-91zM211 671c-37 0 -67 28 -67 63s30 63 67 63c38 0 66 -28 66 -63s-28 -63 -66 -63zM403 671c-38 0 -69 28 -69 63s31 63 69 63c36 0 65 -28 65 -63s-29 -63 -65 -63zM306 -7c-125 0 -238 86 -238 220v370h148v-356c0 -69 46 -94 90 -94
c45 0 90 25 90 94v356h148v-370c0 -134 -112 -220 -238 -220z" />
    <glyph glyph-name="uni01D5.c2sc" 
d="M180 859v73h253v-73h-253zM211 671c-37 0 -67 28 -67 63s30 63 67 63c38 0 66 -28 66 -63s-28 -63 -66 -63zM403 671c-38 0 -69 28 -69 63s31 63 69 63c36 0 65 -28 65 -63s-29 -63 -65 -63zM306 -7c-125 0 -238 86 -238 220v370h148v-356c0 -69 46 -94 90 -94
c45 0 90 25 90 94v356h148v-370c0 -134 -112 -220 -238 -220z" />
    <glyph glyph-name="Ugrave.c2sc" 
d="M266 654l-121 149h130l82 -149h-91zM306 -7c-125 0 -238 86 -238 220v370h148v-356c0 -69 46 -94 90 -94c45 0 90 25 90 94v356h148v-370c0 -134 -112 -220 -238 -220z" />
    <glyph glyph-name="Uhungarumlaut.c2sc" 
d="M212 654l81 149h93l-92 -149h-82zM337 654l94 149h96l-101 -149h-89zM306 -7c-125 0 -238 86 -238 220v370h148v-356c0 -69 46 -94 90 -94c45 0 90 25 90 94v356h148v-370c0 -134 -112 -220 -238 -220z" />
    <glyph glyph-name="Umacron.c2sc" 
d="M180 685v75h253v-75h-253zM306 -7c-125 0 -238 86 -238 220v370h148v-356c0 -69 46 -94 90 -94c45 0 90 25 90 94v356h148v-370c0 -134 -112 -220 -238 -220z" />
    <glyph glyph-name="Uogonek.c2sc" 
d="M396 583h148v-370c0 -120 -90 -201 -199 -217l-36 -69c-3 -6 -4 -13 -4 -20c0 -19 15 -29 30 -29c27 0 31 18 31 42h66c0 -74 -51 -103 -100 -103c-48 0 -91 38 -91 88c0 11 -1 27 9 44l27 46c-113 12 -209 94 -209 218v370h148v-356c0 -69 46 -94 90 -94
c45 0 90 25 90 94v356z" />
    <glyph glyph-name="Uring.c2sc" 
d="M305 641c-61 0 -114 48 -114 110c0 61 53 110 114 110c64 0 116 -49 116 -110c0 -62 -52 -110 -116 -110zM305 693c33 0 62 24 62 58c0 32 -29 58 -62 58c-31 0 -59 -26 -59 -58c0 -34 28 -58 59 -58zM306 -7c-125 0 -238 86 -238 220v370h148v-356c0 -69 46 -94 90 -94
c45 0 90 25 90 94v356h148v-370c0 -134 -112 -220 -238 -220z" />
    <glyph glyph-name="V.c2sc" horiz-adv-x="535" 
d="M361 583h157l-186 -583h-130l-184 583h154l95 -347z" />
    <glyph glyph-name="W.c2sc" horiz-adv-x="807" 
d="M635 583h162l-205 -583h-114l-76 275l-73 -275h-115l-203 583h160l103 -318l68 233h123l67 -233z" />
    <glyph glyph-name="Wacute.c2sc" horiz-adv-x="807" 
d="M568 803l-121 -149h-91l82 149h130zM635 583h162l-205 -583h-114l-76 275l-73 -275h-115l-203 583h160l103 -318l68 233h123l67 -233z" />
    <glyph glyph-name="Wcircumflex.c2sc" horiz-adv-x="807" 
d="M403 730l-70 -76h-95l96 149h138l97 -149h-96zM635 583h162l-205 -583h-114l-76 275l-73 -275h-115l-203 583h160l103 -318l68 233h123l67 -233z" />
    <glyph glyph-name="Wdieresis.c2sc" horiz-adv-x="807" 
d="M309 671c-37 0 -68 28 -68 63s31 63 68 63s66 -28 66 -63s-29 -63 -66 -63zM501 671c-38 0 -69 28 -69 63s31 63 69 63c36 0 65 -28 65 -63s-29 -63 -65 -63zM635 583h162l-205 -583h-114l-76 275l-73 -275h-115l-203 583h160l103 -318l68 233h123l67 -233z" />
    <glyph glyph-name="Wgrave.c2sc" horiz-adv-x="807" 
d="M455 654h-91l-121 149h130zM635 583h162l-205 -583h-114l-76 275l-73 -275h-115l-203 583h160l103 -318l68 233h123l67 -233z" />
    <glyph glyph-name="X.c2sc" horiz-adv-x="607" 
d="M600 0h-174l-122 192l-123 -192h-174l208 310l-191 273h179l101 -157l101 157h178l-191 -274z" />
    <glyph glyph-name="Y.c2sc" horiz-adv-x="621" 
d="M445 583h176l-236 -324v-259h-149v262l-236 321h176l134 -209z" />
    <glyph glyph-name="Yacute.c2sc" horiz-adv-x="621" 
d="M475 803l-121 -149h-90l81 149h130zM445 583h176l-236 -324v-259h-149v262l-236 321h176l134 -209z" />
    <glyph glyph-name="Ycircumflex.c2sc" horiz-adv-x="621" 
d="M310 730l-70 -76h-94l95 149h139l96 -149h-95zM445 583h176l-236 -324v-259h-149v262l-236 321h176l134 -209z" />
    <glyph glyph-name="Ydieresis.c2sc" horiz-adv-x="621" 
d="M216 671c-37 0 -68 28 -68 63s31 63 68 63s66 -28 66 -63s-29 -63 -66 -63zM408 671c-38 0 -69 28 -69 63s31 63 69 63c36 0 65 -28 65 -63s-29 -63 -65 -63zM445 583h176l-236 -324v-259h-149v262l-236 321h176l134 -209z" />
    <glyph glyph-name="Ygrave.c2sc" horiz-adv-x="621" 
d="M361 654h-90l-122 149h131zM445 583h176l-236 -324v-259h-149v262l-236 321h176l134 -209z" />
    <glyph glyph-name="Z.c2sc" horiz-adv-x="543" 
d="M495 583v-108l-261 -347h261v-128h-452v108l256 346h-245v129h441z" />
    <glyph glyph-name="Zacute.c2sc" horiz-adv-x="543" 
d="M436 803l-121 -149h-91l81 149h131zM495 583v-108l-261 -347h261v-128h-452v108l256 346h-245v129h441z" />
    <glyph glyph-name="Zcaron.c2sc" horiz-adv-x="543" 
d="M340 654h-138l-96 149h94l71 -76l70 76h96zM495 583v-108l-261 -347h261v-128h-452v108l256 346h-245v129h441z" />
    <glyph glyph-name="Zdotaccent.c2sc" horiz-adv-x="543" 
d="M272 661c-42 0 -74 29 -74 71c0 40 32 69 74 69c40 0 73 -29 73 -69c0 -42 -33 -71 -73 -71zM495 583v-108l-261 -347h261v-128h-452v108l256 346h-245v129h441z" />
    <glyph glyph-name="IJ.alt.c2sc" horiz-adv-x="685" 
d="M74 0v583h148v-583h-148zM414 -7c-17 0 -63 4 -99 16l13 133c31 -11 81 -10 86 -10c38 0 54 28 54 62v389h148v-389c0 -109 -54 -201 -202 -201z" />
    <glyph glyph-name="J.alt.c2sc" horiz-adv-x="389" 
d="M118 -7c-17 0 -63 4 -99 16l14 133c30 -11 81 -10 85 -10c38 0 54 28 54 62v389h148v-389c0 -109 -54 -201 -202 -201z" />
    <glyph glyph-name="Jcircumflex.alt.c2sc" horiz-adv-x="389" 
d="M82 654l95 149h138l97 -149h-95l-70 76l-72 -76h-93zM118 -7c-17 0 -63 4 -99 16l14 133c30 -11 81 -10 85 -10c38 0 54 28 54 62v389h148v-389c0 -109 -54 -201 -202 -201z" />
    <glyph glyph-name="W.alt.c2sc" horiz-adv-x="813" 
d="M626 583h169l-175 -583h-124l-91 319l-91 -319h-122l-176 583h169l77 -295l82 276h123l82 -276z" />
    <glyph glyph-name="Wacute.alt.c2sc" horiz-adv-x="813" 
d="M570 803l-121 -149h-91l81 149h131zM626 583h169l-175 -583h-124l-91 319l-91 -319h-122l-176 583h169l77 -295l82 276h123l82 -276z" />
    <glyph glyph-name="Wcircumflex.alt.c2sc" horiz-adv-x="813" 
d="M405 730l-70 -76h-95l96 149h138l97 -149h-96zM626 583h169l-175 -583h-124l-91 319l-91 -319h-122l-176 583h169l77 -295l82 276h123l82 -276z" />
    <glyph glyph-name="Wdieresis.alt.c2sc" horiz-adv-x="813" 
d="M311 671c-37 0 -68 28 -68 63s31 63 68 63c36 0 66 -28 66 -63s-30 -63 -66 -63zM503 671c-38 0 -69 28 -69 63s31 63 69 63c36 0 65 -28 65 -63s-29 -63 -65 -63zM626 583h169l-175 -583h-124l-91 319l-91 -319h-122l-176 583h169l77 -295l82 276h123l82 -276z" />
    <glyph glyph-name="Wgrave.alt.c2sc" horiz-adv-x="813" 
d="M457 654h-91l-122 149h130zM626 583h169l-175 -583h-124l-91 319l-91 -319h-122l-176 583h169l77 -295l82 276h123l82 -276z" />
    <glyph glyph-name="a" unicode="a" horiz-adv-x="616" 
d="M407 466h147v-466h-147v53c-34 -44 -97 -62 -145 -62c-116 0 -226 92 -226 243s110 243 226 243c48 0 111 -18 145 -62v51zM294 129c57 0 107 45 107 105s-51 105 -107 105c-58 0 -108 -46 -108 -105s50 -105 108 -105z" />
    <glyph glyph-name="aacute" unicode="&#xe1;" horiz-adv-x="616" 
d="M491 718l-135 -171h-101l94 171h142zM407 466h147v-466h-147v53c-34 -44 -97 -62 -145 -62c-116 0 -226 92 -226 243s110 243 226 243c48 0 111 -18 145 -62v51zM294 129c57 0 107 45 107 105s-51 105 -107 105c-58 0 -108 -46 -108 -105s50 -105 108 -105z" />
    <glyph glyph-name="abreve" unicode="&#x103;" horiz-adv-x="616" 
d="M306 562c-92 0 -135 66 -135 132h87c0 -34 13 -52 48 -52s47 24 47 52h89c0 -79 -57 -132 -136 -132zM407 466h147v-466h-147v53c-34 -44 -97 -62 -145 -62c-116 0 -226 92 -226 243s110 243 226 243c48 0 111 -18 145 -62v51zM294 129c57 0 107 45 107 105
s-51 105 -107 105c-58 0 -108 -46 -108 -105s50 -105 108 -105z" />
    <glyph glyph-name="uni01CE" unicode="&#x1ce;" horiz-adv-x="616" 
d="M379 547h-148l-109 171h104l79 -89l79 89h105zM407 466h147v-466h-147v53c-34 -44 -97 -62 -145 -62c-116 0 -226 92 -226 243s110 243 226 243c48 0 111 -18 145 -62v51zM294 129c57 0 107 45 107 105s-51 105 -107 105c-58 0 -108 -46 -108 -105s50 -105 108 -105z" />
    <glyph glyph-name="acircumflex" unicode="&#xe2;" horiz-adv-x="616" 
d="M305 636l-79 -89h-104l109 171h148l110 -171h-105zM407 466h147v-466h-147v53c-34 -44 -97 -62 -145 -62c-116 0 -226 92 -226 243s110 243 226 243c48 0 111 -18 145 -62v51zM294 129c57 0 107 45 107 105s-51 105 -107 105c-58 0 -108 -46 -108 -105s50 -105 108 -105z
" />
    <glyph glyph-name="adieresis" unicode="&#xe4;" horiz-adv-x="616" 
d="M200 565c-41 0 -75 31 -75 71c0 39 34 70 75 70s73 -31 73 -70c0 -40 -32 -71 -73 -71zM414 565c-42 0 -76 31 -76 71c0 39 34 70 76 70c40 0 73 -31 73 -70c0 -40 -33 -71 -73 -71zM407 466h147v-466h-147v53c-34 -44 -97 -62 -145 -62c-116 0 -226 92 -226 243
s110 243 226 243c48 0 111 -18 145 -62v51zM294 129c57 0 107 45 107 105s-51 105 -107 105c-58 0 -108 -46 -108 -105s50 -105 108 -105z" />
    <glyph glyph-name="agrave" unicode="&#xe0;" horiz-adv-x="616" 
d="M360 547h-101l-135 171h143zM407 466h147v-466h-147v53c-34 -44 -97 -62 -145 -62c-116 0 -226 92 -226 243s110 243 226 243c48 0 111 -18 145 -62v51zM294 129c57 0 107 45 107 105s-51 105 -107 105c-58 0 -108 -46 -108 -105s50 -105 108 -105z" />
    <glyph glyph-name="amacron" unicode="&#x101;" horiz-adv-x="616" 
d="M447 671v-87h-283v87h283zM407 466h147v-466h-147v53c-34 -44 -97 -62 -145 -62c-116 0 -226 92 -226 243s110 243 226 243c48 0 111 -18 145 -62v51zM294 129c57 0 107 45 107 105s-51 105 -107 105c-58 0 -108 -46 -108 -105s50 -105 108 -105z" />
    <glyph glyph-name="aogonek" unicode="&#x105;" horiz-adv-x="616" 
d="M455 -213c-56 0 -104 43 -104 103c0 13 1 31 11 50l45 82v30c-35 -42 -97 -61 -145 -61c-116 0 -226 92 -226 243s110 243 226 243c49 0 110 -19 145 -61v50h147v-466h-85l-41 -86c-3 -8 -4 -16 -4 -22c0 -23 16 -37 33 -37c30 0 37 22 37 51h73
c0 -83 -54 -119 -112 -119zM294 129c57 0 107 45 107 105s-51 105 -107 105c-58 0 -108 -46 -108 -105s50 -105 108 -105z" />
    <glyph glyph-name="aring" unicode="&#xe5;" horiz-adv-x="616" 
d="M305 534c-68 0 -126 54 -126 124s58 126 126 126c70 0 128 -56 128 -126s-58 -124 -128 -124zM305 724c-35 0 -65 -29 -65 -66s30 -63 65 -63c36 0 68 26 68 63s-32 66 -68 66zM407 466h147v-466h-147v53c-34 -44 -97 -62 -145 -62c-116 0 -226 92 -226 243
s110 243 226 243c48 0 111 -18 145 -62v51zM294 129c57 0 107 45 107 105s-51 105 -107 105c-58 0 -108 -46 -108 -105s50 -105 108 -105z" />
    <glyph glyph-name="aringacute" unicode="&#x1fb;" horiz-adv-x="616" 
d="M304 534c-68 0 -125 54 -125 124c0 60 41 109 96 122l49 88h142l-93 -104c36 -22 59 -61 59 -106c0 -70 -57 -124 -128 -124zM304 724c-34 0 -64 -29 -64 -66s30 -63 64 -63c36 0 68 26 68 63s-32 66 -68 66zM407 466h147v-466h-147v53c-34 -44 -97 -62 -145 -62
c-116 0 -226 92 -226 243s110 243 226 243c48 0 111 -18 145 -62v51zM294 129c57 0 107 45 107 105s-51 105 -107 105c-58 0 -108 -46 -108 -105s50 -105 108 -105z" />
    <glyph glyph-name="atilde" unicode="&#xe3;" horiz-adv-x="616" 
d="M262 609c-7 0 -25 -11 -26 -43h-73c5 96 58 128 99 128c42 0 64 -41 87 -41c8 0 26 9 27 41h73c-4 -97 -60 -126 -100 -126c-39 0 -63 41 -87 41zM407 466h147v-466h-147v53c-34 -44 -97 -62 -145 -62c-116 0 -226 92 -226 243s110 243 226 243c48 0 111 -18 145 -62v51z
M294 129c57 0 107 45 107 105s-51 105 -107 105c-58 0 -108 -46 -108 -105s50 -105 108 -105z" />
    <glyph glyph-name="ae" unicode="&#xe6;" horiz-adv-x="870" 
d="M839 243c0 -13 -1 -30 -3 -53h-339c15 -42 55 -70 107 -70c44 0 88 17 117 45l77 -96c-46 -50 -126 -78 -205 -78c-74 0 -138 24 -177 67c-59 -52 -137 -67 -193 -67c-110 0 -194 55 -194 146c0 98 94 142 184 142c47 0 96 -12 128 -29v20c0 50 -42 78 -88 78
c-23 0 -70 -3 -111 -43l-80 79c71 87 165 94 212 94c63 0 119 -16 159 -52c43 34 99 52 159 52c134 0 247 -93 247 -235zM497 277h194c-2 46 -43 76 -95 76c-47 0 -84 -24 -99 -76zM236 102c32 0 95 21 119 52l-5 9c-23 16 -66 26 -105 26c-55 0 -66 -27 -66 -44
c0 -25 22 -43 57 -43z" />
    <glyph glyph-name="aeacute" unicode="&#x1fd;" horiz-adv-x="870" 
d="M620 718l-135 -171h-101l94 171h142zM839 243c0 -13 -1 -30 -3 -53h-339c15 -42 55 -70 107 -70c44 0 88 17 117 45l77 -96c-46 -50 -126 -78 -205 -78c-74 0 -138 24 -177 67c-59 -52 -137 -67 -193 -67c-110 0 -194 55 -194 146c0 98 94 142 184 142
c47 0 96 -12 128 -29v20c0 50 -42 78 -88 78c-23 0 -70 -3 -111 -43l-80 79c71 87 165 94 212 94c63 0 119 -16 159 -52c43 34 99 52 159 52c134 0 247 -93 247 -235zM497 277h194c-2 46 -43 76 -95 76c-47 0 -84 -24 -99 -76zM236 102c32 0 95 21 119 52l-5 9
c-23 16 -66 26 -105 26c-55 0 -66 -27 -66 -44c0 -25 22 -43 57 -43z" />
    <glyph glyph-name="uni01E3" unicode="&#x1e3;" horiz-adv-x="870" 
d="M576 671v-87h-283v87h283zM839 243c0 -13 -1 -30 -3 -53h-339c15 -42 55 -70 107 -70c44 0 88 17 117 45l77 -96c-46 -50 -126 -78 -205 -78c-74 0 -138 24 -177 67c-59 -52 -137 -67 -193 -67c-110 0 -194 55 -194 146c0 98 94 142 184 142c47 0 96 -12 128 -29v20
c0 50 -42 78 -88 78c-23 0 -70 -3 -111 -43l-80 79c71 87 165 94 212 94c63 0 119 -16 159 -52c43 34 99 52 159 52c134 0 247 -93 247 -235zM497 277h194c-2 46 -43 76 -95 76c-47 0 -84 -24 -99 -76zM236 102c32 0 95 21 119 52l-5 9c-23 16 -66 26 -105 26
c-55 0 -66 -27 -66 -44c0 -25 22 -43 57 -43z" />
    <glyph glyph-name="b" unicode="b" horiz-adv-x="616" 
d="M354 477c117 0 227 -92 227 -243s-110 -243 -227 -243c-48 0 -110 18 -144 61v-52h-148v712h148v-296c34 43 96 61 144 61zM323 129c58 0 108 46 108 105s-50 105 -108 105c-56 0 -108 -45 -108 -105s51 -105 108 -105z" />
    <glyph glyph-name="c" unicode="c" horiz-adv-x="522" 
d="M292 -9c-136 0 -257 96 -257 244s121 243 257 243c90 0 159 -44 204 -110l-114 -72c-19 28 -57 45 -89 45c-68 0 -108 -48 -108 -106c0 -59 40 -107 108 -107c32 0 70 17 89 45l114 -72c-45 -66 -114 -110 -204 -110z" />
    <glyph glyph-name="cacute" unicode="&#x107;" horiz-adv-x="522" 
d="M214 547l94 171h142l-135 -171h-101zM292 -9c-136 0 -257 96 -257 244s121 243 257 243c90 0 159 -44 204 -110l-114 -72c-19 28 -57 45 -89 45c-68 0 -108 -48 -108 -106c0 -59 40 -107 108 -107c32 0 70 17 89 45l114 -72c-45 -66 -114 -110 -204 -110z" />
    <glyph glyph-name="ccaron" unicode="&#x10d;" horiz-adv-x="522" 
d="M205 547l-109 171h104l79 -89l79 89h105l-110 -171h-148zM292 -9c-136 0 -257 96 -257 244s121 243 257 243c90 0 159 -44 204 -110l-114 -72c-19 28 -57 45 -89 45c-68 0 -108 -48 -108 -106c0 -59 40 -107 108 -107c32 0 70 17 89 45l114 -72
c-45 -66 -114 -110 -204 -110z" />
    <glyph glyph-name="ccedilla" unicode="&#xe7;" horiz-adv-x="522" 
d="M293 128c32 0 70 17 89 45l114 -72c-38 -55 -92 -95 -161 -107l29 -54c11 -19 11 -37 11 -50c0 -60 -48 -103 -103 -103c-58 0 -112 36 -112 119h72c0 -29 8 -51 37 -51c18 0 34 14 34 37c0 6 -1 14 -4 22l-37 79c-123 13 -227 105 -227 242c0 148 121 243 257 243
c90 0 159 -44 204 -110l-114 -72c-19 28 -57 45 -89 45c-68 0 -108 -48 -108 -106c0 -59 40 -107 108 -107z" />
    <glyph glyph-name="cdotaccent" unicode="&#x10b;" horiz-adv-x="522" 
d="M284 555c-45 0 -80 32 -80 78c0 45 35 77 80 77s81 -32 81 -77c0 -46 -36 -78 -81 -78zM292 -9c-136 0 -257 96 -257 244s121 243 257 243c90 0 159 -44 204 -110l-114 -72c-19 28 -57 45 -89 45c-68 0 -108 -48 -108 -106c0 -59 40 -107 108 -107c32 0 70 17 89 45
l114 -72c-45 -66 -114 -110 -204 -110z" />
    <glyph glyph-name="d" unicode="d" horiz-adv-x="616" 
d="M407 712h147v-712h-147v53c-34 -44 -97 -62 -145 -62c-116 0 -226 92 -226 243s110 243 226 243c48 0 111 -18 145 -62v297zM294 129c57 0 107 45 107 105s-51 105 -107 105c-58 0 -108 -46 -108 -105s50 -105 108 -105z" />
    <glyph glyph-name="eth" unicode="&#xf0;" horiz-adv-x="566" 
d="M486 380c29 -40 44 -89 44 -147c0 -147 -116 -242 -248 -242c-131 0 -247 95 -247 242c0 135 111 225 243 225h6l-61 89l-113 -46l-22 54l102 41l-80 116h148l48 -69l82 33l21 -54l-70 -28zM282 128c52 0 98 44 98 105c0 59 -46 99 -98 99c-50 0 -97 -40 -97 -99
c0 -61 47 -105 97 -105z" />
    <glyph glyph-name="dcaron" unicode="&#x10f;" horiz-adv-x="664" 
d="M407 415v297h147v-712h-147v53c-34 -44 -97 -62 -145 -62c-116 0 -226 92 -226 243s110 243 226 243c48 0 111 -18 145 -62zM646 689h123c-13 -134 -66 -200 -113 -239l-70 38c43 61 60 108 60 201zM294 129c57 0 107 45 107 105s-51 105 -107 105
c-58 0 -108 -46 -108 -105s50 -105 108 -105z" />
    <glyph glyph-name="dcroat" unicode="&#x111;" horiz-adv-x="616" 
d="M623 623v-78h-69v-545h-147v53c-34 -44 -97 -62 -145 -62c-116 0 -226 92 -226 243s110 243 226 243c48 0 111 -18 145 -62v130h-136v78h136v89h147v-89h69zM294 129c57 0 107 45 107 105s-51 105 -107 105c-58 0 -108 -46 -108 -105s50 -105 108 -105z" />
    <glyph glyph-name="e" unicode="e" horiz-adv-x="565" 
d="M533 243c0 -13 -1 -30 -3 -53h-341c14 -44 53 -70 109 -70c44 0 88 17 118 45l76 -96c-46 -50 -126 -78 -205 -78c-147 0 -252 99 -252 241c0 152 118 246 252 246c133 0 246 -93 246 -235zM188 277h197c-1 46 -42 76 -95 76c-45 0 -87 -20 -102 -76z" />
    <glyph glyph-name="eacute" unicode="&#xe9;" horiz-adv-x="565" 
d="M466 718l-135 -171h-101l94 171h142zM533 243c0 -13 -1 -30 -3 -53h-341c14 -44 53 -70 109 -70c44 0 88 17 118 45l76 -96c-46 -50 -126 -78 -205 -78c-147 0 -252 99 -252 241c0 152 118 246 252 246c133 0 246 -93 246 -235zM188 277h197c-1 46 -42 76 -95 76
c-45 0 -87 -20 -102 -76z" />
    <glyph glyph-name="ecaron" unicode="&#x11b;" horiz-adv-x="565" 
d="M354 547h-148l-109 171h104l79 -89l79 89h105zM533 243c0 -13 -1 -30 -3 -53h-341c14 -44 53 -70 109 -70c44 0 88 17 118 45l76 -96c-46 -50 -126 -78 -205 -78c-147 0 -252 99 -252 241c0 152 118 246 252 246c133 0 246 -93 246 -235zM188 277h197
c-1 46 -42 76 -95 76c-45 0 -87 -20 -102 -76z" />
    <glyph glyph-name="ecircumflex" unicode="&#xea;" horiz-adv-x="565" 
d="M280 636l-79 -89h-104l109 171h148l110 -171h-105zM533 243c0 -13 -1 -30 -3 -53h-341c14 -44 53 -70 109 -70c44 0 88 17 118 45l76 -96c-46 -50 -126 -78 -205 -78c-147 0 -252 99 -252 241c0 152 118 246 252 246c133 0 246 -93 246 -235zM188 277h197
c-1 46 -42 76 -95 76c-45 0 -87 -20 -102 -76z" />
    <glyph glyph-name="edieresis" unicode="&#xeb;" horiz-adv-x="565" 
d="M175 565c-41 0 -75 31 -75 71c0 39 34 70 75 70s73 -31 73 -70c0 -40 -32 -71 -73 -71zM389 565c-42 0 -76 31 -76 71c0 39 34 70 76 70c40 0 73 -31 73 -70c0 -40 -33 -71 -73 -71zM533 243c0 -13 -1 -30 -3 -53h-341c14 -44 53 -70 109 -70c44 0 88 17 118 45l76 -96
c-46 -50 -126 -78 -205 -78c-147 0 -252 99 -252 241c0 152 118 246 252 246c133 0 246 -93 246 -235zM188 277h197c-1 46 -42 76 -95 76c-45 0 -87 -20 -102 -76z" />
    <glyph glyph-name="edotaccent" unicode="&#x117;" horiz-adv-x="565" 
d="M281 555c-45 0 -80 32 -80 78c0 45 35 77 80 77s81 -32 81 -77c0 -46 -36 -78 -81 -78zM533 243c0 -13 -1 -30 -3 -53h-341c14 -44 53 -70 109 -70c44 0 88 17 118 45l76 -96c-46 -50 -126 -78 -205 -78c-147 0 -252 99 -252 241c0 152 118 246 252 246
c133 0 246 -93 246 -235zM188 277h197c-1 46 -42 76 -95 76c-45 0 -87 -20 -102 -76z" />
    <glyph glyph-name="egrave" unicode="&#xe8;" horiz-adv-x="565" 
d="M335 547h-101l-135 171h143zM533 243c0 -13 -1 -30 -3 -53h-341c14 -44 53 -70 109 -70c44 0 88 17 118 45l76 -96c-46 -50 -126 -78 -205 -78c-147 0 -252 99 -252 241c0 152 118 246 252 246c133 0 246 -93 246 -235zM188 277h197c-1 46 -42 76 -95 76
c-45 0 -87 -20 -102 -76z" />
    <glyph glyph-name="emacron" unicode="&#x113;" horiz-adv-x="565" 
d="M422 671v-87h-283v87h283zM533 243c0 -13 -1 -30 -3 -53h-341c14 -44 53 -70 109 -70c44 0 88 17 118 45l76 -96c-46 -50 -126 -78 -205 -78c-147 0 -252 99 -252 241c0 152 118 246 252 246c133 0 246 -93 246 -235zM188 277h197c-1 46 -42 76 -95 76
c-45 0 -87 -20 -102 -76z" />
    <glyph glyph-name="eogonek" unicode="&#x119;" horiz-adv-x="565" 
d="M533 243c0 -13 -1 -30 -3 -53h-341c14 -44 53 -70 109 -70c44 0 88 17 118 45l76 -96c-21 -23 -49 -41 -82 -54l-48 -101c-3 -8 -4 -16 -4 -22c0 -23 16 -37 34 -37c30 0 37 22 37 51h73c0 -83 -55 -119 -113 -119c-55 0 -103 43 -103 103c0 13 1 31 11 50l28 53
c-12 -1 -25 -2 -38 -2c-147 0 -252 99 -252 241c0 152 118 246 252 246c133 0 246 -93 246 -235zM188 277h197c-1 46 -42 76 -95 76c-45 0 -87 -20 -102 -76z" />
    <glyph glyph-name="f" unicode="f" horiz-adv-x="377" 
d="M358 576c-73 0 -98 -38 -99 -92v-18h100v-111h-100v-355h-148v355h-87v111h87v21c0 147 81 225 216 225h59v-136h-28z" />
    <glyph glyph-name="g" unicode="g" horiz-adv-x="616" 
d="M407 466h147v-405c0 -198 -104 -297 -273 -297c-106 0 -196 61 -233 149l122 49c17 -38 62 -69 111 -69c77 0 126 43 126 150v9c-35 -43 -97 -61 -145 -61c-116 0 -226 92 -226 243s110 243 226 243c48 0 110 -18 145 -61v50zM294 129c57 0 107 45 107 105
s-51 105 -107 105c-58 0 -108 -46 -108 -105s50 -105 108 -105z" />
    <glyph glyph-name="gbreve" unicode="&#x11f;" horiz-adv-x="616" 
d="M306 562c-92 0 -135 66 -135 132h87c0 -34 13 -52 48 -52s47 24 47 52h89c0 -79 -57 -132 -136 -132zM407 466h147v-405c0 -198 -104 -297 -273 -297c-106 0 -196 61 -233 149l122 49c17 -38 62 -69 111 -69c77 0 126 43 126 150v9c-35 -43 -97 -61 -145 -61
c-116 0 -226 92 -226 243s110 243 226 243c48 0 110 -18 145 -61v50zM294 129c57 0 107 45 107 105s-51 105 -107 105c-58 0 -108 -46 -108 -105s50 -105 108 -105z" />
    <glyph glyph-name="gcommaaccent" unicode="&#x123;" horiz-adv-x="616" 
d="M400 710c-35 -38 -47 -100 -45 -160h-137c0 79 54 156 112 199zM407 466h147v-405c0 -198 -104 -297 -273 -297c-106 0 -196 61 -233 149l122 49c17 -38 62 -69 111 -69c77 0 126 43 126 150v9c-35 -43 -97 -61 -145 -61c-116 0 -226 92 -226 243s110 243 226 243
c48 0 110 -18 145 -61v50zM294 129c57 0 107 45 107 105s-51 105 -107 105c-58 0 -108 -46 -108 -105s50 -105 108 -105z" />
    <glyph glyph-name="gdotaccent" unicode="&#x121;" horiz-adv-x="616" 
d="M306 555c-45 0 -80 32 -80 78c0 45 35 77 80 77s81 -32 81 -77c0 -46 -36 -78 -81 -78zM407 466h147v-405c0 -198 -104 -297 -273 -297c-106 0 -196 61 -233 149l122 49c17 -38 62 -69 111 -69c77 0 126 43 126 150v9c-35 -43 -97 -61 -145 -61c-116 0 -226 92 -226 243
s110 243 226 243c48 0 110 -18 145 -61v50zM294 129c57 0 107 45 107 105s-51 105 -107 105c-58 0 -108 -46 -108 -105s50 -105 108 -105z" />
    <glyph glyph-name="h" unicode="h" horiz-adv-x="585" 
d="M344 478c124 0 185 -84 185 -227v-251h-148v234c0 72 -44 99 -81 99c-40 0 -90 -21 -90 -99v-234h-148v712h148v-320c17 60 92 86 134 86z" />
    <glyph glyph-name="hbar" unicode="&#x127;" horiz-adv-x="585" 
d="M344 478c124 0 185 -84 185 -227v-251h-148v234c0 72 -44 99 -81 99c-40 0 -90 -21 -90 -99v-234h-148v532h-50v77h50v103h148v-103h154v-77h-154v-140c17 60 92 86 134 86z" />
    <glyph glyph-name="i" unicode="i" horiz-adv-x="272" 
d="M136 537c-50 0 -92 39 -92 86c0 49 42 86 92 86s90 -37 90 -86c0 -47 -40 -86 -90 -86zM62 0v466h148v-466h-148z" />
    <glyph glyph-name="dotlessi" unicode="&#x131;" horiz-adv-x="272" 
d="M62 0v466h148v-466h-148z" />
    <glyph glyph-name="iacute" unicode="&#xed;" horiz-adv-x="272" 
d="M64 550l94 171h142l-135 -171h-101zM62 0v466h148v-466h-148z" />
    <glyph glyph-name="uni01D0" unicode="&#x1d0;" horiz-adv-x="272" 
d="M61 547l-109 171h104l79 -89l79 89h105l-110 -171h-148zM62 0v466h148v-466h-148z" />
    <glyph glyph-name="icircumflex" unicode="&#xee;" horiz-adv-x="272" 
d="M-47 550l109 171h148l110 -171h-105l-79 88l-79 -88h-104zM62 0v466h148v-466h-148z" />
    <glyph glyph-name="idieresis" unicode="&#xef;" horiz-adv-x="272" 
d="M30 568c-41 0 -75 31 -75 71s34 71 75 71s73 -31 73 -71s-32 -71 -73 -71zM244 568c-42 0 -76 31 -76 71s34 71 76 71c40 0 73 -31 73 -71s-33 -71 -73 -71zM62 0v466h148v-466h-148z" />
    <glyph glyph-name="i.loclTRK" horiz-adv-x="272" 
d="M136 555c-45 0 -80 32 -80 78c0 45 35 77 80 77s81 -32 81 -77c0 -46 -36 -78 -81 -78zM62 0v466h148v-466h-148z" />
    <glyph glyph-name="igrave" unicode="&#xec;" horiz-adv-x="272" 
d="M102 550l-135 171h143l93 -171h-101zM62 0v466h148v-466h-148z" />
    <glyph glyph-name="ij" unicode="&#x133;" horiz-adv-x="552" 
d="M136 537c-50 0 -92 39 -92 86c0 49 42 86 92 86s90 -37 90 -86c0 -47 -40 -86 -90 -86zM416 537c-49 0 -91 39 -91 86c0 49 42 86 91 86c51 0 91 -37 91 -86c0 -47 -40 -86 -91 -86zM62 0v466h148v-466h-148zM214 -230v137h59c43 0 69 35 69 88v471h148v-471
c0 -147 -80 -225 -215 -225h-61z" />
    <glyph glyph-name="imacron" unicode="&#x12b;" horiz-adv-x="272" 
d="M-6 584v87h283v-87h-283zM62 0v466h148v-466h-148z" />
    <glyph glyph-name="iogonek" unicode="&#x12f;" horiz-adv-x="273" 
d="M137 537c-50 0 -92 39 -92 86c0 49 42 86 92 86s90 -37 90 -86c0 -47 -40 -86 -90 -86zM113 -213c-55 0 -103 43 -103 103c0 13 0 31 11 50l42 79v447h148v-466h-84l-41 -86c-3 -8 -4 -16 -4 -22c0 -23 16 -37 34 -37c29 0 37 22 37 51h73c0 -83 -55 -119 -113 -119z" />
    <glyph glyph-name="itilde" unicode="&#x129;" horiz-adv-x="272" 
d="M-7 566c5 96 58 128 99 128c42 0 64 -41 87 -41c8 0 26 9 27 41h73c-4 -97 -60 -126 -100 -126c-39 0 -63 41 -87 41c-7 0 -25 -11 -26 -43h-73zM62 0v466h148v-466h-148z" />
    <glyph glyph-name="j" unicode="j" horiz-adv-x="280" 
d="M144 537c-49 0 -91 39 -91 86c0 49 42 86 91 86c51 0 91 -37 91 -86c0 -47 -40 -86 -91 -86zM-58 -230v137h59c43 0 69 35 69 88v471h148v-471c0 -147 -80 -225 -215 -225h-61z" />
    <glyph glyph-name="jcircumflex" unicode="&#x135;" horiz-adv-x="280" 
d="M-39 550l109 171h147l110 -171h-104l-80 88l-79 -88h-103zM70 466h148v-471c0 -147 -80 -225 -215 -225h-61v137h59c43 0 69 35 69 88v471z" />
    <glyph glyph-name="k" unicode="k" horiz-adv-x="524" 
d="M534 0h-180l-144 190v-190h-148v712h148v-377l100 131h186l-176 -206z" />
    <glyph glyph-name="kcommaaccent" unicode="&#x137;" horiz-adv-x="524" 
d="M320 260l214 -260h-180l-144 190v-190h-148v712h148v-377l100 131h186zM150 -199c34 38 46 99 45 160h136c0 -80 -54 -157 -111 -199z" />
    <glyph glyph-name="kgreenlandic" unicode="&#x138;" horiz-adv-x="503" 
d="M512 0h-193l-110 157v-157h-147v467h147v-144l97 144h172l-166 -230z" />
    <glyph glyph-name="l" unicode="l" horiz-adv-x="272" 
d="M62 0v712h148v-712h-148z" />
    <glyph glyph-name="lacute" unicode="&#x13a;" horiz-adv-x="272" 
d="M66 770l94 171h142l-135 -171h-101zM62 0v712h148v-712h-148z" />
    <glyph glyph-name="lcaron" unicode="&#x13e;" horiz-adv-x="320" 
d="M62 0v712h148v-712h-148zM312 450l-70 38c43 61 60 108 61 201h123c-13 -134 -67 -200 -114 -239z" />
    <glyph glyph-name="lcommaaccent" unicode="&#x13c;" horiz-adv-x="272" 
d="M62 0v712h148v-712h-148zM91 -238l-70 39c34 38 46 99 45 160h136c0 -80 -54 -157 -111 -199z" />
    <glyph glyph-name="lslash" unicode="&#x142;" horiz-adv-x="356" 
d="M329 479v-90l-82 -49v-340h-148v252l-67 -40v90l67 40v370h148v-282z" />
    <glyph glyph-name="m" unicode="m" horiz-adv-x="870" 
d="M637 478c117 0 177 -84 177 -227v-251h-148v239c0 72 -36 94 -74 94c-45 0 -79 -24 -80 -98v-235h-148v239c0 72 -36 94 -73 94c-40 0 -81 -16 -81 -94v-239h-148v466h148v-86c12 68 79 98 126 98c69 0 121 -32 148 -88c32 63 104 88 153 88z" />
    <glyph glyph-name="n" unicode="n" horiz-adv-x="585" 
d="M344 478c124 0 185 -84 185 -227v-251h-148v234c0 72 -44 99 -81 99c-40 0 -90 -21 -90 -99v-234h-148v466h148v-83c16 66 90 95 134 95z" />
    <glyph glyph-name="nacute" unicode="&#x144;" horiz-adv-x="585" 
d="M477 718l-135 -171h-101l94 171h142zM344 478c124 0 185 -84 185 -227v-251h-148v234c0 72 -44 99 -81 99c-40 0 -90 -21 -90 -99v-234h-148v466h148v-83c16 66 90 95 134 95z" />
    <glyph glyph-name="napostrophe" unicode="&#x149;" horiz-adv-x="714" 
d="M0 488c43 61 60 108 60 201h123c-13 -134 -66 -200 -113 -239zM473 478c124 0 185 -84 185 -227v-251h-148v234c0 72 -44 99 -81 99c-40 0 -90 -21 -90 -99v-234h-148v466h148v-83c16 66 90 95 134 95z" />
    <glyph glyph-name="ncaron" unicode="&#x148;" horiz-adv-x="585" 
d="M365 547h-148l-109 171h104l79 -89l79 89h105zM344 478c124 0 185 -84 185 -227v-251h-148v234c0 72 -44 99 -81 99c-40 0 -90 -21 -90 -99v-234h-148v466h148v-83c16 66 90 95 134 95z" />
    <glyph glyph-name="ncommaaccent" unicode="&#x146;" horiz-adv-x="585" 
d="M344 478c124 0 185 -84 185 -227v-251h-148v234c0 72 -44 99 -81 99c-40 0 -90 -21 -90 -99v-234h-148v466h148v-83c16 66 90 95 134 95zM177 -199c34 38 46 99 45 160h136c0 -80 -54 -157 -111 -199z" />
    <glyph glyph-name="eng" unicode="&#x14b;" horiz-adv-x="585" 
d="M344 478c124 0 185 -84 185 -227v-256c0 -147 -80 -225 -216 -225h-60v137h59c42 0 69 35 69 88v239c0 72 -44 99 -81 99c-40 0 -90 -21 -90 -99v-234h-148v466h148v-83c16 66 90 95 134 95z" />
    <glyph glyph-name="ntilde" unicode="&#xf1;" horiz-adv-x="585" 
d="M248 609c-7 0 -25 -11 -26 -43h-73c5 96 58 128 99 128c42 0 64 -41 87 -41c8 0 26 9 27 41h73c-4 -97 -60 -126 -100 -126c-39 0 -63 41 -87 41zM344 478c124 0 185 -84 185 -227v-251h-148v234c0 72 -44 99 -81 99c-40 0 -90 -21 -90 -99v-234h-148v466h148v-83
c16 66 90 95 134 95z" />
    <glyph glyph-name="o" unicode="o" horiz-adv-x="576" 
d="M288 -9c-133 0 -253 96 -253 243c0 148 120 244 253 244s254 -96 254 -244c0 -147 -121 -243 -254 -243zM288 128c57 0 103 42 103 106s-46 107 -103 107s-103 -43 -103 -107s46 -106 103 -106z" />
    <glyph glyph-name="oacute" unicode="&#xf3;" horiz-adv-x="576" 
d="M239 547l94 171h142l-135 -171h-101zM288 -9c-133 0 -253 96 -253 243c0 148 120 244 253 244s254 -96 254 -244c0 -147 -121 -243 -254 -243zM288 128c57 0 103 42 103 106s-46 107 -103 107s-103 -43 -103 -107s46 -106 103 -106z" />
    <glyph glyph-name="uni01D2" unicode="&#x1d2;" horiz-adv-x="576" 
d="M215 547l-109 171h104l79 -89l79 89h105l-110 -171h-148zM288 -9c-133 0 -253 96 -253 243c0 148 120 244 253 244s254 -96 254 -244c0 -147 -121 -243 -254 -243zM288 128c57 0 103 42 103 106s-46 107 -103 107s-103 -43 -103 -107s46 -106 103 -106z" />
    <glyph glyph-name="ocircumflex" unicode="&#xf4;" horiz-adv-x="576" 
d="M106 547l109 171h148l110 -171h-105l-79 89l-79 -89h-104zM288 -9c-133 0 -253 96 -253 243c0 148 120 244 253 244s254 -96 254 -244c0 -147 -121 -243 -254 -243zM288 128c57 0 103 42 103 106s-46 107 -103 107s-103 -43 -103 -107s46 -106 103 -106z" />
    <glyph glyph-name="odieresis" unicode="&#xf6;" horiz-adv-x="576" 
d="M184 565c-41 0 -75 31 -75 71c0 39 34 70 75 70s73 -31 73 -70c0 -40 -32 -71 -73 -71zM398 565c-42 0 -76 31 -76 71c0 39 34 70 76 70c40 0 73 -31 73 -70c0 -40 -33 -71 -73 -71zM288 -9c-133 0 -253 96 -253 243c0 148 120 244 253 244s254 -96 254 -244
c0 -147 -121 -243 -254 -243zM288 128c57 0 103 42 103 106s-46 107 -103 107s-103 -43 -103 -107s46 -106 103 -106z" />
    <glyph glyph-name="ograve" unicode="&#xf2;" horiz-adv-x="576" 
d="M243 547l-135 171h143l93 -171h-101zM288 -9c-133 0 -253 96 -253 243c0 148 120 244 253 244s254 -96 254 -244c0 -147 -121 -243 -254 -243zM288 128c57 0 103 42 103 106s-46 107 -103 107s-103 -43 -103 -107s46 -106 103 -106z" />
    <glyph glyph-name="ohungarumlaut" unicode="&#x151;" horiz-adv-x="576" 
d="M182 547l91 171h103l-103 -171h-91zM324 547l105 171h105l-113 -171h-97zM288 -9c-133 0 -253 96 -253 243c0 148 120 244 253 244s254 -96 254 -244c0 -147 -121 -243 -254 -243zM288 128c57 0 103 42 103 106s-46 107 -103 107s-103 -43 -103 -107s46 -106 103 -106z
" />
    <glyph glyph-name="omacron" unicode="&#x14d;" horiz-adv-x="576" 
d="M148 584v87h283v-87h-283zM288 -9c-133 0 -253 96 -253 243c0 148 120 244 253 244s254 -96 254 -244c0 -147 -121 -243 -254 -243zM288 128c57 0 103 42 103 106s-46 107 -103 107s-103 -43 -103 -107s46 -106 103 -106z" />
    <glyph glyph-name="oslash" unicode="&#xf8;" horiz-adv-x="577" 
d="M485 391c35 -41 57 -94 57 -157c0 -147 -121 -243 -254 -243c-54 0 -106 16 -149 45l-54 -56l-41 42l51 52c-37 41 -60 96 -60 160c0 148 120 244 253 244c56 0 110 -17 154 -48l50 51l41 -41zM185 234c0 -21 5 -39 13 -54l144 147c-16 9 -34 14 -54 14
c-57 0 -103 -43 -103 -107zM288 128c58 0 103 42 103 106c0 18 -4 35 -10 50l-141 -145c14 -7 31 -11 48 -11z" />
    <glyph glyph-name="oslashacute" unicode="&#x1ff;" horiz-adv-x="577" 
d="M475 718l-135 -171h-101l94 171h142zM485 391c35 -41 57 -94 57 -157c0 -147 -121 -243 -254 -243c-54 0 -106 16 -149 45l-54 -56l-41 42l51 52c-37 41 -60 96 -60 160c0 148 120 244 253 244c56 0 110 -17 154 -48l50 51l41 -41zM185 234c0 -21 5 -39 13 -54l144 147
c-16 9 -34 14 -54 14c-57 0 -103 -43 -103 -107zM288 128c58 0 103 42 103 106c0 18 -4 35 -10 50l-141 -145c14 -7 31 -11 48 -11z" />
    <glyph glyph-name="otilde" unicode="&#xf5;" horiz-adv-x="576" 
d="M147 566c5 96 58 128 99 128c42 0 64 -41 87 -41c8 0 26 9 27 41h73c-4 -97 -60 -126 -100 -126c-39 0 -63 41 -87 41c-7 0 -25 -11 -26 -43h-73zM288 -9c-133 0 -253 96 -253 243c0 148 120 244 253 244s254 -96 254 -244c0 -147 -121 -243 -254 -243zM288 128
c57 0 103 42 103 106s-46 107 -103 107s-103 -43 -103 -107s46 -106 103 -106z" />
    <glyph glyph-name="oe" unicode="&#x153;" horiz-adv-x="921" 
d="M889 243c0 -13 -1 -30 -3 -53h-341c15 -45 54 -70 109 -70c44 0 88 17 118 45l76 -96c-46 -50 -126 -78 -205 -78c-73 0 -136 24 -179 66c-47 -42 -110 -66 -176 -66c-133 0 -253 96 -253 243c0 148 120 244 253 244c66 0 130 -24 177 -68c46 44 109 68 177 68
c134 0 247 -93 247 -235zM545 277h196c-1 46 -43 76 -95 76c-44 0 -87 -20 -101 -76zM288 128c57 0 103 42 103 106s-46 107 -103 107s-103 -43 -103 -107s46 -106 103 -106z" />
    <glyph glyph-name="p" unicode="p" horiz-adv-x="616" 
d="M354 478c117 0 227 -93 227 -243c0 -151 -110 -243 -227 -243c-48 0 -110 18 -144 61v-283h-148v696h148v-50c34 44 96 62 144 62zM323 129c58 0 108 46 108 106c0 59 -50 105 -108 105c-57 0 -108 -45 -108 -105c0 -61 52 -106 108 -106z" />
    <glyph glyph-name="thorn" unicode="&#xfe;" horiz-adv-x="616" 
d="M354 477c117 0 227 -92 227 -243s-110 -243 -227 -243c-48 0 -110 18 -144 61v-282h-148v942h148v-296c34 43 96 61 144 61zM323 129c58 0 108 46 108 105s-50 105 -108 105c-56 0 -108 -45 -108 -105s51 -105 108 -105z" />
    <glyph glyph-name="q" unicode="q" horiz-adv-x="616" 
d="M407 466h147v-696h-147v283c-34 -43 -97 -61 -145 -61c-116 0 -226 92 -226 243c0 150 110 243 226 243c48 0 111 -18 145 -62v50zM294 129c56 0 107 45 107 106c0 60 -50 105 -107 105c-58 0 -108 -46 -108 -105c0 -60 50 -106 108 -106z" />
    <glyph glyph-name="r" unicode="r" horiz-adv-x="422" 
d="M348 478c22 0 46 -2 70 -14l-35 -141c-29 16 -52 18 -67 18c-58 0 -106 -48 -106 -186v-155h-148v466h146v-98c27 77 83 110 140 110z" />
    <glyph glyph-name="racute" unicode="&#x155;" horiz-adv-x="422" 
d="M396 718l-135 -171h-101l94 171h142zM348 478c22 0 46 -2 70 -14l-35 -141c-29 16 -52 18 -67 18c-58 0 -106 -48 -106 -186v-155h-148v466h146v-98c27 77 83 110 140 110z" />
    <glyph glyph-name="rcaron" unicode="&#x159;" horiz-adv-x="422" 
d="M284 547h-148l-109 171h104l79 -89l79 89h105zM348 478c22 0 46 -2 70 -14l-35 -141c-29 16 -52 18 -67 18c-58 0 -106 -48 -106 -186v-155h-148v466h146v-98c27 77 83 110 140 110z" />
    <glyph glyph-name="rcommaaccent" unicode="&#x157;" horiz-adv-x="422" 
d="M348 478c22 0 46 -2 70 -14l-35 -141c-29 16 -52 18 -67 18c-58 0 -106 -48 -106 -186v-155h-148v466h146v-98c27 77 83 110 140 110zM23 -199c35 38 46 99 45 160h137c0 -80 -55 -157 -112 -199z" />
    <glyph glyph-name="s" unicode="s" horiz-adv-x="476" 
d="M239 -9c-104 0 -203 57 -203 163h140c0 -23 17 -50 59 -50c31 0 57 13 57 35c0 15 -11 22 -46 30l-61 16c-137 37 -141 115 -141 154c0 69 78 139 191 139c88 0 195 -41 193 -158h-140c0 30 -21 44 -50 44c-25 0 -46 -10 -46 -30c0 -18 16 -28 40 -34l81 -22
c117 -32 127 -106 127 -138c0 -103 -107 -149 -201 -149z" />
    <glyph glyph-name="sacute" unicode="&#x15b;" horiz-adv-x="476" 
d="M188 547l94 171h142l-135 -171h-101zM239 -9c-104 0 -203 57 -203 163h140c0 -23 17 -50 59 -50c31 0 57 13 57 35c0 15 -11 22 -46 30l-61 16c-137 37 -141 115 -141 154c0 69 78 139 191 139c88 0 195 -41 193 -158h-140c0 30 -21 44 -50 44c-25 0 -46 -10 -46 -30
c0 -18 16 -28 40 -34l81 -22c117 -32 127 -106 127 -138c0 -103 -107 -149 -201 -149z" />
    <glyph glyph-name="scaron" unicode="&#x161;" horiz-adv-x="476" 
d="M164 547l-109 171h104l79 -89l79 89h105l-110 -171h-148zM239 -9c-104 0 -203 57 -203 163h140c0 -23 17 -50 59 -50c31 0 57 13 57 35c0 15 -11 22 -46 30l-61 16c-137 37 -141 115 -141 154c0 69 78 139 191 139c88 0 195 -41 193 -158h-140c0 30 -21 44 -50 44
c-25 0 -46 -10 -46 -30c0 -18 16 -28 40 -34l81 -22c117 -32 127 -106 127 -138c0 -103 -107 -149 -201 -149z" />
    <glyph glyph-name="scedilla" unicode="&#x15f;" horiz-adv-x="476" 
d="M440 140c0 -87 -77 -134 -158 -146l29 -54c11 -19 11 -37 11 -50c0 -60 -48 -103 -103 -103c-58 0 -112 36 -112 119h72c0 -29 8 -51 37 -51c18 0 34 14 34 37c0 6 -1 14 -4 22l-37 79c-92 10 -173 65 -173 161h140c0 -23 17 -50 59 -50c31 0 57 13 57 35
c0 15 -11 22 -46 30l-61 16c-137 37 -141 115 -141 154c0 69 78 139 191 139c88 0 195 -41 193 -158h-140c0 30 -21 44 -50 44c-25 0 -46 -10 -46 -30c0 -18 16 -28 40 -34l81 -22c117 -32 127 -106 127 -138z" />
    <glyph glyph-name="scommaaccent" unicode="&#x219;" horiz-adv-x="476" 
d="M239 -9c-104 0 -203 57 -203 163h140c0 -23 17 -50 59 -50c31 0 57 13 57 35c0 15 -11 22 -46 30l-61 16c-137 37 -141 115 -141 154c0 69 78 139 191 139c88 0 195 -41 193 -158h-140c0 30 -21 44 -50 44c-25 0 -46 -10 -46 -30c0 -18 16 -28 40 -34l81 -22
c117 -32 127 -106 127 -138c0 -103 -107 -149 -201 -149zM194 -238l-70 39c34 38 46 99 45 160h136c0 -80 -54 -157 -111 -199z" />
    <glyph glyph-name="germandbls" unicode="&#xdf;" horiz-adv-x="598" 
d="M413 402c91 -20 150 -90 150 -197c0 -128 -99 -214 -247 -214c-21 0 -50 4 -71 10l34 128c15 -5 32 -7 44 -7c54 0 90 46 90 101s-41 91 -99 91h-37v132h22c33 0 56 29 56 70c0 39 -28 63 -70 63c-45 0 -75 -39 -75 -105v-474h-148v474c0 149 91 244 228 244
c129 0 215 -74 215 -185c0 -61 -40 -113 -92 -131z" />
    <glyph glyph-name="longs" unicode="&#x17f;" horiz-adv-x="321" 
d="M327 712h59v-136h-28c-73 0 -98 -38 -99 -92v-484h-148v355h-87v111h87v21c0 147 81 225 216 225z" />
    <glyph glyph-name="t" unicode="t" horiz-adv-x="375" 
d="M356 466v-111h-98v-355h-148v355h-85v111h85v168h148v-168h98z" />
    <glyph glyph-name="tbar" unicode="&#x167;" horiz-adv-x="376" 
d="M356 355h-98v-102h60v-75h-60v-178h-148v178h-54v75h54v102h-85v111h85v168h148v-168h98v-111z" />
    <glyph glyph-name="tcaron" unicode="&#x165;" horiz-adv-x="375" 
d="M387 741h123c-13 -134 -67 -200 -114 -239l-70 38c43 61 60 108 61 201zM258 634v-168h98v-111h-98v-355h-148v355h-85v111h85v168h148z" />
    <glyph glyph-name="uni0163" unicode="&#x163;" horiz-adv-x="375" 
d="M356 355h-98v-342l40 -73c10 -19 10 -37 10 -50c0 -60 -47 -103 -103 -103c-58 0 -112 36 -112 119h73c0 -29 7 -51 37 -51c17 0 33 14 33 37c0 6 -1 14 -4 22l-41 86h-81v355h-85v111h85v168h148v-168h98v-111z" />
    <glyph glyph-name="uni021B" unicode="&#x21b;" horiz-adv-x="375" 
d="M356 466v-111h-98v-355h-148v355h-85v111h85v168h148v-168h98zM75 -199c34 38 46 99 45 160h136c0 -80 -54 -157 -111 -199z" />
    <glyph glyph-name="u" unicode="u" horiz-adv-x="585" 
d="M375 466h148v-466h-148v80c-16 -65 -91 -92 -134 -92c-124 0 -185 84 -185 227v251h148v-234c0 -71 43 -99 81 -99c39 0 90 21 90 99v234z" />
    <glyph glyph-name="uacute" unicode="&#xfa;" horiz-adv-x="585" 
d="M476 718l-135 -171h-101l94 171h142zM375 466h148v-466h-148v80c-16 -65 -91 -92 -134 -92c-124 0 -185 84 -185 227v251h148v-234c0 -71 43 -99 81 -99c39 0 90 21 90 99v234z" />
    <glyph glyph-name="uni01D4" unicode="&#x1d4;" horiz-adv-x="585" 
d="M364 547h-148l-109 171h104l79 -89l79 89h105zM375 466h148v-466h-148v80c-16 -65 -91 -92 -134 -92c-124 0 -185 84 -185 227v251h148v-234c0 -71 43 -99 81 -99c39 0 90 21 90 99v234z" />
    <glyph glyph-name="ucircumflex" unicode="&#xfb;" horiz-adv-x="585" 
d="M290 636l-79 -89h-104l109 171h148l110 -171h-105zM375 466h148v-466h-148v80c-16 -65 -91 -92 -134 -92c-124 0 -185 84 -185 227v251h148v-234c0 -71 43 -99 81 -99c39 0 90 21 90 99v234z" />
    <glyph glyph-name="udieresis" unicode="&#xfc;" horiz-adv-x="585" 
d="M185 565c-41 0 -75 31 -75 71c0 39 34 70 75 70s73 -31 73 -70c0 -40 -32 -71 -73 -71zM399 565c-42 0 -76 31 -76 71c0 39 34 70 76 70c40 0 73 -31 73 -70c0 -40 -33 -71 -73 -71zM375 466h148v-466h-148v80c-16 -65 -91 -92 -134 -92c-124 0 -185 84 -185 227v251h148
v-234c0 -71 43 -99 81 -99c39 0 90 21 90 99v234z" />
    <glyph glyph-name="uni01D8" unicode="&#x1d8;" horiz-adv-x="585" 
d="M475 930l-135 -171h-101l94 171h142zM185 565c-41 0 -75 31 -75 71c0 39 34 70 75 70s73 -31 73 -70c0 -40 -32 -71 -73 -71zM323 636c0 39 34 70 76 70c40 0 73 -31 73 -70c0 -40 -33 -71 -73 -71c-42 0 -76 31 -76 71zM375 466h148v-466h-148v80
c-16 -65 -91 -92 -134 -92c-124 0 -185 84 -185 227v251h148v-234c0 -71 43 -99 81 -99c39 0 90 21 90 99v234z" />
    <glyph glyph-name="uni01DA" unicode="&#x1da;" horiz-adv-x="585" 
d="M364 759h-148l-109 171h104l79 -89l79 89h105zM110 636c0 39 34 70 75 70s73 -31 73 -70c0 -40 -32 -71 -73 -71s-75 31 -75 71zM323 636c0 39 34 70 76 70c40 0 73 -31 73 -70c0 -40 -33 -71 -73 -71c-42 0 -76 31 -76 71zM375 466h148v-466h-148v80
c-16 -65 -91 -92 -134 -92c-124 0 -185 84 -185 227v251h148v-234c0 -71 43 -99 81 -99c39 0 90 21 90 99v234z" />
    <glyph glyph-name="uni01DC" unicode="&#x1dc;" horiz-adv-x="585" 
d="M345 759h-101l-135 171h143zM185 706c41 0 73 -31 73 -70c0 -40 -32 -71 -73 -71s-75 31 -75 71c0 39 34 70 75 70zM323 636c0 39 34 70 76 70c40 0 73 -31 73 -70c0 -40 -33 -71 -73 -71c-42 0 -76 31 -76 71zM375 466h148v-466h-148v80c-16 -65 -91 -92 -134 -92
c-124 0 -185 84 -185 227v251h148v-234c0 -71 43 -99 81 -99c39 0 90 21 90 99v234z" />
    <glyph glyph-name="uni01D6" unicode="&#x1d6;" horiz-adv-x="585" 
d="M432 875v-87h-283v87h283zM185 565c-41 0 -75 31 -75 71c0 39 34 70 75 70s73 -31 73 -70c0 -40 -32 -71 -73 -71zM323 636c0 39 34 70 76 70c40 0 73 -31 73 -70c0 -40 -33 -71 -73 -71c-42 0 -76 31 -76 71zM375 466h148v-466h-148v80c-16 -65 -91 -92 -134 -92
c-124 0 -185 84 -185 227v251h148v-234c0 -71 43 -99 81 -99c39 0 90 21 90 99v234z" />
    <glyph glyph-name="ugrave" unicode="&#xf9;" horiz-adv-x="585" 
d="M345 547h-101l-135 171h143zM375 466h148v-466h-148v80c-16 -65 -91 -92 -134 -92c-124 0 -185 84 -185 227v251h148v-234c0 -71 43 -99 81 -99c39 0 90 21 90 99v234z" />
    <glyph glyph-name="uhungarumlaut" unicode="&#x171;" horiz-adv-x="585" 
d="M377 718l-103 -171h-91l91 171h103zM422 547h-97l105 171h105zM375 232v234h148v-466h-148v80c-16 -65 -91 -92 -134 -92c-124 0 -185 84 -185 227v251h148v-234c0 -71 43 -99 81 -99c39 0 90 21 90 99z" />
    <glyph glyph-name="umacron" unicode="&#x16b;" horiz-adv-x="585" 
d="M432 671v-87h-283v87h283zM375 466h148v-466h-148v80c-16 -65 -91 -92 -134 -92c-124 0 -185 84 -185 227v251h148v-234c0 -71 43 -99 81 -99c39 0 90 21 90 99v234z" />
    <glyph glyph-name="uogonek" unicode="&#x173;" horiz-adv-x="585" 
d="M464 -94h73c0 -83 -54 -119 -112 -119c-56 0 -104 43 -104 103c0 13 1 31 11 50l43 79v61c-16 -65 -91 -92 -134 -92c-124 0 -185 84 -185 227v251h148v-234c0 -71 43 -99 81 -99c39 0 90 21 90 99v234h148v-466h-84l-41 -86c-3 -8 -4 -16 -4 -22c0 -23 16 -37 33 -37
c30 0 37 22 37 51z" />
    <glyph glyph-name="uring" unicode="&#x16f;" horiz-adv-x="585" 
d="M290 534c-68 0 -126 54 -126 124s58 126 126 126c70 0 128 -56 128 -126s-58 -124 -128 -124zM290 724c-35 0 -65 -29 -65 -66s30 -63 65 -63c36 0 68 26 68 63s-32 66 -68 66zM375 466h148v-466h-148v80c-16 -65 -91 -92 -134 -92c-124 0 -185 84 -185 227v251h148v-234
c0 -71 43 -99 81 -99c39 0 90 21 90 99v234z" />
    <glyph glyph-name="v" unicode="v" horiz-adv-x="526" 
d="M364 466h161l-198 -466h-129l-198 466h161l102 -277z" />
    <glyph glyph-name="w" unicode="w" horiz-adv-x="753" 
d="M589 466h160l-162 -466h-126l-85 288l-81 -288h-126l-167 466h160l77 -266l77 266h119l77 -266z" />
    <glyph glyph-name="wacute" unicode="&#x1e83;" horiz-adv-x="753" 
d="M562 718l-135 -171h-101l94 171h142zM589 466h160l-162 -466h-126l-85 288l-81 -288h-126l-167 466h160l77 -266l77 266h119l77 -266z" />
    <glyph glyph-name="wcircumflex" unicode="&#x175;" horiz-adv-x="753" 
d="M376 636l-79 -89h-104l109 171h148l110 -171h-105zM589 466h160l-162 -466h-126l-85 288l-81 -288h-126l-167 466h160l77 -266l77 266h119l77 -266z" />
    <glyph glyph-name="wdieresis" unicode="&#x1e85;" horiz-adv-x="753" 
d="M271 565c-41 0 -75 31 -75 71c0 39 34 70 75 70s73 -31 73 -70c0 -40 -32 -71 -73 -71zM485 565c-42 0 -76 31 -76 71c0 39 34 70 76 70c40 0 73 -31 73 -70c0 -40 -33 -71 -73 -71zM589 466h160l-162 -466h-126l-85 288l-81 -288h-126l-167 466h160l77 -266l77 266h119
l77 -266z" />
    <glyph glyph-name="wgrave" unicode="&#x1e81;" horiz-adv-x="753" 
d="M431 547h-101l-135 171h143zM589 466h160l-162 -466h-126l-85 288l-81 -288h-126l-167 466h160l77 -266l77 266h119l77 -266z" />
    <glyph glyph-name="x" unicode="x" horiz-adv-x="532" 
d="M531 0h-172l-93 136l-93 -136h-173l184 252l-154 214h173l65 -95l62 95h172l-154 -214z" />
    <glyph glyph-name="y" unicode="y" horiz-adv-x="516" 
d="M357 466h159l-288 -696h-158l115 285l-184 411h164l97 -241z" />
    <glyph glyph-name="yacute" unicode="&#xfd;" horiz-adv-x="516" 
d="M446 718l-135 -171h-101l94 171h142zM357 466h159l-288 -696h-158l115 285l-184 411h164l97 -241z" />
    <glyph glyph-name="ycircumflex" unicode="&#x177;" horiz-adv-x="516" 
d="M260 636l-79 -89h-104l109 171h148l110 -171h-105zM357 466h159l-288 -696h-158l115 285l-184 411h164l97 -241z" />
    <glyph glyph-name="ydieresis" unicode="&#xff;" horiz-adv-x="516" 
d="M155 565c-41 0 -75 31 -75 71c0 39 34 70 75 70s73 -31 73 -70c0 -40 -32 -71 -73 -71zM369 565c-42 0 -76 31 -76 71c0 39 34 70 76 70c40 0 73 -31 73 -70c0 -40 -33 -71 -73 -71zM357 466h159l-288 -696h-158l115 285l-184 411h164l97 -241z" />
    <glyph glyph-name="ygrave" unicode="&#x1ef3;" horiz-adv-x="516" 
d="M315 547h-101l-135 171h143zM357 466h159l-288 -696h-158l115 285l-184 411h164l97 -241z" />
    <glyph glyph-name="z" unicode="z" horiz-adv-x="509" 
d="M463 466v-110l-210 -219h210v-137h-423v109l207 220h-194v137h410z" />
    <glyph glyph-name="zacute" unicode="&#x17a;" horiz-adv-x="509" 
d="M440 718l-135 -171h-101l94 171h142zM463 466v-110l-210 -219h210v-137h-423v109l207 220h-194v137h410z" />
    <glyph glyph-name="zcaron" unicode="&#x17e;" horiz-adv-x="509" 
d="M328 547h-148l-109 171h104l79 -89l79 89h105zM463 466v-110l-210 -219h210v-137h-423v109l207 220h-194v137h410z" />
    <glyph glyph-name="zdotaccent" unicode="&#x17c;" horiz-adv-x="509" 
d="M255 555c-45 0 -80 32 -80 78c0 45 35 77 80 77s81 -32 81 -77c0 -46 -36 -78 -81 -78zM463 466v-110l-210 -219h210v-137h-423v109l207 220h-194v137h410z" />
    <glyph glyph-name="a.alt" horiz-adv-x="569" 
d="M278 478c126 0 234 -62 234 -200v-278h-156v52c-35 -40 -107 -61 -160 -61c-91 0 -167 55 -167 146c0 99 95 142 189 142c51 0 103 -12 138 -29v20c0 47 -37 83 -95 83c-45 0 -93 -15 -119 -41l-80 83c43 50 125 83 216 83zM244 102c35 0 87 15 112 46v12
c-23 16 -60 29 -103 29c-56 0 -74 -25 -74 -44c0 -26 27 -43 65 -43z" />
    <glyph glyph-name="aacute.alt" horiz-adv-x="569" 
d="M469 718l-135 -171h-101l93 171h143zM278 478c126 0 234 -62 234 -200v-278h-156v52c-35 -40 -107 -61 -160 -61c-91 0 -167 55 -167 146c0 99 95 142 189 142c51 0 103 -12 138 -29v20c0 47 -37 83 -95 83c-45 0 -93 -15 -119 -41l-80 83c43 50 125 83 216 83zM244 102
c35 0 87 15 112 46v12c-23 16 -60 29 -103 29c-56 0 -74 -25 -74 -44c0 -26 27 -43 65 -43z" />
    <glyph glyph-name="abreve.alt" horiz-adv-x="569" 
d="M281 562c-92 0 -135 66 -135 132h87c0 -34 13 -52 48 -52s46 24 46 52h89c0 -79 -56 -132 -135 -132zM278 478c126 0 234 -62 234 -200v-278h-156v52c-35 -40 -107 -61 -160 -61c-91 0 -167 55 -167 146c0 99 95 142 189 142c51 0 103 -12 138 -29v20c0 47 -37 83 -95 83
c-45 0 -93 -15 -119 -41l-80 83c43 50 125 83 216 83zM244 102c35 0 87 15 112 46v12c-23 16 -60 29 -103 29c-56 0 -74 -25 -74 -44c0 -26 27 -43 65 -43z" />
    <glyph glyph-name="uni01CE.alt" horiz-adv-x="569" 
d="M350 547h-148l-109 171h104l79 -89l79 89h105zM278 478c126 0 234 -62 234 -200v-278h-156v52c-35 -40 -107 -61 -160 -61c-91 0 -167 55 -167 146c0 99 95 142 189 142c51 0 103 -12 138 -29v20c0 47 -37 83 -95 83c-45 0 -93 -15 -119 -41l-80 83c43 50 125 83 216 83z
M244 102c35 0 87 15 112 46v12c-23 16 -60 29 -103 29c-56 0 -74 -25 -74 -44c0 -26 27 -43 65 -43z" />
    <glyph glyph-name="acircumflex.alt" horiz-adv-x="569" 
d="M277 636l-79 -89h-103l109 171h147l110 -171h-104zM278 478c126 0 234 -62 234 -200v-278h-156v52c-35 -40 -107 -61 -160 -61c-91 0 -167 55 -167 146c0 99 95 142 189 142c51 0 103 -12 138 -29v20c0 47 -37 83 -95 83c-45 0 -93 -15 -119 -41l-80 83
c43 50 125 83 216 83zM244 102c35 0 87 15 112 46v12c-23 16 -60 29 -103 29c-56 0 -74 -25 -74 -44c0 -26 27 -43 65 -43z" />
    <glyph glyph-name="adieresis.alt" horiz-adv-x="569" 
d="M176 565c-41 0 -75 31 -75 71c0 39 34 70 75 70c40 0 73 -31 73 -70c0 -40 -33 -71 -73 -71zM390 565c-42 0 -76 31 -76 71c0 39 34 70 76 70c40 0 72 -31 72 -70c0 -40 -32 -71 -72 -71zM278 478c126 0 234 -62 234 -200v-278h-156v52c-35 -40 -107 -61 -160 -61
c-91 0 -167 55 -167 146c0 99 95 142 189 142c51 0 103 -12 138 -29v20c0 47 -37 83 -95 83c-45 0 -93 -15 -119 -41l-80 83c43 50 125 83 216 83zM244 102c35 0 87 15 112 46v12c-23 16 -60 29 -103 29c-56 0 -74 -25 -74 -44c0 -26 27 -43 65 -43z" />
    <glyph glyph-name="agrave.alt" horiz-adv-x="569" 
d="M331 547h-101l-135 171h143zM278 478c126 0 234 -62 234 -200v-278h-156v52c-35 -40 -107 -61 -160 -61c-91 0 -167 55 -167 146c0 99 95 142 189 142c51 0 103 -12 138 -29v20c0 47 -37 83 -95 83c-45 0 -93 -15 -119 -41l-80 83c43 50 125 83 216 83zM244 102
c35 0 87 15 112 46v12c-23 16 -60 29 -103 29c-56 0 -74 -25 -74 -44c0 -26 27 -43 65 -43z" />
    <glyph glyph-name="amacron.alt" horiz-adv-x="569" 
d="M417 671v-87h-283v87h283zM278 478c126 0 234 -62 234 -200v-278h-156v52c-35 -40 -107 -61 -160 -61c-91 0 -167 55 -167 146c0 99 95 142 189 142c51 0 103 -12 138 -29v20c0 47 -37 83 -95 83c-45 0 -93 -15 -119 -41l-80 83c43 50 125 83 216 83zM244 102
c35 0 87 15 112 46v12c-23 16 -60 29 -103 29c-56 0 -74 -25 -74 -44c0 -26 27 -43 65 -43z" />
    <glyph glyph-name="aogonek.alt" horiz-adv-x="569" 
d="M454 -94h73c0 -83 -54 -119 -112 -119c-56 0 -104 43 -104 103c0 13 0 31 11 50l34 60v52c-36 -41 -107 -61 -160 -61c-91 0 -167 55 -167 146c0 99 95 142 189 142c51 0 103 -12 138 -29v20c0 47 -37 83 -95 83c-45 0 -93 -15 -119 -41l-80 83c43 50 125 83 216 83
c126 0 234 -62 234 -200v-278h-83l-41 -86c-3 -8 -4 -16 -4 -22c0 -23 15 -37 33 -37c30 0 37 22 37 51zM244 102c34 0 86 15 112 46v12c-23 15 -59 29 -103 29c-56 0 -74 -25 -74 -44c0 -26 27 -43 65 -43z" />
    <glyph glyph-name="aring.alt" horiz-adv-x="569" 
d="M276 534c-68 0 -125 54 -125 124s57 126 125 126c71 0 128 -56 128 -126s-57 -124 -128 -124zM276 724c-34 0 -64 -29 -64 -66s30 -63 64 -63c37 0 68 26 68 63s-31 66 -68 66zM278 478c126 0 234 -62 234 -200v-278h-156v52c-35 -40 -107 -61 -160 -61
c-91 0 -167 55 -167 146c0 99 95 142 189 142c51 0 103 -12 138 -29v20c0 47 -37 83 -95 83c-45 0 -93 -15 -119 -41l-80 83c43 50 125 83 216 83zM244 102c35 0 87 15 112 46v12c-23 16 -60 29 -103 29c-56 0 -74 -25 -74 -44c0 -26 27 -43 65 -43z" />
    <glyph glyph-name="aringacute.alt" horiz-adv-x="569" 
d="M282 534c-69 0 -126 54 -126 124c0 59 41 109 95 122l50 88h142l-93 -104c36 -22 59 -61 59 -106c0 -70 -57 -124 -127 -124zM282 724c-35 0 -65 -29 -65 -66s30 -63 65 -63c36 0 67 26 67 63s-31 66 -67 66zM278 478c126 0 234 -62 234 -200v-278h-156v52
c-35 -40 -107 -61 -160 -61c-91 0 -167 55 -167 146c0 99 95 142 189 142c51 0 103 -12 138 -29v20c0 47 -37 83 -95 83c-45 0 -93 -15 -119 -41l-80 83c43 50 125 83 216 83zM244 102c35 0 87 15 112 46v12c-23 16 -60 29 -103 29c-56 0 -74 -25 -74 -44
c0 -26 27 -43 65 -43z" />
    <glyph glyph-name="atilde.alt" horiz-adv-x="569" 
d="M233 609c-7 0 -25 -11 -26 -43h-73c5 96 58 128 99 128c43 0 64 -41 88 -41c7 0 25 9 26 41h73c-4 -97 -60 -126 -99 -126c-40 0 -64 41 -88 41zM278 478c126 0 234 -62 234 -200v-278h-156v52c-35 -40 -107 -61 -160 -61c-91 0 -167 55 -167 146c0 99 95 142 189 142
c51 0 103 -12 138 -29v20c0 47 -37 83 -95 83c-45 0 -93 -15 -119 -41l-80 83c43 50 125 83 216 83zM244 102c35 0 87 15 112 46v12c-23 16 -60 29 -103 29c-56 0 -74 -25 -74 -44c0 -26 27 -43 65 -43z" />
    <glyph glyph-name="l.alt" horiz-adv-x="326" 
d="M270 0c-136 0 -214 78 -214 224v488h147v-485c0 -59 29 -90 74 -90h37v-137h-44z" />
    <glyph glyph-name="lacute.alt" horiz-adv-x="326" 
d="M65 770l94 171h142l-135 -171h-101zM270 0c-136 0 -214 78 -214 224v488h147v-485c0 -59 29 -90 74 -90h37v-137h-44z" />
    <glyph glyph-name="lcaron.alt" horiz-adv-x="342" 
d="M270 0c-136 0 -214 78 -214 224v488h147v-485c0 -59 29 -90 74 -90h37v-137h-44zM306 450l-70 38c43 61 60 108 61 201h123c-13 -134 -67 -200 -114 -239z" />
    <glyph glyph-name="lcommaaccent.alt" horiz-adv-x="326" 
d="M270 0c-136 0 -214 78 -214 224v488h147v-485c0 -59 29 -90 74 -90h37v-137h-44zM168 -238l-70 39c34 38 46 99 45 160h136c0 -80 -54 -157 -111 -199z" />
    <glyph glyph-name="lslash.alt" horiz-adv-x="389" 
d="M316 137h37v-137h-44c-136 0 -215 78 -215 224v25l-62 -37v90l62 37v373h148v-285l87 52v-90l-87 -52v-110c0 -59 29 -90 74 -90z" />
    <glyph glyph-name="t.alt" horiz-adv-x="390" 
d="M300 0c-135 0 -198 46 -198 192v163h-84v111h84v97l148 45v-142h97v-111h-97v-153c1 -53 26 -65 69 -65h32v-137h-51z" />
    <glyph glyph-name="tbar.alt" horiz-adv-x="398" 
d="M327 137h32v-137h-50c-136 0 -198 46 -198 192v20h-54v75h54v68h-84v111h84v97l147 45v-142h98v-111h-98v-68h61v-75h-61v-10c1 -53 27 -65 69 -65z" />
    <glyph glyph-name="tcaron.alt" horiz-adv-x="390" 
d="M389 502l-70 38c43 61 60 108 61 201h122c-12 -134 -66 -200 -113 -239zM300 0c-135 0 -198 46 -198 192v163h-84v111h84v97l148 45v-142h97v-111h-97v-153c1 -53 26 -65 69 -65h32v-137h-51z" />
    <glyph glyph-name="uni0163.alt" horiz-adv-x="390" 
d="M351 0h-51h-16l33 -60c10 -19 11 -37 11 -50c0 -60 -48 -103 -104 -103c-57 0 -112 36 -112 119h73c0 -29 7 -51 37 -51c18 0 33 14 33 37c0 6 -1 14 -4 22l-47 98c-69 21 -102 74 -102 180v163h-84v111h84v97l148 45v-142h97v-111h-97v-153c1 -53 26 -65 69 -65h32v-137
z" />
    <glyph glyph-name="uni021B.alt" horiz-adv-x="390" 
d="M300 0c-135 0 -198 46 -198 192v163h-84v111h84v97l148 45v-142h97v-111h-97v-153c1 -53 26 -65 69 -65h32v-137h-51zM206 -238l-70 39c34 38 46 99 45 160h137c0 -80 -55 -157 -112 -199z" />
    <glyph glyph-name="y.alt" horiz-adv-x="507" 
d="M354 466h153l-228 -553c-46 -106 -91 -149 -192 -149c-8 0 -33 -1 -72 13v123c23 -6 36 -7 55 -7c41 0 60 33 78 75l29 76l-174 422h153l99 -267z" />
    <glyph glyph-name="yacute.alt" horiz-adv-x="507" 
d="M442 718l-135 -171h-101l94 171h142zM354 466h153l-228 -553c-46 -106 -91 -149 -192 -149c-8 0 -33 -1 -72 13v123c23 -6 36 -7 55 -7c41 0 60 33 78 75l29 76l-174 422h153l99 -267z" />
    <glyph glyph-name="ycircumflex.alt" horiz-adv-x="507" 
d="M257 636l-79 -89h-104l109 171h148l110 -171h-105zM354 466h153l-228 -553c-46 -106 -91 -149 -192 -149c-8 0 -33 -1 -72 13v123c23 -6 36 -7 55 -7c41 0 60 33 78 75l29 76l-174 422h153l99 -267z" />
    <glyph glyph-name="ydieresis.alt" horiz-adv-x="507" 
d="M151 565c-41 0 -75 31 -75 71c0 39 34 70 75 70s73 -31 73 -70c0 -40 -32 -71 -73 -71zM365 565c-42 0 -76 31 -76 71c0 39 34 70 76 70c40 0 73 -31 73 -70c0 -40 -33 -71 -73 -71zM354 466h153l-228 -553c-46 -106 -91 -149 -192 -149c-8 0 -33 -1 -72 13v123
c23 -6 36 -7 55 -7c41 0 60 33 78 75l29 76l-174 422h153l99 -267z" />
    <glyph glyph-name="ygrave.alt" horiz-adv-x="507" 
d="M312 547h-101l-135 171h143zM354 466h153l-228 -553c-46 -106 -91 -149 -192 -149c-8 0 -33 -1 -72 13v123c23 -6 36 -7 55 -7c41 0 60 33 78 75l29 76l-174 422h153l99 -267z" />
    <glyph glyph-name="f_b" horiz-adv-x="988" 
d="M725 477c117 0 227 -92 227 -243s-110 -243 -227 -243c-48 0 -110 18 -144 61v-52h-148v576h-75c-73 0 -98 -38 -99 -92v-18h100v-111h-100v-355h-148v355h-87v111h87v21c0 147 81 225 216 225h254v-296c34 43 96 61 144 61zM694 129c58 0 108 46 108 105
s-50 105 -108 105c-56 0 -108 -45 -108 -105s51 -105 108 -105z" />
    <glyph glyph-name="f_f_b" horiz-adv-x="1364" 
d="M1102 477c117 0 227 -92 227 -243s-110 -243 -227 -243c-47 0 -110 18 -144 61v-52h-148v576h-75c-73 0 -98 -38 -99 -92v-18h99v-111h-99v-355h-148v355h-229v-355h-148v355h-87v111h87v21c0 147 81 225 216 225h59v-136h-28c-73 0 -98 -38 -99 -92v-18h229v21
c0 147 80 225 216 225h254v-296c34 43 96 61 144 61zM1071 129c58 0 107 46 107 105s-49 105 -107 105c-56 0 -108 -45 -108 -105s51 -105 108 -105z" />
    <glyph glyph-name="f_f_j" horiz-adv-x="1027" 
d="M965 466v-471c0 -147 -79 -225 -215 -225h-60v137h59c42 0 69 35 69 88v360h-182v-355h-148v355h-229v-355h-148v355h-87v111h87v21c0 147 81 225 216 225h59v-136h-28c-73 0 -98 -38 -99 -92v-18h229v21c0 147 80 225 216 225h29v-136h-13c-57 0 -84 -33 -84 -80v-30
h329zM892 537c-50 0 -92 39 -92 86c0 49 42 86 92 86s91 -37 91 -86c0 -47 -41 -86 -91 -86z" />
    <glyph glyph-name="f_f_k" horiz-adv-x="1281" 
d="M1290 0h-180l-144 191v-191h-148v576h-83c-73 0 -98 -38 -99 -92v-18h99v-111h-99v-355h-148v355h-229v-355h-148v355h-87v111h87v21c0 147 81 225 216 225h59v-136h-28c-73 0 -98 -38 -99 -92v-18h229v21c0 147 80 225 216 225h262v-377l101 131h185l-175 -206z" />
    <glyph glyph-name="f_j" horiz-adv-x="652" 
d="M590 466v-471c0 -147 -80 -225 -216 -225h-60v137h59c42 0 69 35 69 88v360h-183v-355h-148v355h-86v111h86v21c0 147 81 225 216 225h29v-136h-13c-57 0 -84 -33 -84 -80v-30h331zM516 537c-49 0 -91 39 -91 86c0 49 42 86 91 86c51 0 91 -37 91 -86
c0 -47 -40 -86 -91 -86z" />
    <glyph glyph-name="f_k" horiz-adv-x="904" 
d="M914 0h-181l-144 191v-191h-147v576h-84c-73 0 -98 -38 -99 -92v-18h100v-111h-100v-355h-148v355h-87v111h87v21c0 147 81 225 216 225h262v-378l101 132h185l-175 -206z" />
    <glyph glyph-name="f_b.c2sc" horiz-adv-x="1075" 
d="M74 0v583h388v-129h-240v-104h190v-127h-190v-223h-148zM918 311c80 -11 117 -76 117 -142c0 -79 -52 -169 -201 -169h-264v583h247c113 0 186 -66 186 -151c0 -37 -15 -100 -85 -121zM806 454h-88v-94h87c29 0 50 15 50 46c0 25 -14 48 -49 48zM818 128
c45 0 67 29 67 56c0 25 -19 55 -68 55h-99v-111h100z" />
    <glyph glyph-name="f_f.c2sc" horiz-adv-x="992" 
d="M74 0v583h388v-129h-240v-104h190v-127h-190v-223h-148zM958 454h-240v-104h190v-127h-190v-223h-148v583h388v-129z" />
    <glyph glyph-name="f_f_b.c2sc" horiz-adv-x="1571" 
d="M74 0v583h388v-129h-240v-104h190v-127h-190v-223h-148zM570 0v583h388v-129h-240v-104h190v-127h-190v-223h-148zM1414 311c80 -11 117 -76 117 -142c0 -79 -52 -169 -201 -169h-264v583h247c113 0 186 -66 186 -151c0 -37 -15 -100 -85 -121zM1302 454h-88v-94h87
c29 0 50 15 50 46c0 25 -14 48 -49 48zM1314 128c45 0 67 29 67 56c0 25 -19 55 -68 55h-99v-111h100z" />
    <glyph glyph-name="f_f_i.c2sc" horiz-adv-x="1288" 
d="M74 0v583h388v-129h-240v-104h190v-127h-190v-223h-148zM570 0v583h388v-129h-240v-104h190v-127h-190v-223h-148zM1066 583h148v-583h-148v583z" />
    <glyph glyph-name="f_f_j.c2sc" horiz-adv-x="1296" 
d="M74 0v583h388v-129h-240v-104h190v-127h-190v-223h-148zM718 454v-104h190v-127h-190v-223h-148v583h388v-129h-240zM1074 583h148v-582c0 -109 -54 -202 -202 -202c-17 0 -63 5 -99 17l14 133c30 -11 81 -11 85 -11c38 0 54 28 54 63v582z" />
    <glyph glyph-name="f_f_k.c2sc" horiz-adv-x="1562" 
d="M74 0v583h388v-129h-240v-104h190v-127h-190v-223h-148zM570 0v583h388v-129h-240v-104h190v-127h-190v-223h-148zM1574 0h-204l-156 171v-171h-148v583h148v-158l118 158h186l-227 -287z" />
    <glyph glyph-name="f_f_l.c2sc" horiz-adv-x="1456" 
d="M74 0v583h388v-129h-240v-104h190v-127h-190v-223h-148zM570 0v583h388v-129h-240v-104h190v-127h-190v-223h-148zM1214 128h217v-128h-365v583h148v-455z" />
    <glyph glyph-name="f_j.c2sc" horiz-adv-x="800" 
d="M222 454v-104h190v-127h-190v-223h-148v583h388v-129h-240zM578 583h148v-582c0 -109 -54 -202 -202 -202c-17 0 -63 5 -99 17l14 133c30 -11 81 -11 85 -11c38 0 54 28 54 63v582z" />
    <glyph glyph-name="f_k.c2sc" horiz-adv-x="1066" 
d="M74 0v583h388v-129h-240v-104h190v-127h-190v-223h-148zM1078 0h-204l-156 171v-171h-148v583h148v-158l118 158h186l-227 -287z" />
    <glyph glyph-name="fi.c2sc" horiz-adv-x="792" 
d="M74 0v583h388v-129h-240v-104h190v-127h-190v-223h-148zM570 583h148v-583h-148v583z" />
    <glyph glyph-name="fl.c2sc" horiz-adv-x="960" 
d="M74 0v583h388v-129h-240v-104h190v-127h-190v-223h-148zM718 128h217v-128h-365v583h148v-455z" />
    <glyph glyph-name="a.smcp" horiz-adv-x="602" 
d="M447 0l-43 132h-205l-42 -132h-159l222 583h162l221 -583h-156zM240 260h122l-62 188z" />
    <glyph glyph-name="aacute.smcp" horiz-adv-x="602" 
d="M465 803l-121 -149h-91l82 149h130zM447 0l-43 132h-205l-42 -132h-159l222 583h162l221 -583h-156zM240 260h122l-62 188z" />
    <glyph glyph-name="abreve.smcp" horiz-adv-x="602" 
d="M301 667c-81 0 -119 56 -119 112h78c0 -29 10 -42 41 -42s40 18 40 42h80c0 -66 -50 -112 -120 -112zM447 0l-43 132h-205l-42 -132h-159l222 583h162l221 -583h-156zM240 260h122l-62 188z" />
    <glyph glyph-name="uni01CE.smcp" horiz-adv-x="602" 
d="M369 654h-138l-96 149h95l70 -76l70 76h96zM447 0l-43 132h-205l-42 -132h-159l222 583h162l221 -583h-156zM240 260h122l-62 188z" />
    <glyph glyph-name="acircumflex.smcp" horiz-adv-x="602" 
d="M300 730l-70 -76h-95l96 149h138l97 -149h-96zM447 0l-43 132h-205l-42 -132h-159l222 583h162l221 -583h-156zM240 260h122l-62 188z" />
    <glyph glyph-name="adieresis.smcp" horiz-adv-x="602" 
d="M206 671c-37 0 -67 28 -67 63s30 63 67 63c38 0 66 -28 66 -63s-28 -63 -66 -63zM398 671c-38 0 -69 28 -69 63s31 63 69 63c36 0 65 -28 65 -63s-29 -63 -65 -63zM447 0l-43 132h-205l-42 -132h-159l222 583h162l221 -583h-156zM240 260h122l-62 188z" />
    <glyph glyph-name="agrave.smcp" horiz-adv-x="602" 
d="M352 654h-91l-121 149h130zM447 0l-43 132h-205l-42 -132h-159l222 583h162l221 -583h-156zM240 260h122l-62 188z" />
    <glyph glyph-name="ij.alt.smcp" horiz-adv-x="685" 
d="M74 0v583h148v-583h-148zM414 -7c-17 0 -63 4 -99 16l13 133c31 -11 81 -10 86 -10c38 0 54 28 54 62v389h148v-389c0 -109 -54 -201 -202 -201z" />
    <glyph glyph-name="j.alt.smcp" horiz-adv-x="389" 
d="M118 -7c-17 0 -63 4 -99 16l14 133c30 -11 81 -10 85 -10c38 0 54 28 54 62v389h148v-389c0 -109 -54 -201 -202 -201z" />
    <glyph glyph-name="jcircumflex.alt.smcp" horiz-adv-x="389" 
d="M82 654l95 149h138l97 -149h-95l-70 76l-72 -76h-93zM118 -7c-17 0 -63 4 -99 16l14 133c30 -11 81 -10 85 -10c38 0 54 28 54 62v389h148v-389c0 -109 -54 -201 -202 -201z" />
    <glyph glyph-name="w.alt.smcp" horiz-adv-x="812" 
d="M626 583h169l-175 -583h-124l-91 319l-91 -319h-122l-176 583h169l77 -295l82 276h123l82 -276z" />
    <glyph glyph-name="wacute.alt.smcp" horiz-adv-x="813" 
d="M570 803l-121 -149h-91l81 149h131zM626 583h169l-175 -583h-124l-91 319l-91 -319h-122l-176 583h169l77 -295l82 276h123l82 -276z" />
    <glyph glyph-name="wcircumflex.alt.smcp" horiz-adv-x="813" 
d="M405 730l-70 -76h-95l96 149h138l97 -149h-96zM626 583h169l-175 -583h-124l-91 319l-91 -319h-122l-176 583h169l77 -295l82 276h123l82 -276z" />
    <glyph glyph-name="wdieresis.alt.smcp" horiz-adv-x="813" 
d="M311 671c-37 0 -68 28 -68 63s31 63 68 63c36 0 66 -28 66 -63s-30 -63 -66 -63zM503 671c-38 0 -69 28 -69 63s31 63 69 63c36 0 65 -28 65 -63s-29 -63 -65 -63zM626 583h169l-175 -583h-124l-91 319l-91 -319h-122l-176 583h169l77 -295l82 276h123l82 -276z" />
    <glyph glyph-name="wgrave.alt.smcp" horiz-adv-x="813" 
d="M457 654h-91l-122 149h130zM626 583h169l-175 -583h-124l-91 319l-91 -319h-122l-176 583h169l77 -295l82 276h123l82 -276z" />
    <glyph glyph-name="amacron.smcp" horiz-adv-x="602" 
d="M428 760v-75h-254v75h254zM447 0l-43 132h-205l-42 -132h-159l222 583h162l221 -583h-156zM240 260h122l-62 188z" />
    <glyph glyph-name="aogonek.smcp" horiz-adv-x="602" 
d="M487 -122c28 0 32 18 32 42h66c0 -74 -51 -103 -101 -103c-48 0 -91 38 -91 88c0 11 0 27 10 44l39 67l-38 116h-205l-42 -132h-159l222 583h162l221 -583h-103l-38 -73c-3 -6 -3 -13 -3 -20c0 -19 13 -29 28 -29zM240 260h122l-62 188z" />
    <glyph glyph-name="aring.smcp" horiz-adv-x="602" 
d="M300 641c-62 0 -114 48 -114 110c0 61 52 110 114 110c63 0 116 -49 116 -110c0 -62 -53 -110 -116 -110zM300 809c-31 0 -59 -26 -59 -58c0 -34 28 -58 59 -58c33 0 62 24 62 58c0 32 -29 58 -62 58zM447 0l-43 132h-205l-42 -132h-159l222 583h162l221 -583h-156z
M240 260h122l-62 188z" />
    <glyph glyph-name="aringacute.smcp" horiz-adv-x="602" 
d="M300 641c-62 0 -114 48 -114 110c0 46 29 85 70 102l48 83h131l-81 -88c36 -18 62 -55 62 -97c0 -62 -53 -110 -116 -110zM300 693c33 0 62 24 62 58c0 32 -29 58 -62 58c-31 0 -59 -26 -59 -58c0 -34 28 -58 59 -58zM447 0l-43 132h-205l-42 -132h-159l222 583h162
l221 -583h-156zM240 260h122l-62 188z" />
    <glyph glyph-name="atilde.smcp" horiz-adv-x="602" 
d="M263 707c-6 0 -22 -9 -23 -36h-66c4 83 52 111 89 111c36 0 55 -35 76 -35c6 0 22 8 22 35h66c-3 -84 -53 -109 -88 -109c-34 0 -57 34 -76 34zM447 0l-43 132h-205l-42 -132h-159l222 583h162l221 -583h-156zM240 260h122l-62 188z" />
    <glyph glyph-name="ae.smcp" horiz-adv-x="837" 
d="M536 129h253v-129h-401v127h-164l-60 -127h-179l305 583h491v-129h-245v-104h215v-124h-215v-97zM285 254h102v200h-7z" />
    <glyph glyph-name="aeacute.smcp" horiz-adv-x="837" 
d="M585 803l-121 -149h-91l82 149h130zM536 129h253v-129h-401v127h-164l-60 -127h-179l305 583h491v-129h-245v-104h215v-124h-215v-97zM285 254h102v200h-7z" />
    <glyph glyph-name="b.smcp" horiz-adv-x="579" 
d="M422 311c80 -11 117 -76 117 -142c0 -79 -52 -169 -201 -169h-264v583h247c113 0 186 -66 186 -151c0 -37 -15 -100 -85 -121zM310 454h-88v-94h87c29 0 50 15 50 46c0 25 -14 48 -49 48zM322 128c45 0 67 29 67 56c0 25 -19 55 -68 55h-99v-111h100z" />
    <glyph glyph-name="c.smcp" horiz-adv-x="631" 
d="M346 -6c-170 0 -307 133 -307 299c0 164 137 298 307 298c108 0 204 -55 259 -138l-116 -79c-30 48 -73 76 -136 76c-97 0 -165 -68 -165 -157c0 -88 65 -159 165 -159c63 0 106 28 136 76l116 -79c-55 -82 -151 -137 -259 -137z" />
    <glyph glyph-name="cacute.smcp" horiz-adv-x="631" 
d="M268 654l82 149h130l-121 -149h-91zM346 -6c-170 0 -307 133 -307 299c0 164 137 298 307 298c108 0 204 -55 259 -138l-116 -79c-30 48 -73 76 -136 76c-97 0 -165 -68 -165 -157c0 -88 65 -159 165 -159c63 0 106 28 136 76l116 -79c-55 -82 -151 -137 -259 -137z" />
    <glyph glyph-name="ccaron.smcp" horiz-adv-x="631" 
d="M274 654l-96 149h95l70 -76l70 76h96l-97 -149h-138zM346 -6c-170 0 -307 133 -307 299c0 164 137 298 307 298c108 0 204 -55 259 -138l-116 -79c-30 48 -73 76 -136 76c-97 0 -165 -68 -165 -157c0 -88 65 -159 165 -159c63 0 106 28 136 76l116 -79
c-55 -82 -151 -137 -259 -137z" />
    <glyph glyph-name="ccedilla.smcp" horiz-adv-x="631" 
d="M353 134c63 0 106 28 136 76l116 -79c-50 -75 -134 -127 -230 -136l27 -46c9 -17 9 -33 9 -44c0 -50 -43 -88 -91 -88c-50 0 -100 29 -100 103h66c0 -24 4 -42 31 -42c15 0 30 10 30 29c0 7 -1 14 -4 20l-37 69c-151 19 -267 144 -267 297c0 164 137 298 307 298
c108 0 204 -55 259 -138l-116 -79c-30 48 -73 76 -136 76c-97 0 -165 -68 -165 -157c0 -88 65 -159 165 -159z" />
    <glyph glyph-name="cdotaccent.smcp" horiz-adv-x="631" 
d="M346 661c-42 0 -74 29 -74 71c0 40 32 69 74 69c40 0 73 -29 73 -69c0 -42 -33 -71 -73 -71zM346 -6c-170 0 -307 133 -307 299c0 164 137 298 307 298c108 0 204 -55 259 -138l-116 -79c-30 48 -73 76 -136 76c-97 0 -165 -68 -165 -157c0 -88 65 -159 165 -159
c63 0 106 28 136 76l116 -79c-55 -82 -151 -137 -259 -137z" />
    <glyph glyph-name="d.smcp" horiz-adv-x="631" 
d="M74 0v583h239c174 0 276 -127 276 -293c0 -165 -102 -290 -276 -290h-239zM222 128h91c84 0 127 81 127 162c0 82 -43 164 -127 164h-91v-326z" />
    <glyph glyph-name="eth.smcp" horiz-adv-x="644" 
d="M326 583c175 0 275 -127 275 -293c0 -165 -100 -290 -275 -290h-239v233h-66v108h66v242h239zM326 128c84 0 126 81 126 162c0 82 -42 164 -126 164h-91v-113h91v-108h-91v-105h91z" />
    <glyph glyph-name="dcaron.smcp" horiz-adv-x="631" 
d="M219 654l-95 149h94l70 -76l71 76h95l-97 -149h-138zM74 0v583h239c174 0 276 -127 276 -293c0 -165 -102 -290 -276 -290h-239zM222 128h91c84 0 127 81 127 162c0 82 -43 164 -127 164h-91v-326z" />
    <glyph glyph-name="dcroat.smcp" horiz-adv-x="644" 
d="M326 583c175 0 275 -127 275 -293c0 -165 -100 -290 -275 -290h-239v233h-66v108h66v242h239zM326 128c84 0 126 81 126 162c0 82 -42 164 -126 164h-91v-113h91v-108h-91v-105h91z" />
    <glyph glyph-name="e.smcp" horiz-adv-x="524" 
d="M222 128h253v-128h-401v583h393v-129h-245v-101h216v-132h-216v-93z" />
    <glyph glyph-name="eacute.smcp" horiz-adv-x="524" 
d="M427 803l-122 -149h-90l81 149h131zM222 128h253v-128h-401v583h393v-129h-245v-101h216v-132h-216v-93z" />
    <glyph glyph-name="ecaron.smcp" horiz-adv-x="524" 
d="M331 654h-138l-96 149h94l71 -76l70 76h96zM222 128h253v-128h-401v583h393v-129h-245v-101h216v-132h-216v-93z" />
    <glyph glyph-name="ecircumflex.smcp" horiz-adv-x="524" 
d="M262 730l-71 -76h-94l96 149h138l97 -149h-96zM222 128h253v-128h-401v583h393v-129h-245v-101h216v-132h-216v-93z" />
    <glyph glyph-name="edieresis.smcp" horiz-adv-x="524" 
d="M167 671c-36 0 -68 28 -68 63s32 63 68 63c37 0 67 -28 67 -63s-30 -63 -67 -63zM360 671c-38 0 -69 28 -69 63s31 63 69 63c36 0 64 -28 64 -63s-28 -63 -64 -63zM222 128h253v-128h-401v583h393v-129h-245v-101h216v-132h-216v-93z" />
    <glyph glyph-name="edotaccent.smcp" horiz-adv-x="524" 
d="M263 661c-42 0 -74 29 -74 71c0 40 32 69 74 69c40 0 73 -29 73 -69c0 -42 -33 -71 -73 -71zM222 128h253v-128h-401v583h393v-129h-245v-101h216v-132h-216v-93z" />
    <glyph glyph-name="egrave.smcp" horiz-adv-x="524" 
d="M313 654h-90l-122 149h130zM222 128h253v-128h-401v583h393v-129h-245v-101h216v-132h-216v-93z" />
    <glyph glyph-name="emacron.smcp" horiz-adv-x="524" 
d="M389 760v-75h-253v75h253zM222 128h253v-128h-401v583h393v-129h-245v-101h216v-132h-216v-93z" />
    <glyph glyph-name="eogonek.smcp" horiz-adv-x="524" 
d="M382 0l-39 -73c-3 -6 -3 -13 -3 -20c0 -19 14 -29 28 -29c28 0 32 18 32 42h66c0 -74 -51 -103 -100 -103c-48 0 -91 38 -91 88c0 11 -1 27 10 44l30 51h-241v583h393v-129h-245v-101h216v-132h-216v-93h253v-128h-93z" />
    <glyph glyph-name="f.smcp" horiz-adv-x="496" 
d="M462 454h-240v-104h190v-127h-190v-223h-148v583h388v-129z" />
    <glyph glyph-name="g.smcp" horiz-adv-x="675" 
d="M350 -7c-174 0 -311 134 -311 298c0 166 137 300 311 300c99 0 184 -42 237 -107l-110 -91c-32 38 -77 60 -127 60c-91 0 -162 -72 -162 -162c0 -87 71 -168 162 -168c64 0 113 20 132 59c3 5 4 8 5 14h-169v118h330c0 -226 -124 -321 -298 -321z" />
    <glyph glyph-name="gbreve.smcp" horiz-adv-x="675" 
d="M337 667c-80 0 -120 56 -120 112h79c0 -29 10 -42 41 -42c30 0 39 18 39 42h80c0 -66 -50 -112 -119 -112zM350 -7c-174 0 -311 134 -311 298c0 166 137 300 311 300c99 0 184 -42 237 -107l-110 -91c-32 38 -77 60 -127 60c-91 0 -162 -72 -162 -162
c0 -87 71 -168 162 -168c64 0 113 20 132 59c3 5 4 8 5 14h-169v118h330c0 -226 -124 -321 -298 -321z" />
    <glyph glyph-name="gcommaaccent.smcp" horiz-adv-x="675" 
d="M350 -7c-174 0 -311 134 -311 298c0 166 137 300 311 300c99 0 184 -42 237 -107l-110 -91c-32 38 -77 60 -127 60c-91 0 -162 -72 -162 -162c0 -87 71 -168 162 -168c64 0 113 20 132 59c3 5 4 8 5 14h-169v118h330c0 -226 -124 -321 -298 -321zM295 -202l-64 37
c30 29 39 86 40 132h127c0 -61 -51 -132 -103 -169z" />
    <glyph glyph-name="gdotaccent.smcp" horiz-adv-x="675" 
d="M337 661c-42 0 -73 29 -73 71c0 40 31 69 73 69c41 0 73 -29 73 -69c0 -42 -32 -71 -73 -71zM350 -7c-174 0 -311 134 -311 298c0 166 137 300 311 300c99 0 184 -42 237 -107l-110 -91c-32 38 -77 60 -127 60c-91 0 -162 -72 -162 -162c0 -87 71 -168 162 -168
c64 0 113 20 132 59c3 5 4 8 5 14h-169v118h330c0 -226 -124 -321 -298 -321z" />
    <glyph glyph-name="h.smcp" horiz-adv-x="626" 
d="M404 583h148v-583h-148v223h-182v-223h-148v583h148v-227h182v227z" />
    <glyph glyph-name="hbar.smcp" horiz-adv-x="646" 
d="M628 502v-70h-66v-432h-148v223h-182v-223h-148v432h-66v70h66v81h148v-81h182v81h148v-81h66zM414 356v76h-182v-76h182z" />
    <glyph glyph-name="i.smcp" horiz-adv-x="296" 
d="M74 0v583h148v-583h-148z" />
    <glyph glyph-name="iacute.smcp" horiz-adv-x="296" 
d="M101 654l81 149h131l-121 -149h-91zM74 0v583h148v-583h-148z" />
    <glyph glyph-name="uni01D0.smcp" horiz-adv-x="296" 
d="M79 654l-96 149h94l71 -76l70 76h96l-97 -149h-138zM74 0v583h148v-583h-148z" />
    <glyph glyph-name="icircumflex.smcp" horiz-adv-x="296" 
d="M-17 654l96 149h138l97 -149h-96l-70 76l-71 -76h-94zM74 0v583h148v-583h-148z" />
    <glyph glyph-name="idieresis.smcp" horiz-adv-x="296" 
d="M53 671c-36 0 -67 28 -67 63s31 63 67 63c37 0 67 -28 67 -63s-30 -63 -67 -63zM245 671c-38 0 -68 28 -68 63s30 63 68 63c36 0 65 -28 65 -63s-29 -63 -65 -63zM74 0v583h148v-583h-148z" />
    <glyph glyph-name="i.loclTRK.smcp" horiz-adv-x="296" 
d="M149 661c-42 0 -74 29 -74 71c0 40 32 69 74 69c40 0 73 -29 73 -69c0 -42 -33 -71 -73 -71zM74 0v583h148v-583h-148z" />
    <glyph glyph-name="igrave.smcp" horiz-adv-x="296" 
d="M109 654l-122 149h131l81 -149h-90zM74 0v583h148v-583h-148z" />
    <glyph glyph-name="ij.smcp" horiz-adv-x="580" 
d="M74 0v583h148v-583h-148zM302 -201c-16 0 -61 5 -97 17l13 133c30 -11 80 -11 84 -11c39 0 56 28 56 63v582h148v-582c0 -109 -55 -202 -204 -202z" />
    <glyph glyph-name="imacron.smcp" horiz-adv-x="296" 
d="M22 685v75h253v-75h-253zM74 0v583h148v-583h-148z" />
    <glyph glyph-name="iogonek.smcp" horiz-adv-x="297" 
d="M159 -80h66c0 -74 -50 -103 -100 -103c-48 0 -91 38 -91 88c0 11 -1 26 9 44l31 54l1 580h148v-583h-83l-38 -73c-2 -6 -3 -13 -3 -20c0 -19 14 -29 28 -29c28 0 32 18 32 42z" />
    <glyph glyph-name="itilde.smcp" horiz-adv-x="296" 
d="M21 671c4 83 52 111 90 111c36 0 54 -35 76 -35c6 0 22 8 23 35h65c-3 -84 -54 -109 -88 -109c-35 0 -57 34 -76 34c-7 0 -22 -9 -23 -36h-67zM74 0v583h148v-583h-148z" />
    <glyph glyph-name="j.smcp" horiz-adv-x="304" 
d="M28 -201c-17 0 -63 5 -99 17l14 133c30 -11 81 -11 85 -11c38 0 54 28 54 63v582h148v-582c0 -109 -54 -202 -202 -202z" />
    <glyph glyph-name="jcircumflex.smcp" horiz-adv-x="304" 
d="M-8 654l95 149h138l97 -149h-95l-70 76l-72 -76h-93zM28 -201c-17 0 -63 5 -99 17l14 133c30 -11 81 -11 85 -11c38 0 54 28 54 63v582h148v-582c0 -109 -54 -202 -202 -202z" />
    <glyph glyph-name="k.smcp" horiz-adv-x="570" 
d="M582 0h-204l-156 171v-171h-148v583h148v-158l118 158h186l-227 -287z" />
    <glyph glyph-name="kcommaaccent.smcp" horiz-adv-x="570" 
d="M299 296l283 -296h-204l-156 171v-171h-148v583h148v-158l118 158h186zM179 -165c31 29 40 86 40 132h128c0 -61 -51 -132 -104 -169z" />
    <glyph glyph-name="l.smcp" horiz-adv-x="464" 
d="M74 0v583h148v-455h217v-128h-365z" />
    <glyph glyph-name="lacute.smcp" horiz-adv-x="464" 
d="M79 654l81 149h131l-122 -149h-90zM74 0v583h148v-455h217v-128h-365z" />
    <glyph glyph-name="lcaron.smcp" horiz-adv-x="487" 
d="M74 0v583h148v-455h217v-128h-365zM358 373l-54 34c37 53 53 96 54 176h103c-12 -122 -61 -176 -103 -210z" />
    <glyph glyph-name="lcommaaccent.smcp" horiz-adv-x="464" 
d="M74 0v583h148v-455h217v-128h-365zM190 -202l-63 37c29 29 39 86 39 132h127c0 -61 -50 -132 -103 -169z" />
    <glyph glyph-name="lslash.smcp" horiz-adv-x="481" 
d="M239 128h216v-128h-364v210l-69 -42v81l69 42v292h148v-202l86 52v-80l-86 -53v-172z" />
    <glyph glyph-name="m.smcp" horiz-adv-x="818" 
d="M774 0h-152l-37 302l-119 -234h-112l-121 235l-38 -303h-152l75 583h123l168 -347l168 347h124z" />
    <glyph glyph-name="n.smcp" horiz-adv-x="609" 
d="M387 583h148v-583h-129l-184 305v-305h-148v583h134l179 -301v301z" />
    <glyph glyph-name="nacute.smcp" horiz-adv-x="609" 
d="M468 803l-121 -149h-91l82 149h130zM387 583h148v-583h-129l-184 305v-305h-148v583h134l179 -301v301z" />
    <glyph glyph-name="ncaron.smcp" horiz-adv-x="609" 
d="M372 654h-138l-95 149h94l70 -76l71 76h95zM387 583h148v-583h-129l-184 305v-305h-148v583h134l179 -301v301z" />
    <glyph glyph-name="ncommaaccent.smcp" horiz-adv-x="609" 
d="M387 583h148v-583h-129l-184 305v-305h-148v583h134l179 -301v301zM198 -165c30 29 40 86 40 132h127c0 -61 -50 -132 -104 -169z" />
    <glyph glyph-name="eng.smcp" horiz-adv-x="609" 
d="M387 583h148v-582c0 -110 -55 -203 -204 -203c-16 0 -61 5 -98 17l13 133c31 -11 81 -10 85 -10c39 0 56 28 56 63v34l-165 270v-305h-148v583h134l179 -300v300z" />
    <glyph glyph-name="ntilde.smcp" horiz-adv-x="609" 
d="M266 707c-6 0 -22 -9 -23 -36h-66c4 83 51 111 89 111c36 0 55 -35 76 -35c6 0 22 8 23 35h66c-4 -84 -53 -109 -89 -109c-34 0 -56 34 -76 34zM387 583h148v-583h-129l-184 305v-305h-148v583h134l179 -301v301z" />
    <glyph glyph-name="o.smcp" horiz-adv-x="696" 
d="M348 -7c-172 0 -308 134 -308 299s136 299 308 299c171 0 308 -134 308 -299s-137 -299 -308 -299zM347 132c96 0 160 71 160 160c0 90 -64 159 -160 159s-159 -69 -159 -159c0 -89 63 -160 159 -160z" />
    <glyph glyph-name="oacute.smcp" horiz-adv-x="696" 
d="M301 654l81 149h131l-122 -149h-90zM348 -7c-172 0 -308 134 -308 299s136 299 308 299c171 0 308 -134 308 -299s-137 -299 -308 -299zM347 132c96 0 160 71 160 160c0 90 -64 159 -160 159s-159 -69 -159 -159c0 -89 63 -160 159 -160z" />
    <glyph glyph-name="uni01D2.smcp" horiz-adv-x="696" 
d="M278 654l-96 149h95l70 -76l71 76h95l-97 -149h-138zM348 -7c-172 0 -308 134 -308 299s136 299 308 299c171 0 308 -134 308 -299s-137 -299 -308 -299zM347 132c96 0 160 71 160 160c0 90 -64 159 -160 159s-159 -69 -159 -159c0 -89 63 -160 159 -160z" />
    <glyph glyph-name="ocircumflex.smcp" horiz-adv-x="696" 
d="M182 654l96 149h138l97 -149h-95l-71 76l-70 -76h-95zM348 -7c-172 0 -308 134 -308 299s136 299 308 299c171 0 308 -134 308 -299s-137 -299 -308 -299zM347 132c96 0 160 71 160 160c0 90 -64 159 -160 159s-159 -69 -159 -159c0 -89 63 -160 159 -160z" />
    <glyph glyph-name="odieresis.smcp" horiz-adv-x="696" 
d="M253 671c-37 0 -67 28 -67 63s30 63 67 63c38 0 66 -28 66 -63s-28 -63 -66 -63zM445 671c-38 0 -69 28 -69 63s31 63 69 63c36 0 65 -28 65 -63s-29 -63 -65 -63zM348 -7c-172 0 -308 134 -308 299s136 299 308 299c171 0 308 -134 308 -299s-137 -299 -308 -299z
M347 132c96 0 160 71 160 160c0 90 -64 159 -160 159s-159 -69 -159 -159c0 -89 63 -160 159 -160z" />
    <glyph glyph-name="ograve.smcp" horiz-adv-x="696" 
d="M308 654l-121 149h131l81 -149h-91zM348 -7c-172 0 -308 134 -308 299s136 299 308 299c171 0 308 -134 308 -299s-137 -299 -308 -299zM347 132c96 0 160 71 160 160c0 90 -64 159 -160 159s-159 -69 -159 -159c0 -89 63 -160 159 -160z" />
    <glyph glyph-name="ohungarumlaut.smcp" horiz-adv-x="696" 
d="M254 654l81 149h93l-92 -149h-82zM380 654l93 149h96l-101 -149h-88zM348 -7c-172 0 -308 134 -308 299s136 299 308 299c171 0 308 -134 308 -299s-137 -299 -308 -299zM347 132c96 0 160 71 160 160c0 90 -64 159 -160 159s-159 -69 -159 -159c0 -89 63 -160 159 -160z
" />
    <glyph glyph-name="omacron.smcp" horiz-adv-x="696" 
d="M222 685v75h253v-75h-253zM348 -7c-172 0 -308 134 -308 299s136 299 308 299c171 0 308 -134 308 -299s-137 -299 -308 -299zM347 132c96 0 160 71 160 160c0 90 -64 159 -160 159s-159 -69 -159 -159c0 -89 63 -160 159 -160z" />
    <glyph glyph-name="oslash.smcp" horiz-adv-x="698" 
d="M584 485c46 -52 73 -119 73 -193c0 -165 -137 -299 -308 -299c-74 0 -141 25 -194 66l-70 -69l-41 40l69 69c-45 52 -72 119 -72 193c0 165 136 299 308 299c74 0 142 -25 194 -67l70 69l41 -39zM190 292c0 -34 9 -66 26 -92l226 224c-26 17 -57 27 -94 27
c-96 0 -158 -69 -158 -159zM348 132c96 0 160 71 160 160c0 34 -9 66 -26 91l-226 -224c25 -17 56 -27 92 -27z" />
    <glyph glyph-name="oslashacute.smcp" horiz-adv-x="698" 
d="M513 803l-122 -149h-90l81 149h131zM584 485c46 -52 73 -119 73 -193c0 -165 -137 -299 -308 -299c-74 0 -141 25 -194 66l-70 -69l-41 40l69 69c-45 52 -72 119 -72 193c0 165 136 299 308 299c74 0 142 -25 194 -67l70 69l41 -39zM190 292c0 -34 9 -66 26 -92l226 224
c-26 17 -57 27 -94 27c-96 0 -158 -69 -158 -159zM348 132c96 0 160 71 160 160c0 34 -9 66 -26 91l-226 -224c25 -17 56 -27 92 -27z" />
    <glyph glyph-name="otilde.smcp" horiz-adv-x="696" 
d="M221 671c4 83 52 111 89 111c36 0 55 -35 76 -35c6 0 22 8 22 35h66c-3 -84 -53 -109 -88 -109c-34 0 -56 34 -76 34c-6 0 -22 -9 -23 -36h-66zM348 -7c-172 0 -308 134 -308 299s136 299 308 299c171 0 308 -134 308 -299s-137 -299 -308 -299zM347 132
c96 0 160 71 160 160c0 90 -64 159 -160 159s-159 -69 -159 -159c0 -89 63 -160 159 -160z" />
    <glyph glyph-name="oe.smcp" horiz-adv-x="957" 
d="M655 128h253v-128h-400v44c-42 -36 -104 -51 -160 -51c-172 0 -308 134 -308 299s136 299 308 299c58 0 115 -14 160 -51v43h392v-129h-245v-101h216v-132h-216v-93zM347 132c96 0 160 71 160 160c0 90 -64 159 -160 159s-159 -69 -159 -159c0 -89 63 -160 159 -160z" />
    <glyph glyph-name="p.smcp" horiz-adv-x="560" 
d="M324 583c143 0 208 -99 208 -196c0 -99 -65 -195 -208 -195h-102v-192h-148v583h250zM318 320c48 0 65 34 65 67s-17 67 -65 67h-96v-134h96z" />
    <glyph glyph-name="thorn.smcp" horiz-adv-x="568" 
d="M326 488c116 0 205 -75 205 -194c0 -120 -89 -199 -205 -199h-104v-95h-148v583h148v-95h104zM313 224c41 0 69 26 69 67c0 42 -27 69 -69 69h-91v-136h91z" />
    <glyph glyph-name="q.smcp" horiz-adv-x="696" 
d="M656 291c0 -98 -48 -185 -123 -240l56 -90l-103 -61l-62 100c-24 -6 -50 -9 -76 -9c-172 0 -308 135 -308 300s136 298 308 298c171 0 308 -133 308 -298zM188 291c0 -88 61 -157 155 -159l-41 67l102 60l54 -86c31 29 49 71 49 118c0 90 -64 159 -160 159
s-159 -69 -159 -159z" />
    <glyph glyph-name="r.smcp" horiz-adv-x="581" 
d="M376 0l-136 200h-18v-200h-148v583h251c142 0 208 -99 208 -196c0 -81 -45 -152 -139 -177l153 -210h-171zM222 454v-139h81c56 0 81 36 81 67s-26 72 -81 72h-81z" />
    <glyph glyph-name="racute.smcp" horiz-adv-x="581" 
d="M453 803l-122 -149h-90l82 149h130zM376 0l-136 200h-18v-200h-148v583h251c142 0 208 -99 208 -196c0 -81 -45 -152 -139 -177l153 -210h-171zM222 454v-139h81c56 0 81 36 81 67s-26 72 -81 72h-81z" />
    <glyph glyph-name="rcaron.smcp" horiz-adv-x="581" 
d="M357 654h-138l-96 149h94l71 -76l71 76h94zM376 0l-136 200h-18v-200h-148v583h251c142 0 208 -99 208 -196c0 -81 -45 -152 -139 -177l153 -210h-171zM222 454v-139h81c56 0 81 36 81 67s-26 72 -81 72h-81z" />
    <glyph glyph-name="rcommaaccent.smcp" horiz-adv-x="581" 
d="M394 210l153 -210h-171l-136 200h-18v-200h-148v583h251c142 0 208 -99 208 -196c0 -81 -45 -152 -139 -177zM222 454v-139h81c56 0 81 36 81 67s-26 72 -81 72h-81zM182 -165c31 29 40 86 40 132h128c0 -61 -51 -132 -104 -169z" />
    <glyph glyph-name="s.smcp" horiz-adv-x="531" 
d="M263 -7c-130 0 -220 68 -220 180h148c1 -33 37 -54 78 -54c39 0 71 12 71 47c0 12 -6 32 -60 50l-72 23c-133 35 -160 116 -160 172c0 106 94 180 215 180c119 0 209 -67 209 -184h-149c0 29 -17 55 -62 55c-39 0 -63 -22 -63 -47c0 -10 4 -31 56 -47l60 -18
c82 -25 175 -64 175 -178c0 -134 -119 -179 -226 -179z" />
    <glyph glyph-name="sacute.smcp" horiz-adv-x="531" 
d="M218 654l81 149h131l-121 -149h-91zM263 -7c-130 0 -220 68 -220 180h148c1 -33 37 -54 78 -54c39 0 71 12 71 47c0 12 -6 32 -60 50l-72 23c-133 35 -160 116 -160 172c0 106 94 180 215 180c119 0 209 -67 209 -184h-149c0 29 -17 55 -62 55c-39 0 -63 -22 -63 -47
c0 -10 4 -31 56 -47l60 -18c82 -25 175 -64 175 -178c0 -134 -119 -179 -226 -179z" />
    <glyph glyph-name="scaron.smcp" horiz-adv-x="531" 
d="M196 654l-96 149h94l71 -76l70 76h96l-97 -149h-138zM263 -7c-130 0 -220 68 -220 180h148c1 -33 37 -54 78 -54c39 0 71 12 71 47c0 12 -6 32 -60 50l-72 23c-133 35 -160 116 -160 172c0 106 94 180 215 180c119 0 209 -67 209 -184h-149c0 29 -17 55 -62 55
c-39 0 -63 -22 -63 -47c0 -10 4 -31 56 -47l60 -18c82 -25 175 -64 175 -178c0 -134 -119 -179 -226 -179z" />
    <glyph glyph-name="scedilla.smcp" horiz-adv-x="531" 
d="M489 172c0 -120 -96 -169 -192 -177l26 -46c10 -17 10 -33 10 -44c0 -50 -43 -88 -91 -88c-50 0 -100 29 -100 103h66c0 -24 3 -42 31 -42c15 0 29 10 29 29c0 7 -1 14 -4 20l-36 68c-111 11 -185 76 -185 178h148c1 -33 37 -54 78 -54c39 0 71 12 71 47
c0 12 -6 32 -60 50l-72 23c-133 35 -160 116 -160 172c0 106 94 180 215 180c119 0 209 -67 209 -184h-149c0 29 -17 55 -62 55c-39 0 -63 -22 -63 -47c0 -10 4 -31 56 -47l60 -18c82 -25 175 -64 175 -178z" />
    <glyph glyph-name="scommaaccent.smcp" horiz-adv-x="531" 
d="M263 -7c-130 0 -220 68 -220 180h148c1 -33 37 -54 78 -54c39 0 71 12 71 47c0 12 -6 32 -60 50l-72 23c-133 35 -160 116 -160 172c0 106 94 180 215 180c119 0 209 -67 209 -184h-149c0 29 -17 55 -62 55c-39 0 -63 -22 -63 -47c0 -10 4 -31 56 -47l60 -18
c82 -25 175 -64 175 -178c0 -134 -119 -179 -226 -179zM223 -202l-63 37c29 29 39 86 39 132h128c-1 -61 -51 -132 -104 -169z" />
    <glyph glyph-name="germandbls.smcp" horiz-adv-x="627" 
d="M445 355c83 -18 143 -74 143 -165c0 -110 -85 -199 -213 -199c-43 1 -77 5 -104 16l16 128c17 -10 34 -12 64 -12c53 0 88 32 88 81c0 55 -43 92 -107 92h-38v42l69 117c-14 4 -28 5 -41 5c-48 0 -107 -36 -107 -122v-338h-148v334c0 181 118 255 257 255
c77 0 163 -25 219 -60v-12z" />
    <glyph glyph-name="t.smcp" horiz-adv-x="508" 
d="M484 583v-129h-156v-454h-148v454h-156v129h460z" />
    <glyph glyph-name="tbar.smcp" horiz-adv-x="517" 
d="M488 454h-156v-153h83v-66h-83v-235h-148v235h-82v66h82v153h-155v129h459v-129z" />
    <glyph glyph-name="tcaron.smcp" horiz-adv-x="508" 
d="M322 654h-138l-95 149h94l71 -76l70 76h95zM484 583v-129h-156v-454h-148v454h-156v129h460z" />
    <glyph glyph-name="uni0163.smcp" horiz-adv-x="508" 
d="M484 454h-156v-448l34 -57c9 -17 9 -33 9 -44c0 -50 -44 -88 -92 -88c-49 0 -100 29 -100 103h67c0 -24 4 -42 31 -42c14 0 29 10 29 29c0 7 -1 14 -4 20l-38 73h-84v454h-156v129h460v-129z" />
    <glyph glyph-name="uni021B.smcp" horiz-adv-x="508" 
d="M484 583v-129h-156v-454h-148v454h-156v129h460zM148 -165c30 29 40 86 40 132h127c0 -61 -50 -132 -103 -169z" />
    <glyph glyph-name="u.smcp" 
d="M306 -7c-125 0 -238 86 -238 220v370h148v-356c0 -69 46 -94 90 -94c45 0 90 25 90 94v356h148v-370c0 -134 -112 -220 -238 -220z" />
    <glyph glyph-name="uacute.smcp" 
d="M259 654l81 149h131l-122 -149h-90zM306 -7c-125 0 -238 86 -238 220v370h148v-356c0 -69 46 -94 90 -94c45 0 90 25 90 94v356h148v-370c0 -134 -112 -220 -238 -220z" />
    <glyph glyph-name="uni01D4.smcp" 
d="M236 654l-96 149h95l70 -76l71 76h95l-97 -149h-138zM306 -7c-125 0 -238 86 -238 220v370h148v-356c0 -69 46 -94 90 -94c45 0 90 25 90 94v356h148v-370c0 -134 -112 -220 -238 -220z" />
    <glyph glyph-name="ucircumflex.smcp" 
d="M140 654l96 149h138l97 -149h-95l-71 76l-70 -76h-95zM306 -7c-125 0 -238 86 -238 220v370h148v-356c0 -69 46 -94 90 -94c45 0 90 25 90 94v356h148v-370c0 -134 -112 -220 -238 -220z" />
    <glyph glyph-name="udieresis.smcp" 
d="M211 671c-37 0 -67 28 -67 63s30 63 67 63c38 0 66 -28 66 -63s-28 -63 -66 -63zM403 671c-38 0 -69 28 -69 63s31 63 69 63c36 0 65 -28 65 -63s-29 -63 -65 -63zM306 -7c-125 0 -238 86 -238 220v370h148v-356c0 -69 46 -94 90 -94c45 0 90 25 90 94v356h148v-370
c0 -134 -112 -220 -238 -220z" />
    <glyph glyph-name="uni01D8.smcp" 
d="M259 826l81 150h131l-122 -150h-90zM211 671c-37 0 -67 28 -67 63s30 63 67 63c38 0 66 -28 66 -63s-28 -63 -66 -63zM403 671c-38 0 -69 28 -69 63s31 63 69 63c36 0 65 -28 65 -63s-29 -63 -65 -63zM306 -7c-125 0 -238 86 -238 220v370h148v-356c0 -69 46 -94 90 -94
c45 0 90 25 90 94v356h148v-370c0 -134 -112 -220 -238 -220z" />
    <glyph glyph-name="uni01DA.smcp" 
d="M236 826l-96 150h95l70 -77l71 77h95l-97 -150h-138zM211 671c-37 0 -67 28 -67 63s30 63 67 63c38 0 66 -28 66 -63s-28 -63 -66 -63zM403 671c-38 0 -69 28 -69 63s31 63 69 63c36 0 65 -28 65 -63s-29 -63 -65 -63zM306 -7c-125 0 -238 86 -238 220v370h148v-356
c0 -69 46 -94 90 -94c45 0 90 25 90 94v356h148v-370c0 -134 -112 -220 -238 -220z" />
    <glyph glyph-name="uni01DC.smcp" 
d="M266 825l-121 149h130l82 -149h-91zM211 671c-37 0 -67 28 -67 63s30 63 67 63c38 0 66 -28 66 -63s-28 -63 -66 -63zM403 671c-38 0 -69 28 -69 63s31 63 69 63c36 0 65 -28 65 -63s-29 -63 -65 -63zM306 -7c-125 0 -238 86 -238 220v370h148v-356c0 -69 46 -94 90 -94
c45 0 90 25 90 94v356h148v-370c0 -134 -112 -220 -238 -220z" />
    <glyph glyph-name="uni01D6.smcp" 
d="M180 859v73h253v-73h-253zM211 671c-37 0 -67 28 -67 63s30 63 67 63c38 0 66 -28 66 -63s-28 -63 -66 -63zM403 671c-38 0 -69 28 -69 63s31 63 69 63c36 0 65 -28 65 -63s-29 -63 -65 -63zM306 -7c-125 0 -238 86 -238 220v370h148v-356c0 -69 46 -94 90 -94
c45 0 90 25 90 94v356h148v-370c0 -134 -112 -220 -238 -220z" />
    <glyph glyph-name="ugrave.smcp" 
d="M266 654l-121 149h130l82 -149h-91zM306 -7c-125 0 -238 86 -238 220v370h148v-356c0 -69 46 -94 90 -94c45 0 90 25 90 94v356h148v-370c0 -134 -112 -220 -238 -220z" />
    <glyph glyph-name="uhungarumlaut.smcp" 
d="M212 654l81 149h93l-92 -149h-82zM337 654l94 149h96l-101 -149h-89zM306 -7c-125 0 -238 86 -238 220v370h148v-356c0 -69 46 -94 90 -94c45 0 90 25 90 94v356h148v-370c0 -134 -112 -220 -238 -220z" />
    <glyph glyph-name="umacron.smcp" 
d="M180 685v75h253v-75h-253zM306 -7c-125 0 -238 86 -238 220v370h148v-356c0 -69 46 -94 90 -94c45 0 90 25 90 94v356h148v-370c0 -134 -112 -220 -238 -220z" />
    <glyph glyph-name="uogonek.smcp" 
d="M396 583h148v-370c0 -120 -90 -201 -199 -217l-36 -69c-3 -6 -4 -13 -4 -20c0 -19 15 -29 30 -29c27 0 31 18 31 42h66c0 -74 -51 -103 -100 -103c-48 0 -91 38 -91 88c0 11 -1 27 9 44l27 46c-113 12 -209 94 -209 218v370h148v-356c0 -69 46 -94 90 -94
c45 0 90 25 90 94v356z" />
    <glyph glyph-name="uring.smcp" 
d="M305 641c-61 0 -114 48 -114 110c0 61 53 110 114 110c64 0 116 -49 116 -110c0 -62 -52 -110 -116 -110zM305 693c33 0 62 24 62 58c0 32 -29 58 -62 58c-31 0 -59 -26 -59 -58c0 -34 28 -58 59 -58zM306 -7c-125 0 -238 86 -238 220v370h148v-356c0 -69 46 -94 90 -94
c45 0 90 25 90 94v356h148v-370c0 -134 -112 -220 -238 -220z" />
    <glyph glyph-name="v.smcp" horiz-adv-x="535" 
d="M361 583h157l-186 -583h-130l-184 583h154l95 -347z" />
    <glyph glyph-name="w.smcp" horiz-adv-x="807" 
d="M635 583h162l-205 -583h-114l-76 275l-73 -275h-115l-203 583h160l103 -318l68 233h123l67 -233z" />
    <glyph glyph-name="wacute.smcp" horiz-adv-x="807" 
d="M568 803l-121 -149h-91l82 149h130zM635 583h162l-205 -583h-114l-76 275l-73 -275h-115l-203 583h160l103 -318l68 233h123l67 -233z" />
    <glyph glyph-name="wcircumflex.smcp" horiz-adv-x="807" 
d="M403 730l-70 -76h-95l96 149h138l97 -149h-96zM635 583h162l-205 -583h-114l-76 275l-73 -275h-115l-203 583h160l103 -318l68 233h123l67 -233z" />
    <glyph glyph-name="wdieresis.smcp" horiz-adv-x="807" 
d="M309 671c-37 0 -68 28 -68 63s31 63 68 63s66 -28 66 -63s-29 -63 -66 -63zM501 671c-38 0 -69 28 -69 63s31 63 69 63c36 0 65 -28 65 -63s-29 -63 -65 -63zM635 583h162l-205 -583h-114l-76 275l-73 -275h-115l-203 583h160l103 -318l68 233h123l67 -233z" />
    <glyph glyph-name="wgrave.smcp" horiz-adv-x="807" 
d="M455 654h-91l-121 149h130zM635 583h162l-205 -583h-114l-76 275l-73 -275h-115l-203 583h160l103 -318l68 233h123l67 -233z" />
    <glyph glyph-name="x.smcp" horiz-adv-x="607" 
d="M600 0h-174l-122 192l-123 -192h-174l208 310l-191 273h179l101 -157l101 157h178l-191 -274z" />
    <glyph glyph-name="y.smcp" horiz-adv-x="621" 
d="M445 583h176l-236 -324v-259h-149v262l-236 321h176l134 -209z" />
    <glyph glyph-name="yacute.smcp" horiz-adv-x="621" 
d="M475 803l-121 -149h-90l81 149h130zM445 583h176l-236 -324v-259h-149v262l-236 321h176l134 -209z" />
    <glyph glyph-name="ycircumflex.smcp" horiz-adv-x="621" 
d="M310 730l-70 -76h-94l95 149h139l96 -149h-95zM445 583h176l-236 -324v-259h-149v262l-236 321h176l134 -209z" />
    <glyph glyph-name="ydieresis.smcp" horiz-adv-x="621" 
d="M216 671c-37 0 -68 28 -68 63s31 63 68 63s66 -28 66 -63s-29 -63 -66 -63zM408 671c-38 0 -69 28 -69 63s31 63 69 63c36 0 65 -28 65 -63s-29 -63 -65 -63zM445 583h176l-236 -324v-259h-149v262l-236 321h176l134 -209z" />
    <glyph glyph-name="ygrave.smcp" horiz-adv-x="621" 
d="M361 654h-90l-122 149h131zM445 583h176l-236 -324v-259h-149v262l-236 321h176l134 -209z" />
    <glyph glyph-name="z.smcp" horiz-adv-x="543" 
d="M495 583v-108l-261 -347h261v-128h-452v108l256 346h-245v129h441z" />
    <glyph glyph-name="zacute.smcp" horiz-adv-x="543" 
d="M436 803l-121 -149h-91l81 149h131zM495 583v-108l-261 -347h261v-128h-452v108l256 346h-245v129h441z" />
    <glyph glyph-name="zcaron.smcp" horiz-adv-x="543" 
d="M340 654h-138l-96 149h94l71 -76l70 76h96zM495 583v-108l-261 -347h261v-128h-452v108l256 346h-245v129h441z" />
    <glyph glyph-name="zdotaccent.smcp" horiz-adv-x="543" 
d="M272 661c-42 0 -74 29 -74 71c0 40 32 69 74 69c40 0 73 -29 73 -69c0 -42 -33 -71 -73 -71zM495 583v-108l-261 -347h261v-128h-452v108l256 346h-245v129h441z" />
    <glyph glyph-name="ordfeminine" unicode="&#xaa;" horiz-adv-x="530" 
d="M347 708h114v-373h-114v44c-27 -36 -78 -51 -118 -51c-94 0 -182 75 -182 194c0 121 88 195 182 195c40 0 91 -15 118 -51v42zM253 434c48 0 90 38 90 88c0 52 -43 88 -90 88c-48 0 -89 -38 -89 -87c0 -50 41 -89 89 -89zM81 196v76h367v-76h-367z" />
    <glyph glyph-name="ordmasculine" unicode="&#xba;" horiz-adv-x="509" 
d="M254 328c-106 0 -202 77 -202 195c0 119 96 195 202 195s203 -76 203 -195c0 -118 -97 -195 -203 -195zM254 434c48 0 86 35 86 89s-38 89 -86 89c-47 0 -86 -35 -86 -89s39 -89 86 -89zM71 272h367v-76h-367v76z" />
    <glyph glyph-name="uni0410" unicode="&#x410;" horiz-adv-x="663" 
d="M505 0l-52 160h-242l-51 -160h-168l255 689h171l254 -689h-167zM254 296h155l-78 241z" />
    <glyph glyph-name="uni0411" unicode="&#x411;" horiz-adv-x="625" 
d="M349 447c168 0 244 -101 244 -219c0 -114 -72 -228 -232 -228h-282v689h430v-137h-273v-105h113zM340 137c64 0 95 43 95 89s-30 91 -99 91h-100v-180h104z" />
    <glyph glyph-name="uni0412" unicode="&#x412;" horiz-adv-x="641" 
d="M468 368c91 -13 133 -91 133 -170c0 -94 -61 -198 -223 -198h-299v689h279c126 0 207 -76 207 -178c0 -48 -18 -120 -97 -143zM347 552h-111v-132h110c37 0 62 24 62 66c0 35 -18 66 -61 66zM359 137c56 0 84 38 84 77c0 36 -25 77 -84 77h-123v-154h123z" />
    <glyph glyph-name="uni0413" unicode="&#x413;" horiz-adv-x="488" 
d="M79 689h388v-137h-231v-552h-157v689z" />
    <glyph glyph-name="uni0414" unicode="&#x414;" horiz-adv-x="731" 
d="M633 87h60v-230h-158v143h-360v-143h-157v259h10c73 0 121 69 121 243v330h484v-602zM306 318c0 -70 -15 -143 -59 -181h229v415h-170v-234z" />
    <glyph glyph-name="uni0415" unicode="&#x415;" horiz-adv-x="579" 
d="M236 137h294v-137h-451v689h442v-137h-285v-142h250v-141h-250v-132z" />
    <glyph glyph-name="uni0401" unicode="&#x401;" horiz-adv-x="579" 
d="M184 788c-41 0 -75 31 -75 71c0 39 34 70 75 70s73 -31 73 -70c0 -40 -32 -71 -73 -71zM398 788c-42 0 -76 31 -76 71c0 39 34 70 76 70c40 0 73 -31 73 -70c0 -40 -33 -71 -73 -71zM236 137h294v-137h-451v689h442v-137h-285v-142h250v-141h-250v-132z" />
    <glyph glyph-name="uni0416" unicode="&#x416;" horiz-adv-x="933" 
d="M952 0h-214l-193 225v-225h-157v225l-193 -225h-214l322 348l-261 341h197l149 -214v214h157v-215l149 215h196l-260 -341z" />
    <glyph glyph-name="uni0417" unicode="&#x417;" horiz-adv-x="583" 
d="M416 373c82 -28 127 -92 127 -173c0 -124 -107 -209 -275 -209c-108 0 -192 37 -249 111l116 92c37 -36 78 -58 129 -58c74 0 120 30 120 79c0 51 -48 81 -120 81h-82v128h42c84 0 125 24 125 68c0 35 -40 61 -89 61c-46 0 -98 -23 -126 -53l-91 103c59 55 135 95 237 95
c134 0 228 -73 228 -193c0 -56 -32 -105 -92 -132z" />
    <glyph glyph-name="uni0418" unicode="&#x418;" horiz-adv-x="679" 
d="M456 689h144v-689h-157v396l-226 -396h-138v689h157v-391z" />
    <glyph glyph-name="uni0419" unicode="&#x419;" horiz-adv-x="679" 
d="M339 785c-79 0 -136 53 -136 132h89c0 -28 12 -52 47 -52s48 18 48 52h87c0 -66 -43 -132 -135 -132zM456 689h144v-689h-157v396l-226 -396h-138v689h157v-391z" />
    <glyph glyph-name="uni041A" unicode="&#x41a;" horiz-adv-x="624" 
d="M644 0h-215l-193 222v-222h-157v689h157v-211l150 211h196l-260 -341z" />
    <glyph glyph-name="uni041B" unicode="&#x41b;" horiz-adv-x="714" 
d="M151 689h484v-689h-157v552h-170v-258c0 -191 -89 -294 -223 -294h-65v137h19c67 0 112 28 112 161v391z" />
    <glyph glyph-name="uni041C" unicode="&#x41c;" horiz-adv-x="920" 
d="M877 0h-161l-45 392l-150 -313h-120l-150 312l-46 -391h-161l85 689h131l201 -431l198 431h134z" />
    <glyph glyph-name="uni041D" unicode="&#x41d;" horiz-adv-x="700" 
d="M463 689h157v-689h-157v272h-227v-272h-157v689h157v-276h227v276z" />
    <glyph glyph-name="uni041E" unicode="&#x41e;" horiz-adv-x="781" 
d="M391 -9c-197 0 -352 159 -352 354s155 353 352 353c194 0 351 -158 351 -353s-157 -354 -351 -354zM390 139c115 0 194 91 194 206s-79 205 -194 205c-116 0 -193 -90 -193 -205s77 -206 193 -206z" />
    <glyph glyph-name="uni041F" unicode="&#x41f;" horiz-adv-x="686" 
d="M79 689h527v-689h-157v549h-213v-549h-157v689z" />
    <glyph glyph-name="uni0420" unicode="&#x420;" horiz-adv-x="621" 
d="M363 689c160 0 232 -114 232 -228c0 -115 -72 -227 -232 -227h-127v-234h-157v689h284zM356 371c59 0 81 46 81 90s-22 91 -80 91h-121v-181h120z" />
    <glyph glyph-name="uni0421" unicode="&#x421;" horiz-adv-x="703" 
d="M389 -8c-194 0 -350 158 -350 354c0 194 156 352 350 352c121 0 227 -61 290 -153l-122 -85c-36 55 -89 89 -161 89c-116 0 -199 -89 -199 -203s80 -206 198 -206c73 0 126 34 162 90l122 -86c-63 -92 -169 -152 -290 -152z" />
    <glyph glyph-name="uni0422" unicode="&#x422;" horiz-adv-x="561" 
d="M541 689v-137h-182v-552h-157v552h-182v137h521z" />
    <glyph glyph-name="uni0423" unicode="&#x423;" horiz-adv-x="657" 
d="M494 689h175l-357 -689h-172l114 214l-263 475h173l173 -325z" />
    <glyph glyph-name="uni0424" unicode="&#x424;" horiz-adv-x="878" 
d="M512 630c233 -19 329 -132 328 -287c0 -154 -96 -267 -328 -286v-57h-146v57c-232 19 -329 132 -329 286c0 155 97 268 329 287v59h146v-59zM682 343c2 69 -48 123 -170 138v-275c121 15 170 69 170 137zM195 343c0 -68 50 -122 171 -137v275
c-121 -15 -171 -69 -171 -138z" />
    <glyph glyph-name="uni0425" unicode="&#x425;" horiz-adv-x="666" 
d="M665 0h-185l-147 242l-147 -242h-184l237 367l-217 322h190l121 -197l123 197h188l-218 -322z" />
    <glyph glyph-name="uni0427" unicode="&#x427;" horiz-adv-x="648" 
d="M411 689h157v-689h-157v229c-47 -8 -96 -12 -142 -12c-151 0 -226 83 -226 273v199h157v-194c0 -109 44 -135 115 -135c31 0 64 4 96 10v319z" />
    <glyph glyph-name="uni0426" unicode="&#x426;" horiz-adv-x="706" 
d="M608 87h60v-230h-158v143h-431v689h157v-549h215v549h157v-602z" />
    <glyph glyph-name="uni0428" unicode="&#x428;" horiz-adv-x="969" 
d="M732 689h157v-689h-810v689h157v-549h170v549h157v-549h169v549z" />
    <glyph glyph-name="uni0429" unicode="&#x429;" horiz-adv-x="987" 
d="M889 87h60v-230h-158v143h-712v689h157v-549h170v549h157v-549h169v549h157v-602z" />
    <glyph glyph-name="uni042C" unicode="&#x42c;" horiz-adv-x="619" 
d="M349 447c168 0 244 -101 244 -219c0 -114 -72 -228 -232 -228h-282v689h157v-242h113zM340 137c64 0 95 43 95 89s-30 91 -99 91h-100v-180h104z" />
    <glyph glyph-name="uni042A" unicode="&#x42a;" horiz-adv-x="684" 
d="M414 447c168 0 244 -101 244 -219c0 -114 -72 -228 -232 -228h-281v552h-126v137h283v-242h112zM405 137c64 0 96 43 96 89s-31 91 -100 91h-99v-180h103z" />
    <glyph glyph-name="uni042B" unicode="&#x42b;" horiz-adv-x="930" 
d="M349 447c168 0 244 -101 244 -219c0 -114 -72 -228 -232 -228h-282v689h157v-242h113zM693 689h157v-689h-157v689zM340 137c64 0 95 43 95 89s-30 91 -99 91h-100v-180h104z" />
    <glyph glyph-name="uni042D" unicode="&#x42d;" horiz-adv-x="710" 
d="M320 698c195 0 350 -158 350 -352c0 -196 -155 -354 -350 -354c-120 0 -226 60 -289 152l121 86c37 -56 90 -90 162 -90c91 0 159 53 186 129h-272v141h276c-25 82 -97 139 -190 139c-72 0 -125 -34 -162 -89l-121 85c63 92 169 153 289 153z" />
    <glyph glyph-name="uni042E" unicode="&#x42e;" horiz-adv-x="1059" 
d="M669 698c195 0 351 -158 351 -353s-156 -354 -351 -354c-172 0 -311 121 -344 281h-89v-272h-157v689h157v-276h88c31 162 172 285 345 285zM668 139c115 0 194 91 194 206s-79 205 -194 205s-192 -90 -192 -205s77 -206 192 -206z" />
    <glyph glyph-name="uni042F" unicode="&#x42f;" horiz-adv-x="642" 
d="M281 689h282v-689h-157v242h-31l-159 -242h-183l178 251c-111 28 -162 113 -162 210c0 114 72 228 232 228zM306 366h100v186h-104c-64 0 -95 -49 -95 -95s30 -91 99 -91z" />
    <glyph glyph-name="uni0410.c2sc" horiz-adv-x="602" 
d="M447 0l-43 132h-205l-42 -132h-159l222 583h162l221 -583h-156zM240 260h122l-62 188z" />
    <glyph glyph-name="uni0411.c2sc" horiz-adv-x="568" 
d="M312 383c150 0 221 -84 221 -187c0 -98 -66 -196 -208 -196h-251v583h381v-129h-233v-71h90zM303 128c55 0 81 35 81 66c0 32 -25 67 -81 67h-81v-133h81z" />
    <glyph glyph-name="uni0412.c2sc" horiz-adv-x="579" 
d="M422 311c80 -11 117 -76 117 -142c0 -79 -52 -169 -201 -169h-264v583h247c113 0 186 -66 186 -151c0 -37 -15 -100 -85 -121zM310 454h-88v-94h87c29 0 50 15 50 46c0 25 -14 48 -49 48zM322 128c45 0 67 29 67 56c0 25 -19 55 -68 55h-99v-111h100z" />
    <glyph glyph-name="uni0413.c2sc" horiz-adv-x="444" 
d="M74 583h346v-129h-198v-454h-148v583z" />
    <glyph glyph-name="uni0414.c2sc" horiz-adv-x="664" 
d="M573 73h53v-194h-149v121h-307v-121h-148v226h9c64 0 106 61 106 217v261h436v-510zM285 278c0 -56 -12 -116 -46 -150h186v326h-140v-176z" />
    <glyph glyph-name="uni0415.c2sc" horiz-adv-x="524" 
d="M222 128h253v-128h-401v583h393v-129h-245v-101h216v-132h-216v-93z" />
    <glyph glyph-name="uni0401.c2sc" horiz-adv-x="524" 
d="M167 671c-36 0 -68 28 -68 63s32 63 68 63c37 0 67 -28 67 -63s-30 -63 -67 -63zM360 671c-38 0 -69 28 -69 63s31 63 69 63c36 0 64 -28 64 -63s-28 -63 -64 -63zM222 128h253v-128h-401v583h393v-129h-245v-101h216v-132h-216v-93z" />
    <glyph glyph-name="uni0416.c2sc" horiz-adv-x="843" 
d="M855 0h-204l-155 178v-178h-149v177l-155 -177h-203l281 295l-226 288h185l118 -164v164h149v-167l118 167h185l-226 -288z" />
    <glyph glyph-name="uni0417.c2sc" horiz-adv-x="528" 
d="M376 316c72 -25 112 -78 112 -147c0 -104 -95 -176 -245 -176c-96 0 -169 27 -221 86l108 88c32 -22 66 -38 109 -38c62 0 99 20 99 57c0 36 -39 57 -99 57h-73v119h32c75 0 110 17 110 49c0 24 -35 43 -75 43c-39 0 -85 -18 -109 -41l-85 99c56 45 123 79 215 79
c119 0 203 -63 203 -165c0 -45 -28 -86 -81 -110z" />
    <glyph glyph-name="uni0418.c2sc" horiz-adv-x="609" 
d="M401 583h134v-583h-148v305l-184 -305h-129v583h148v-301z" />
    <glyph glyph-name="uni0419.c2sc" horiz-adv-x="609" 
d="M304 667c-69 0 -119 46 -119 112h80c0 -24 8 -42 39 -42s41 13 41 42h79c0 -56 -39 -112 -120 -112zM401 583h134v-583h-148v305l-184 -305h-129v583h148v-301z" />
    <glyph glyph-name="uni041A.c2sc" horiz-adv-x="570" 
d="M582 0h-204l-156 171v-171h-148v583h148v-158l118 158h186l-227 -287z" />
    <glyph glyph-name="uni041B.c2sc" horiz-adv-x="650" 
d="M140 583h436v-583h-148v454h-140v-194c0 -167 -79 -260 -198 -260h-65v128h19c57 0 96 19 96 136v319z" />
    <glyph glyph-name="uni041C.c2sc" horiz-adv-x="818" 
d="M774 0h-152l-37 302l-119 -234h-112l-121 235l-38 -303h-152l75 583h123l168 -347l168 347h124z" />
    <glyph glyph-name="uni041D.c2sc" horiz-adv-x="626" 
d="M404 583h148v-583h-148v223h-182v-223h-148v583h148v-227h182v227z" />
    <glyph glyph-name="uni041E.c2sc" horiz-adv-x="696" 
d="M348 -7c-172 0 -308 134 -308 299s136 299 308 299c171 0 308 -134 308 -299s-137 -299 -308 -299zM347 132c96 0 160 71 160 160c0 90 -64 159 -160 159s-159 -69 -159 -159c0 -89 63 -160 159 -160z" />
    <glyph glyph-name="uni041F.c2sc" horiz-adv-x="614" 
d="M74 583h466v-583h-148v451h-170v-451h-148v583z" />
    <glyph glyph-name="uni0420.c2sc" horiz-adv-x="560" 
d="M324 583c143 0 208 -99 208 -196c0 -99 -65 -195 -208 -195h-102v-192h-148v583h250zM318 320c48 0 65 34 65 67s-17 67 -65 67h-96v-134h96z" />
    <glyph glyph-name="uni0421.c2sc" horiz-adv-x="631" 
d="M346 -6c-170 0 -307 133 -307 299c0 164 137 298 307 298c108 0 204 -55 259 -138l-116 -79c-30 48 -73 76 -136 76c-97 0 -165 -68 -165 -157c0 -88 65 -159 165 -159c63 0 106 28 136 76l116 -79c-55 -82 -151 -137 -259 -137z" />
    <glyph glyph-name="uni0422.c2sc" horiz-adv-x="508" 
d="M484 583v-129h-156v-454h-148v454h-156v129h460z" />
    <glyph glyph-name="uni0423.c2sc" horiz-adv-x="600" 
d="M439 583h165l-313 -583h-162l99 180l-229 403h161l147 -268z" />
    <glyph glyph-name="uni0424.c2sc" horiz-adv-x="788" 
d="M463 538c205 -17 288 -116 287 -248c0 -131 -84 -229 -287 -247v-43h-137v43c-204 17 -288 116 -288 247c0 132 84 231 288 248v45h137v-45zM187 290c0 -50 41 -93 139 -106v213c-98 -13 -139 -56 -139 -107zM601 290c2 51 -39 94 -138 107v-213c98 14 138 56 138 106z
" />
    <glyph glyph-name="uni0425.c2sc" horiz-adv-x="607" 
d="M600 0h-174l-122 192l-123 -192h-174l208 310l-191 273h179l101 -157l101 157h178l-191 -274z" />
    <glyph glyph-name="uni0427.c2sc" horiz-adv-x="582" 
d="M359 583h149v-583h-149v186c-40 -6 -79 -9 -119 -9c-131 0 -197 71 -197 237v169h148v-164c0 -91 39 -107 96 -107c24 0 48 3 72 7v264z" />
    <glyph glyph-name="uni0426.c2sc" horiz-adv-x="630" 
d="M539 73h53v-194h-149v121h-369v583h148v-451h169v451h148v-510z" />
    <glyph glyph-name="uni0428.c2sc" horiz-adv-x="858" 
d="M635 583h149v-583h-710v583h148v-451h133v451h148v-451h132v451z" />
    <glyph glyph-name="uni0429.c2sc" horiz-adv-x="874" 
d="M784 73h52v-194h-149v121h-613v583h148v-451h133v451h148v-451h132v451h149v-510z" />
    <glyph glyph-name="uni042C.c2sc" horiz-adv-x="560" 
d="M312 383c150 0 221 -84 221 -187c0 -98 -66 -196 -208 -196h-251v583h148v-200h90zM303 128c55 0 81 35 81 66c0 32 -25 67 -81 67h-81v-133h81z" />
    <glyph glyph-name="uni042A.c2sc" horiz-adv-x="619" 
d="M371 383c150 0 221 -84 221 -187c0 -98 -66 -196 -208 -196h-251v454h-108v129h256v-200h90zM361 128c56 0 82 35 82 66c0 32 -25 67 -81 67h-81v-133h80z" />
    <glyph glyph-name="uni042B.c2sc" horiz-adv-x="843" 
d="M312 383c150 0 221 -84 221 -187c0 -98 -66 -196 -208 -196h-251v583h148v-200h90zM620 583h148v-583h-148v583zM303 128c55 0 81 35 81 66c0 32 -25 67 -81 67h-81v-133h81z" />
    <glyph glyph-name="uni042D.c2sc" horiz-adv-x="637" 
d="M291 591c170 0 307 -134 307 -298c0 -166 -137 -299 -307 -299c-108 0 -203 55 -259 137l116 79c30 -48 73 -76 136 -76c71 0 124 35 149 87h-223v132h228c-23 58 -80 97 -154 97c-63 0 -106 -28 -136 -76l-116 79c56 83 151 138 259 138z" />
    <glyph glyph-name="uni042E.c2sc" horiz-adv-x="944" 
d="M597 591c170 0 308 -134 308 -299s-138 -299 -308 -299c-148 0 -268 98 -300 230h-75v-223h-148v583h148v-227h74c30 134 151 235 301 235zM596 132c96 0 160 71 160 160c0 90 -64 159 -160 159s-159 -69 -159 -159c0 -89 63 -160 159 -160z" />
    <glyph glyph-name="uni042F.c2sc" horiz-adv-x="581" 
d="M256 583h251v-583h-148v200h-18l-135 -200h-172l154 210c-95 25 -139 95 -139 177c0 97 65 196 207 196zM278 315h81v139h-80c-56 0 -81 -41 -81 -72s25 -67 80 -67z" />
    <glyph glyph-name="uni0430" unicode="&#x430;" horiz-adv-x="616" 
d="M407 466h147v-466h-147v53c-34 -44 -97 -62 -145 -62c-116 0 -226 92 -226 243s110 243 226 243c48 0 111 -18 145 -62v51zM294 129c57 0 107 45 107 105s-51 105 -107 105c-58 0 -108 -46 -108 -105s50 -105 108 -105z" />
    <glyph glyph-name="uni0431" unicode="&#x431;" horiz-adv-x="587" 
d="M336 451c111 0 214 -86 214 -227c0 -140 -103 -233 -253 -233c-151 0 -254 116 -254 302c0 170 65 329 244 369c44 10 77 35 87 54l112 -72c-8 -33 -42 -72 -116 -94c-127 -29 -165 -90 -174 -161c27 37 90 62 140 62zM297 122c60 0 103 40 103 102s-43 103 -103 103
c-61 0 -103 -41 -103 -103c0 -61 42 -102 103 -102z" />
    <glyph glyph-name="uni0432" unicode="&#x432;" horiz-adv-x="556" 
d="M419 248c54 -6 102 -52 102 -112c0 -62 -34 -136 -173 -136h-286v466h284c100 0 149 -56 149 -116c0 -28 -9 -89 -76 -102zM320 339h-110v-52h110c18 0 30 8 30 25c0 16 -11 27 -30 27zM329 132c26 0 41 10 41 28s-15 31 -41 31h-119v-59h119z" />
    <glyph glyph-name="uni0433" unicode="&#x433;" horiz-adv-x="422" 
d="M62 466h339v-137h-191v-329h-148v466z" />
    <glyph glyph-name="uni0434" unicode="&#x434;" horiz-adv-x="579" 
d="M499 78h45v-194h-149v116h-228v-116h-147v223h7c54 0 90 49 90 180v179h382v-388zM265 247c0 -43 -10 -89 -40 -118h126v200h-86v-82z" />
    <glyph glyph-name="uni0435" unicode="&#x435;" horiz-adv-x="565" 
d="M533 243c0 -13 -1 -30 -3 -53h-341c14 -44 53 -70 109 -70c44 0 88 17 118 45l76 -96c-46 -50 -126 -78 -205 -78c-147 0 -252 99 -252 241c0 152 118 246 252 246c133 0 246 -93 246 -235zM188 277h197c-1 46 -42 76 -95 76c-45 0 -87 -20 -102 -76z" />
    <glyph glyph-name="uni0451" unicode="&#x451;" horiz-adv-x="565" 
d="M175 565c-41 0 -75 31 -75 71c0 39 34 70 75 70s73 -31 73 -70c0 -40 -32 -71 -73 -71zM389 565c-42 0 -76 31 -76 71c0 39 34 70 76 70c40 0 73 -31 73 -70c0 -40 -33 -71 -73 -71zM533 243c0 -13 -1 -30 -3 -53h-341c14 -44 53 -70 109 -70c44 0 88 17 118 45l76 -96
c-46 -50 -126 -78 -205 -78c-147 0 -252 99 -252 241c0 152 118 246 252 246c133 0 246 -93 246 -235zM188 277h197c-1 46 -42 76 -95 76c-45 0 -87 -20 -102 -76z" />
    <glyph glyph-name="uni0436" unicode="&#x436;" horiz-adv-x="741" 
d="M753 0h-204l-112 136v-136h-133v142l-112 -142h-204l241 243l-192 223h186l81 -120v120h133v-116l80 116h187l-193 -223z" />
    <glyph glyph-name="uni0437" unicode="&#x437;" horiz-adv-x="462" 
d="M343 254c59 -22 86 -67 86 -115c0 -85 -91 -148 -221 -148c-81 0 -142 24 -188 77l89 71c28 -23 63 -34 98 -34c50 0 72 29 72 50c0 25 -25 44 -69 44h-67v88h50c45 0 61 17 61 37s-21 38 -59 38c-33 0 -70 -15 -91 -31l-71 82c49 38 104 65 186 65
c101 0 185 -53 185 -138c-1 -33 -20 -67 -61 -86z" />
    <glyph glyph-name="uni0438" unicode="&#x438;" horiz-adv-x="565" 
d="M373 466h130v-466h-148v231l-167 -231h-126v466h148v-223z" />
    <glyph glyph-name="uni0439" unicode="&#x439;" horiz-adv-x="565" 
d="M262 565c-92 0 -135 66 -135 132h87c0 -34 13 -52 48 -52s47 24 47 52h89c0 -79 -57 -132 -136 -132zM373 466h130v-466h-148v231l-167 -231h-126v466h148v-223z" />
    <glyph glyph-name="uni043A" unicode="&#x43a;" horiz-adv-x="499" 
d="M511 0h-191l-115 142v-142h-143v466h143v-141l84 141h172l-157 -221z" />
    <glyph glyph-name="uni043B" unicode="&#x43b;" horiz-adv-x="574" 
d="M121 466h391v-466h-148v329h-95v-95c0 -153 -69 -234 -173 -234h-72v128h19c47 0 78 10 78 109v229z" />
    <glyph glyph-name="uni043C" unicode="&#x43c;" horiz-adv-x="698" 
d="M661 0h-154l-25 217l-79 -158h-108l-80 159l-25 -218h-154l64 466h114l135 -259l132 259h118z" />
    <glyph glyph-name="uni043D" unicode="&#x43d;" horiz-adv-x="577" 
d="M367 466h148v-466h-148v165h-157v-165h-148v466h148v-169h157v169z" />
    <glyph glyph-name="uni043E" unicode="&#x43e;" horiz-adv-x="576" 
d="M288 -9c-133 0 -253 96 -253 243c0 148 120 244 253 244s254 -96 254 -244c0 -147 -121 -243 -254 -243zM288 128c57 0 103 42 103 106s-46 107 -103 107s-103 -43 -103 -107s46 -106 103 -106z" />
    <glyph glyph-name="uni043F" unicode="&#x43f;" horiz-adv-x="564" 
d="M62 466h440v-466h-148v329h-144v-329h-148v466z" />
    <glyph glyph-name="uni0440" unicode="&#x440;" horiz-adv-x="616" 
d="M354 478c117 0 227 -93 227 -243c0 -151 -110 -243 -227 -243c-48 0 -110 18 -144 61v-283h-148v696h148v-50c34 44 96 62 144 62zM323 129c58 0 108 46 108 106c0 59 -50 105 -108 105c-57 0 -108 -45 -108 -105c0 -61 52 -106 108 -106z" />
    <glyph glyph-name="uni0441" unicode="&#x441;" horiz-adv-x="522" 
d="M292 -9c-136 0 -257 96 -257 244s121 243 257 243c90 0 159 -44 204 -110l-114 -72c-19 28 -57 45 -89 45c-68 0 -108 -48 -108 -106c0 -59 40 -107 108 -107c32 0 70 17 89 45l114 -72c-45 -66 -114 -110 -204 -110z" />
    <glyph glyph-name="uni0442" unicode="&#x442;" horiz-adv-x="463" 
d="M441 466v-137h-136v-329h-147v329h-136v137h419z" />
    <glyph glyph-name="uni0443" unicode="&#x443;" horiz-adv-x="516" 
d="M357 466h159l-288 -696h-158l115 285l-184 411h164l97 -241z" />
    <glyph glyph-name="uni0444" unicode="&#x444;" horiz-adv-x="716" 
d="M682 231c0 -126 -81 -219 -256 -238v-210h-135v210c-176 19 -257 112 -257 238c0 127 81 223 257 243v238h135v-239c176 -19 256 -115 256 -242zM185 231c0 -49 34 -85 106 -99v202c-72 -14 -106 -53 -106 -103zM531 231c1 50 -32 89 -105 103v-201c72 13 105 49 105 98z
" />
    <glyph glyph-name="uni0445" unicode="&#x445;" horiz-adv-x="532" 
d="M531 0h-172l-93 136l-93 -136h-173l184 252l-154 214h173l65 -95l62 95h172l-154 -214z" />
    <glyph glyph-name="uni0447" unicode="&#x447;" horiz-adv-x="534" 
d="M324 466h148v-466h-148v142c-42 -5 -92 -8 -125 -8c-110 0 -165 61 -165 199v133h148v-130c0 -61 34 -68 70 -68c17 0 46 2 72 4v194z" />
    <glyph glyph-name="uni0446" unicode="&#x446;" horiz-adv-x="581" 
d="M472 137h69v-253h-139v116h-340v466h148v-329h115v329h147v-329z" />
    <glyph glyph-name="uni0448" unicode="&#x448;" horiz-adv-x="726" 
d="M516 466h148v-466h-602v466h148v-329h84v329h139v-329h83v329z" />
    <glyph glyph-name="uni0449" unicode="&#x449;" horiz-adv-x="768" 
d="M664 137h64v-253h-139v116h-527v466h148v-329h79v329h148v-329h79v329h148v-329z" />
    <glyph glyph-name="uni044C" unicode="&#x44c;" horiz-adv-x="500" 
d="M299 318c110 0 179 -63 179 -155c0 -96 -69 -163 -178 -163h-238v466h148v-148h89zM288 129c28 0 41 12 41 31c0 20 -13 34 -41 34h-78v-65h78z" />
    <glyph glyph-name="uni044A" unicode="&#x44a;" horiz-adv-x="554" 
d="M353 318c110 0 178 -63 178 -155c0 -96 -68 -163 -177 -163h-238v341h-90v125h237v-148h90zM341 129c29 0 41 12 41 31c0 20 -12 34 -41 34h-78v-65h78z" />
    <glyph glyph-name="uni044B" unicode="&#x44b;" horiz-adv-x="746" 
d="M299 318c110 0 179 -63 179 -155c0 -96 -69 -163 -178 -163h-238v466h148v-148h89zM536 466h147v-466h-147v466zM288 129c28 0 41 12 41 31c0 20 -13 34 -41 34h-78v-65h78z" />
    <glyph glyph-name="uni044D" unicode="&#x44d;" horiz-adv-x="517" 
d="M228 478c149 0 254 -104 254 -243c0 -140 -105 -244 -254 -244c-77 0 -155 27 -201 74l74 98c30 -26 73 -43 117 -43c52 0 88 24 105 62h-159v102h160c-16 39 -54 65 -106 65c-44 0 -87 -17 -117 -44l-74 99c46 46 124 74 201 74z" />
    <glyph glyph-name="uni044E" unicode="&#x44e;" horiz-adv-x="794" 
d="M506 478c133 0 253 -96 253 -244c0 -147 -120 -243 -253 -243c-111 0 -211 67 -241 174h-55v-165h-148v466h148v-169h54c27 112 129 181 242 181zM506 128c57 0 103 42 103 106s-46 107 -103 107c-58 0 -104 -43 -104 -107s46 -106 104 -106z" />
    <glyph glyph-name="uni044F" unicode="&#x44f;" horiz-adv-x="512" 
d="M229 466h221v-466h-148v155l-104 -155h-171l127 164c-77 21 -110 75 -110 142c0 80 60 160 185 160zM244 331c-41 0 -50 -20 -50 -38c0 -19 9 -42 51 -42h57v80h-58z" />
    <glyph glyph-name="uni0430.smcp" horiz-adv-x="602" 
d="M447 0l-43 132h-205l-42 -132h-159l222 583h162l221 -583h-156zM240 260h122l-62 188z" />
    <glyph glyph-name="uni0431.smcp" horiz-adv-x="568" 
d="M312 383c150 0 221 -84 221 -187c0 -98 -66 -196 -208 -196h-251v583h381v-129h-233v-71h90zM303 128c55 0 81 35 81 66c0 32 -25 67 -81 67h-81v-133h81z" />
    <glyph glyph-name="uni0432.smcp" horiz-adv-x="579" 
d="M422 311c80 -11 117 -76 117 -142c0 -79 -52 -169 -201 -169h-264v583h247c113 0 186 -66 186 -151c0 -37 -15 -100 -85 -121zM310 454h-88v-94h87c29 0 50 15 50 46c0 25 -14 48 -49 48zM322 128c45 0 67 29 67 56c0 25 -19 55 -68 55h-99v-111h100z" />
    <glyph glyph-name="uni0433.smcp" horiz-adv-x="444" 
d="M74 583h346v-129h-198v-454h-148v583z" />
    <glyph glyph-name="uni0434.smcp" horiz-adv-x="664" 
d="M573 73h53v-194h-149v121h-307v-121h-148v226h9c64 0 106 61 106 217v261h436v-510zM285 278c0 -56 -12 -116 -46 -150h186v326h-140v-176z" />
    <glyph glyph-name="uni0435.smcp" horiz-adv-x="524" 
d="M222 128h253v-128h-401v583h393v-129h-245v-101h216v-132h-216v-93z" />
    <glyph glyph-name="uni0451.smcp" horiz-adv-x="524" 
d="M167 671c-36 0 -68 28 -68 63s32 63 68 63c37 0 67 -28 67 -63s-30 -63 -67 -63zM360 671c-38 0 -69 28 -69 63s31 63 69 63c36 0 64 -28 64 -63s-28 -63 -64 -63zM222 128h253v-128h-401v583h393v-129h-245v-101h216v-132h-216v-93z" />
    <glyph glyph-name="uni0436.smcp" horiz-adv-x="843" 
d="M855 0h-204l-155 178v-178h-149v177l-155 -177h-203l281 295l-226 288h185l118 -164v164h149v-167l118 167h185l-226 -288z" />
    <glyph glyph-name="uni0437.smcp" horiz-adv-x="528" 
d="M376 316c72 -25 112 -78 112 -147c0 -104 -95 -176 -245 -176c-96 0 -169 27 -221 86l108 88c32 -22 66 -38 109 -38c62 0 99 20 99 57c0 36 -39 57 -99 57h-73v119h32c75 0 110 17 110 49c0 24 -35 43 -75 43c-39 0 -85 -18 -109 -41l-85 99c56 45 123 79 215 79
c119 0 203 -63 203 -165c0 -45 -28 -86 -81 -110z" />
    <glyph glyph-name="uni0438.smcp" horiz-adv-x="609" 
d="M401 583h134v-583h-148v305l-184 -305h-129v583h148v-301z" />
    <glyph glyph-name="uni0439.smcp" horiz-adv-x="609" 
d="M304 667c-69 0 -119 46 -119 112h80c0 -24 8 -42 39 -42s41 13 41 42h79c0 -56 -39 -112 -120 -112zM401 583h134v-583h-148v305l-184 -305h-129v583h148v-301z" />
    <glyph glyph-name="uni043A.smcp" horiz-adv-x="570" 
d="M582 0h-204l-156 171v-171h-148v583h148v-158l118 158h186l-227 -287z" />
    <glyph glyph-name="uni043B.smcp" horiz-adv-x="650" 
d="M140 583h436v-583h-148v454h-140v-194c0 -167 -79 -260 -198 -260h-65v128h19c57 0 96 19 96 136v319z" />
    <glyph glyph-name="uni043C.smcp" horiz-adv-x="818" 
d="M774 0h-152l-37 302l-119 -234h-112l-121 235l-38 -303h-152l75 583h123l168 -347l168 347h124z" />
    <glyph glyph-name="uni043D.smcp" horiz-adv-x="626" 
d="M404 583h148v-583h-148v223h-182v-223h-148v583h148v-227h182v227z" />
    <glyph glyph-name="uni043E.smcp" horiz-adv-x="696" 
d="M348 -7c-172 0 -308 134 -308 299s136 299 308 299c171 0 308 -134 308 -299s-137 -299 -308 -299zM347 132c96 0 160 71 160 160c0 90 -64 159 -160 159s-159 -69 -159 -159c0 -89 63 -160 159 -160z" />
    <glyph glyph-name="uni043F.smcp" horiz-adv-x="614" 
d="M74 583h466v-583h-148v451h-170v-451h-148v583z" />
    <glyph glyph-name="uni0440.smcp" horiz-adv-x="560" 
d="M324 583c143 0 208 -99 208 -196c0 -99 -65 -195 -208 -195h-102v-192h-148v583h250zM318 320c48 0 65 34 65 67s-17 67 -65 67h-96v-134h96z" />
    <glyph glyph-name="uni0441.smcp" horiz-adv-x="631" 
d="M346 -6c-170 0 -307 133 -307 299c0 164 137 298 307 298c108 0 204 -55 259 -138l-116 -79c-30 48 -73 76 -136 76c-97 0 -165 -68 -165 -157c0 -88 65 -159 165 -159c63 0 106 28 136 76l116 -79c-55 -82 -151 -137 -259 -137z" />
    <glyph glyph-name="uni0442.smcp" horiz-adv-x="508" 
d="M484 583v-129h-156v-454h-148v454h-156v129h460z" />
    <glyph glyph-name="uni0443.smcp" horiz-adv-x="600" 
d="M439 583h165l-313 -583h-162l99 180l-229 403h161l147 -268z" />
    <glyph glyph-name="uni0444.smcp" horiz-adv-x="788" 
d="M463 538c205 -17 288 -116 287 -248c0 -131 -84 -229 -287 -247v-43h-137v43c-204 17 -288 116 -288 247c0 132 84 231 288 248v45h137v-45zM187 290c0 -50 41 -93 139 -106v213c-98 -13 -139 -56 -139 -107zM601 290c2 51 -39 94 -138 107v-213c98 14 138 56 138 106z
" />
    <glyph glyph-name="uni0445.smcp" horiz-adv-x="607" 
d="M600 0h-174l-122 192l-123 -192h-174l208 310l-191 273h179l101 -157l101 157h178l-191 -274z" />
    <glyph glyph-name="uni0447.smcp" horiz-adv-x="582" 
d="M359 583h149v-583h-149v186c-40 -6 -79 -9 -119 -9c-131 0 -197 71 -197 237v169h148v-164c0 -91 39 -107 96 -107c24 0 48 3 72 7v264z" />
    <glyph glyph-name="uni0446.smcp" horiz-adv-x="630" 
d="M539 73h53v-194h-149v121h-369v583h148v-451h169v451h148v-510z" />
    <glyph glyph-name="uni0448.smcp" horiz-adv-x="858" 
d="M635 583h149v-583h-710v583h148v-451h133v451h148v-451h132v451z" />
    <glyph glyph-name="uni0449.smcp" horiz-adv-x="874" 
d="M784 73h52v-194h-149v121h-613v583h148v-451h133v451h148v-451h132v451h149v-510z" />
    <glyph glyph-name="uni044C.smcp" horiz-adv-x="560" 
d="M312 383c150 0 221 -84 221 -187c0 -98 -66 -196 -208 -196h-251v583h148v-200h90zM303 128c55 0 81 35 81 66c0 32 -25 67 -81 67h-81v-133h81z" />
    <glyph glyph-name="uni044A.smcp" horiz-adv-x="619" 
d="M371 383c150 0 221 -84 221 -187c0 -98 -66 -196 -208 -196h-251v454h-108v129h256v-200h90zM361 128c56 0 82 35 82 66c0 32 -25 67 -81 67h-81v-133h80z" />
    <glyph glyph-name="uni044B.smcp" horiz-adv-x="843" 
d="M312 383c150 0 221 -84 221 -187c0 -98 -66 -196 -208 -196h-251v583h148v-200h90zM620 583h148v-583h-148v583zM303 128c55 0 81 35 81 66c0 32 -25 67 -81 67h-81v-133h81z" />
    <glyph glyph-name="uni044D.smcp" horiz-adv-x="637" 
d="M291 591c170 0 307 -134 307 -298c0 -166 -137 -299 -307 -299c-108 0 -203 55 -259 137l116 79c30 -48 73 -76 136 -76c71 0 124 35 149 87h-223v132h228c-23 58 -80 97 -154 97c-63 0 -106 -28 -136 -76l-116 79c56 83 151 138 259 138z" />
    <glyph glyph-name="uni044E.smcp" horiz-adv-x="944" 
d="M597 591c170 0 308 -134 308 -299s-138 -299 -308 -299c-148 0 -268 98 -300 230h-75v-223h-148v583h148v-227h74c30 134 151 235 301 235zM596 132c96 0 160 71 160 160c0 90 -64 159 -160 159s-159 -69 -159 -159c0 -89 63 -160 159 -160z" />
    <glyph glyph-name="uni044F.smcp" horiz-adv-x="581" 
d="M256 583h251v-583h-148v200h-18l-135 -200h-172l154 210c-95 25 -139 95 -139 177c0 97 65 196 207 196zM278 315h81v139h-80c-56 0 -81 -41 -81 -72s25 -67 80 -67z" />
    <glyph glyph-name="uni0394" unicode="&#x394;" horiz-adv-x="681" 
d="M426 689l254 -689h-680l255 689h171zM211 136h259l-131 401z" />
    <glyph glyph-name="uni03A9" unicode="&#x3a9;" horiz-adv-x="836" 
d="M670 141h111v-141h-315v123c78 25 146 115 146 223c0 115 -78 204 -194 204c-115 0 -194 -89 -194 -204c0 -108 68 -198 146 -223v-123h-315v141h111c-52 36 -99 125 -99 218c0 195 154 339 351 339s351 -144 351 -339c0 -93 -47 -182 -99 -218z" />
    <glyph glyph-name="uni0394.c2sc" horiz-adv-x="650" 
d="M407 583l221 -583h-606l223 583h162zM223 127h207l-105 321z" />
    <glyph glyph-name="uni03A9.c2sc" horiz-adv-x="737" 
d="M599 131h91v-131h-281v115c65 20 120 89 120 176c0 89 -64 160 -161 160c-96 0 -159 -71 -159 -160c0 -87 54 -156 119 -176v-115h-281v131h91c-40 28 -78 99 -78 174c0 165 136 286 308 286c174 0 310 -121 310 -286c0 -75 -38 -146 -79 -174z" />
    <glyph glyph-name="pi" unicode="&#x3c0;" horiz-adv-x="631" 
d="M589 329h-71v-138c0 -55 14 -79 58 -79v-121h-21c-45 0 -185 14 -185 152v186h-108v-329h-148v329h-82v137h557v-137z" />
    <glyph glyph-name="delta.smcp" horiz-adv-x="650" 
d="M407 583l221 -583h-606l223 583h162zM223 127h207l-105 321z" />
    <glyph glyph-name="omega.smcp" horiz-adv-x="737" 
d="M599 131h91v-131h-281v115c65 20 120 89 120 176c0 89 -64 160 -161 160c-96 0 -159 -71 -159 -160c0 -87 54 -156 119 -176v-115h-281v131h91c-40 28 -78 99 -78 174c0 165 136 286 308 286c174 0 310 -121 310 -286c0 -75 -38 -146 -79 -174z" />
    <glyph glyph-name="zero" unicode="0" horiz-adv-x="589" 
d="M296 -9c-192 0 -247 148 -247 336c0 189 55 338 247 338c191 0 244 -149 244 -338c0 -188 -53 -336 -244 -336zM296 128c71 0 93 86 93 199c0 114 -22 202 -93 202c-72 0 -97 -88 -97 -202c0 -113 25 -199 97 -199z" />
    <glyph glyph-name="one" unicode="1" horiz-adv-x="409" 
d="M316 665h13v-665h-147v469l-157 -59v136z" />
    <glyph glyph-name="two" unicode="2" horiz-adv-x="548" 
d="M276 137h221v-137h-453v83l260 312c23 26 36 52 36 72c0 36 -31 62 -76 62c-52 0 -80 -38 -88 -94l-135 21c18 123 93 209 231 209c134 0 219 -80 219 -200c0 -67 -29 -119 -70 -165z" />
    <glyph glyph-name="three" unicode="3" horiz-adv-x="532" 
d="M371 354c72 -27 118 -87 118 -164c0 -118 -103 -199 -248 -199c-94 0 -167 35 -216 106l98 83c32 -35 65 -56 111 -56c63 0 103 33 103 80c0 48 -41 83 -103 83h-60v109h26c73 0 112 38 108 80c-3 33 -34 54 -77 54c-40 0 -84 -19 -109 -50l-76 95c51 52 117 90 205 90
c116 0 211 -70 208 -183c0 -53 -33 -100 -88 -128z" />
    <glyph glyph-name="four" unicode="4" horiz-adv-x="609" 
d="M572 252v-130h-103v-122h-151v122h-309v46l357 488h103v-404h103zM210 252h108v152z" />
    <glyph glyph-name="five" unicode="5" horiz-adv-x="580" 
d="M323 454c127 0 215 -98 215 -223c0 -152 -127 -240 -263 -240c-90 0 -195 52 -238 128l113 79c20 -41 78 -69 118 -69c72 0 120 41 120 103c0 58 -45 101 -111 101c-50 0 -102 -23 -138 -57l-86 50l57 331h383v-136h-260l-22 -98c30 19 69 31 112 31z" />
    <glyph glyph-name="six" unicode="6" horiz-adv-x="594" 
d="M330 421c132 0 219 -93 219 -207c0 -131 -98 -223 -246 -223c-149 0 -257 122 -257 312c0 209 105 362 280 362c90 0 176 -47 214 -128l-116 -70c-17 39 -56 62 -96 62c-77 0 -128 -63 -135 -157c31 29 76 49 137 49zM304 128c58 0 97 35 97 86c0 50 -39 85 -95 86
c-59 0 -99 -35 -99 -85c0 -51 39 -87 97 -87z" />
    <glyph glyph-name="seven" unicode="7" horiz-adv-x="524" 
d="M32 656h484v-15l-269 -641h-170l220 519h-265v137z" />
    <glyph glyph-name="eight" unicode="8" horiz-adv-x="596" 
d="M433 364c70 -19 123 -84 123 -167c0 -124 -116 -206 -258 -206c-141 0 -258 82 -258 206c0 83 53 148 124 167c-41 17 -78 67 -78 131c0 104 95 170 212 170s212 -66 212 -170c0 -64 -36 -114 -77 -131zM298 541c-41 0 -72 -30 -72 -64s31 -63 72 -63c42 0 73 29 73 63
s-31 64 -73 64zM298 122c63 0 106 38 106 89c0 52 -43 91 -106 91s-106 -39 -106 -91c0 -51 44 -89 106 -89z" />
    <glyph glyph-name="nine" unicode="9" horiz-adv-x="595" 
d="M292 665c149 0 257 -125 257 -312c0 -209 -105 -362 -280 -362c-90 0 -176 47 -214 129l115 69c18 -39 56 -61 97 -61c76 0 127 62 135 155c-32 -29 -76 -48 -137 -48c-132 0 -219 94 -219 208c0 131 98 222 246 222zM289 356c58 0 98 35 99 86c0 51 -39 86 -98 86
c-57 0 -96 -35 -96 -86c0 -50 39 -85 95 -86z" />
    <glyph glyph-name="zero.Circled" horiz-adv-x="738" 
d="M369 -3c-187 0 -339 153 -339 340s152 339 339 339s339 -152 339 -339s-152 -340 -339 -340zM369 42c163 0 295 132 295 295s-132 295 -295 295s-295 -132 -295 -295s132 -295 295 -295zM369 155c-105 0 -134 81 -134 181c0 102 29 184 134 184c106 0 135 -82 135 -184
c0 -100 -29 -181 -135 -181zM369 230c42 0 53 49 53 106c0 58 -11 108 -53 108c-41 0 -52 -50 -52 -108c0 -57 11 -106 52 -106z" />
    <glyph glyph-name="one.Circled" horiz-adv-x="738" 
d="M369 678c187 0 339 -152 339 -339s-152 -339 -339 -339s-339 152 -339 339s152 339 339 339zM369 44c163 0 295 132 295 295s-132 295 -295 295s-295 -132 -295 -295s132 -295 295 -295zM261 456l154 64h4v-361h-81v248l-77 -28v77z" />
    <glyph glyph-name="two.Circled" horiz-adv-x="738" 
d="M369 678c187 0 339 -152 339 -339s-152 -339 -339 -339s-339 152 -339 339s152 339 339 339zM369 44c163 0 295 132 295 295s-132 295 -295 295s-295 -132 -295 -295s132 -295 295 -295zM446 314l-66 -77h115v-78h-246l1 41l123 152c21 25 33 40 33 61
c0 17 -15 31 -41 31c-33 0 -50 -22 -48 -51l-73 14c5 66 47 113 122 113s122 -46 122 -113c0 -28 -19 -65 -42 -93z" />
    <glyph glyph-name="three.Circled" horiz-adv-x="738" 
d="M369 676c187 0 339 -152 339 -339s-152 -340 -339 -340s-339 153 -339 340s152 339 339 339zM369 42c163 0 295 132 295 295s-132 295 -295 295s-295 -132 -295 -295s132 -295 295 -295zM436 350c35 -14 56 -45 56 -83c0 -67 -50 -113 -125 -113c-52 0 -100 25 -121 64
l62 42c11 -18 33 -30 55 -30c29 0 47 15 47 38c0 28 -23 46 -59 46h-24v62h13c35 0 57 17 56 43c0 19 -19 30 -36 30c-21 0 -39 -8 -51 -21l-44 47c19 26 60 45 106 45c62 0 107 -38 107 -100c0 -31 -16 -57 -42 -70z" />
    <glyph glyph-name="four.Circled" horiz-adv-x="738" 
d="M369 678c187 0 339 -152 339 -339s-152 -339 -339 -339s-339 152 -339 339s152 339 339 339zM369 44c163 0 295 132 295 295s-132 295 -295 295s-295 -132 -295 -295s132 -295 295 -295zM435 518v-221h49v-69h-49v-67h-81v67h-170v20l226 270h25zM300 297h54v66z" />
    <glyph glyph-name="five.Circled" horiz-adv-x="738" 
d="M369 676c187 0 339 -152 339 -339s-152 -340 -339 -340s-339 153 -339 340s152 339 339 339zM369 42c163 0 295 132 295 295s-132 295 -295 295s-295 -132 -295 -295s132 -295 295 -295zM390 406c71 0 115 -49 115 -121c0 -79 -60 -129 -137 -129c-61 0 -112 34 -134 79
l64 37c12 -23 36 -40 65 -40c36 0 60 21 60 51c0 34 -22 54 -55 54c-28 0 -51 -13 -72 -36l-52 36l31 181h207v-76h-140l-12 -54c15 11 36 18 60 18z" />
    <glyph glyph-name="six.Circled" horiz-adv-x="738" 
d="M369 678c187 0 339 -152 339 -339s-152 -339 -339 -339s-339 152 -339 339s152 339 339 339zM369 44c163 0 295 132 295 295s-132 295 -295 295s-295 -132 -295 -295s132 -295 295 -295zM387 405c72 0 119 -53 119 -116c0 -71 -57 -119 -133 -119c-85 0 -143 62 -143 175
c0 133 78 191 149 191c46 0 95 -26 119 -64l-63 -45c-16 24 -37 33 -53 33c-29 0 -68 -25 -71 -85c16 17 40 30 76 30zM369 246c29 0 48 25 48 47c0 20 -16 46 -48 45c-30 0 -50 -20 -50 -44c0 -27 22 -48 50 -48z" />
    <glyph glyph-name="seven.Circled" horiz-adv-x="738" 
d="M369 678c187 0 339 -152 339 -339s-152 -339 -339 -339s-339 152 -339 339s152 339 339 339zM369 44c163 0 295 132 295 295s-132 295 -295 295s-295 -132 -295 -295s132 -295 295 -295zM235 440v76h267v-6l-160 -350h-96l127 280h-138z" />
    <glyph glyph-name="eight.Circled" horiz-adv-x="738" 
d="M369 678c187 0 339 -152 339 -339s-152 -339 -339 -339s-339 152 -339 339s152 339 339 339zM369 44c163 0 295 132 295 295s-132 295 -295 295s-295 -132 -295 -295s132 -295 295 -295zM453 371c36 -15 59 -51 59 -96c0 -68 -58 -113 -142 -113c-85 0 -144 45 -144 112
c0 45 24 82 61 97c-20 14 -32 36 -32 61c0 57 47 95 115 95c67 0 114 -38 114 -95c0 -25 -12 -48 -31 -61zM369 459c-22 0 -37 -14 -37 -35c0 -20 15 -35 37 -35s38 15 38 35c0 21 -16 35 -38 35zM367 236c35 0 57 20 57 49s-22 49 -57 49c-32 0 -53 -20 -53 -49
s21 -49 53 -49z" />
    <glyph glyph-name="nine.Circled" horiz-adv-x="738" 
d="M369 678c187 0 339 -152 339 -339s-152 -339 -339 -339s-339 152 -339 339s152 339 339 339zM369 44c163 0 295 132 295 295s-132 295 -295 295s-295 -132 -295 -295s132 -295 295 -295zM365 518c85 0 142 -63 142 -173c0 -134 -77 -193 -148 -193c-46 0 -96 26 -119 64
l63 45c16 -24 37 -33 53 -33c28 0 67 25 70 86c-15 -18 -39 -31 -75 -31c-73 0 -120 53 -120 116c0 71 58 119 134 119zM369 350c29 0 50 20 49 44c0 27 -21 48 -49 48c-29 0 -49 -25 -49 -47c0 -20 16 -45 49 -45z" />
    <glyph glyph-name="zero.lf" horiz-adv-x="589" 
d="M296 -9c-192 0 -247 148 -247 336c0 189 55 338 247 338c191 0 244 -149 244 -338c0 -188 -53 -336 -244 -336zM296 128c71 0 93 86 93 199c0 114 -22 202 -93 202c-72 0 -97 -88 -97 -202c0 -113 25 -199 97 -199z" />
    <glyph glyph-name="one.lf" horiz-adv-x="409" 
d="M316 665h13v-665h-147v469l-157 -59v136z" />
    <glyph glyph-name="two.lf" horiz-adv-x="548" 
d="M276 137h221v-137h-453v83l260 312c23 26 36 52 36 72c0 36 -31 62 -76 62c-52 0 -80 -38 -88 -94l-135 21c18 123 93 209 231 209c134 0 219 -80 219 -200c0 -67 -29 -119 -70 -165z" />
    <glyph glyph-name="three.lf" horiz-adv-x="532" 
d="M371 354c72 -27 118 -87 118 -164c0 -118 -103 -199 -248 -199c-94 0 -167 35 -216 106l98 83c32 -35 65 -56 111 -56c63 0 103 33 103 80c0 48 -41 83 -103 83h-60v109h26c73 0 112 38 108 80c-3 33 -34 54 -77 54c-40 0 -84 -19 -109 -50l-76 95c51 52 117 90 205 90
c116 0 211 -70 208 -183c0 -53 -33 -100 -88 -128z" />
    <glyph glyph-name="four.lf" horiz-adv-x="609" 
d="M572 252v-130h-103v-122h-151v122h-309v46l357 488h103v-404h103zM210 252h108v152z" />
    <glyph glyph-name="five.lf" horiz-adv-x="580" 
d="M323 454c127 0 215 -98 215 -223c0 -152 -127 -240 -263 -240c-90 0 -195 52 -238 128l113 79c20 -41 78 -69 118 -69c72 0 120 41 120 103c0 58 -45 101 -111 101c-50 0 -102 -23 -138 -57l-86 50l57 331h383v-136h-260l-22 -98c30 19 69 31 112 31z" />
    <glyph glyph-name="six.lf" horiz-adv-x="594" 
d="M330 421c132 0 219 -93 219 -207c0 -131 -98 -223 -246 -223c-149 0 -257 122 -257 312c0 209 105 362 280 362c90 0 176 -47 214 -128l-116 -70c-17 39 -56 62 -96 62c-77 0 -128 -63 -135 -157c31 29 76 49 137 49zM304 128c58 0 97 35 97 86c0 50 -39 85 -95 86
c-59 0 -99 -35 -99 -85c0 -51 39 -87 97 -87z" />
    <glyph glyph-name="seven.lf" horiz-adv-x="524" 
d="M32 656h484v-15l-269 -641h-170l220 519h-265v137z" />
    <glyph glyph-name="eight.lf" horiz-adv-x="596" 
d="M433 364c70 -19 123 -84 123 -167c0 -124 -116 -206 -258 -206c-141 0 -258 82 -258 206c0 83 53 148 124 167c-41 17 -78 67 -78 131c0 104 95 170 212 170s212 -66 212 -170c0 -64 -36 -114 -77 -131zM298 541c-41 0 -72 -30 -72 -64s31 -63 72 -63c42 0 73 29 73 63
s-31 64 -73 64zM298 122c63 0 106 38 106 89c0 52 -43 91 -106 91s-106 -39 -106 -91c0 -51 44 -89 106 -89z" />
    <glyph glyph-name="nine.lf" horiz-adv-x="595" 
d="M292 665c149 0 257 -125 257 -312c0 -209 -105 -362 -280 -362c-90 0 -176 47 -214 129l115 69c18 -39 56 -61 97 -61c76 0 127 62 135 155c-32 -29 -76 -48 -137 -48c-132 0 -219 94 -219 208c0 131 98 222 246 222zM289 356c58 0 98 35 99 86c0 51 -39 86 -98 86
c-57 0 -96 -35 -96 -86c0 -50 39 -85 95 -86z" />
    <glyph glyph-name="zero.osf" horiz-adv-x="567" 
d="M283 -9c-145 0 -243 97 -244 243c1 146 99 243 244 243c147 0 244 -99 244 -246c0 -144 -97 -240 -244 -240zM283 124c57 0 94 44 94 110s-37 110 -94 110s-94 -44 -94 -110s37 -110 94 -110z" />
    <glyph glyph-name="one.osf" horiz-adv-x="373" 
d="M293 477h13v-475h-148v292l-128 -39v136z" />
    <glyph glyph-name="two.osf" horiz-adv-x="497" 
d="M289 126h165v-126h-411v72l224 197c18 16 24 27 24 45c0 19 -22 39 -56 39c-32 0 -56 -19 -60 -58l-138 15c15 96 102 167 216 167c116 0 186 -69 186 -149c0 -55 -16 -84 -67 -129z" />
    <glyph glyph-name="three.osf" horiz-adv-x="497" 
d="M349 190c70 -25 113 -79 113 -150c0 -110 -99 -183 -238 -183c-90 0 -158 29 -206 90l96 86c31 -29 60 -44 103 -44c57 0 93 28 93 67s-37 67 -94 67h-56v108h21c70 0 107 34 102 69c-3 26 -32 46 -70 46s-79 -20 -103 -47l-75 96c51 47 113 83 199 83
c110 0 200 -65 200 -172c0 -47 -32 -90 -85 -116z" />
    <glyph glyph-name="four.osf" horiz-adv-x="619" 
d="M597 114v-121h-132v-131h-150v131h-307v46l355 427h102v-352h132zM203 114h112v132z" />
    <glyph glyph-name="five.osf" horiz-adv-x="542" 
d="M303 276c121 0 205 -89 205 -205c0 -143 -125 -218 -255 -218c-109 0 -178 49 -229 113l111 81c31 -34 71 -58 111 -58c67 0 111 37 111 90c0 49 -41 85 -102 85c-46 0 -91 -19 -123 -50l-86 47l55 305h368v-136h-247l-18 -81c26 16 61 27 99 27z" />
    <glyph glyph-name="six.osf" horiz-adv-x="564" 
d="M329 386c108 0 192 -83 192 -188c0 -124 -94 -207 -235 -207c-140 0 -242 111 -242 286c0 203 101 335 263 335c88 0 170 -47 205 -117l-113 -71c-16 31 -51 53 -88 53c-74 0 -123 -56 -127 -145c36 35 87 54 145 54zM292 123c49 0 82 34 82 75c0 44 -36 76 -82 76
c-42 0 -82 -32 -82 -76c0 -41 35 -74 82 -75z" />
    <glyph glyph-name="seven.osf" horiz-adv-x="505" 
d="M18 468h486v-16l-245 -589h-166l194 468h-269v137z" />
    <glyph glyph-name="eight.osf" horiz-adv-x="569" 
d="M415 332c66 -15 116 -74 116 -150c0 -115 -112 -190 -246 -190s-247 75 -247 190c0 76 51 135 118 150c-40 14 -76 62 -76 123c0 98 93 158 205 158c111 0 204 -60 204 -158c0 -61 -36 -109 -74 -123zM285 490c-38 0 -66 -25 -66 -54c0 -28 28 -54 66 -54s66 26 66 54
c0 29 -28 54 -66 54zM285 122c56 0 95 31 95 74s-38 76 -95 76c-58 0 -96 -33 -96 -76s40 -74 96 -74z" />
    <glyph glyph-name="nine.osf" horiz-adv-x="553" 
d="M273 478c140 0 242 -114 242 -286c0 -204 -102 -336 -264 -336c-87 0 -169 48 -205 118l114 70c16 -30 51 -52 88 -52c72 0 118 53 124 137c-29 -29 -71 -47 -127 -47c-125 0 -207 84 -207 189c0 124 94 207 235 207zM267 197c46 0 82 30 82 74c0 41 -35 74 -83 74
s-82 -33 -82 -74c0 -44 33 -73 83 -74z" />
    <glyph glyph-name="zero.tf" horiz-adv-x="580" 
d="M292 -9c-193 0 -248 148 -248 336c0 189 55 338 248 338c190 0 244 -149 244 -338c0 -188 -54 -336 -244 -336zM292 128c70 0 93 86 93 199c0 114 -23 202 -93 202c-73 0 -97 -88 -97 -202c0 -113 24 -199 97 -199z" />
    <glyph glyph-name="one.tf" horiz-adv-x="580" 
d="M391 137h125v-137h-393v137h120v332l-157 -59v136l291 119h14v-528z" />
    <glyph glyph-name="two.tf" horiz-adv-x="580" 
d="M293 137h220v-137h-453v83l261 312c22 26 35 52 35 72c0 36 -31 62 -75 62c-53 0 -80 -38 -89 -94l-135 21c18 123 93 209 231 209c134 0 219 -80 219 -200c0 -67 -28 -119 -70 -165z" />
    <glyph glyph-name="three.tf" horiz-adv-x="580" 
d="M395 354c72 -27 118 -87 118 -164c0 -118 -103 -199 -248 -199c-94 0 -167 35 -216 106l98 83c32 -35 65 -56 111 -56c63 0 103 33 103 80c0 48 -41 83 -103 83h-62v109h28c73 0 112 38 108 80c-3 33 -34 54 -77 54c-40 0 -84 -19 -109 -50l-76 95c51 52 117 90 205 90
c116 0 211 -70 208 -183c0 -53 -33 -100 -88 -128z" />
    <glyph glyph-name="four.tf" horiz-adv-x="580" 
d="M557 252v-130h-103v-122h-151v122h-309v46l358 488h102v-404h103zM195 252h108v152z" />
    <glyph glyph-name="five.tf" horiz-adv-x="580" 
d="M323 454c127 0 215 -98 215 -223c0 -152 -127 -240 -263 -240c-90 0 -195 52 -238 128l113 79c20 -41 78 -69 118 -69c72 0 120 41 120 103c0 58 -45 101 -111 101c-50 0 -102 -23 -138 -57l-87 50l58 331h383v-136h-260l-22 -98c30 19 69 31 112 31z" />
    <glyph glyph-name="six.tf" horiz-adv-x="580" 
d="M322 421c132 0 219 -93 219 -207c0 -131 -98 -223 -246 -223c-149 0 -257 122 -257 312c0 209 105 362 280 362c90 0 176 -47 214 -128l-115 -70c-18 39 -56 62 -96 62c-77 0 -128 -63 -135 -156c31 28 75 48 136 48zM297 128c57 0 97 35 97 86c0 50 -39 85 -95 86
c-59 0 -99 -35 -100 -85c0 -51 40 -87 98 -87z" />
    <glyph glyph-name="seven.tf" horiz-adv-x="580" 
d="M60 656h484v-15l-269 -641h-170l220 519h-265v137z" />
    <glyph glyph-name="eight.tf" horiz-adv-x="580" 
d="M425 364c70 -19 123 -84 123 -167c0 -124 -117 -206 -258 -206s-258 82 -258 206c0 83 53 148 123 167c-41 16 -77 67 -77 131c0 104 95 170 212 170s212 -66 212 -170c0 -64 -36 -115 -77 -131zM290 541c-42 0 -72 -30 -72 -64s30 -63 72 -63s72 29 72 63s-30 64 -72 64
zM290 122c63 0 106 38 106 89c0 52 -43 91 -106 91s-106 -39 -106 -91c0 -51 43 -89 106 -89z" />
    <glyph glyph-name="nine.tf" horiz-adv-x="580" 
d="M285 665c149 0 257 -125 257 -312c0 -209 -106 -362 -281 -362c-89 0 -176 47 -214 129l116 69c18 -39 56 -61 96 -61c77 0 128 62 135 155c-31 -29 -75 -48 -136 -48c-133 0 -219 94 -219 208c0 131 98 222 246 222zM281 356c59 0 99 35 99 86s-39 86 -97 86
c-57 0 -97 -35 -97 -86c0 -50 39 -85 95 -86z" />
    <glyph glyph-name="zero.tosf" horiz-adv-x="580" 
d="M290 -9c-145 0 -242 97 -244 243c2 146 99 243 244 243c147 0 244 -99 244 -246c0 -144 -97 -240 -244 -240zM290 124c57 0 94 44 94 110s-37 110 -94 110s-94 -44 -94 -110s37 -110 94 -110z" />
    <glyph glyph-name="one.tosf" horiz-adv-x="580" 
d="M396 477h14v-475h-148v292l-128 -39v136z" />
    <glyph glyph-name="two.tosf" horiz-adv-x="580" 
d="M331 126h164v-126h-410v72l223 197c19 16 24 27 24 45c0 19 -21 39 -55 39c-32 0 -56 -19 -61 -58l-137 15c14 96 102 167 216 167c116 0 185 -69 185 -149c0 -55 -16 -84 -66 -129z" />
    <glyph glyph-name="three.tosf" horiz-adv-x="580" 
d="M391 190c69 -25 113 -79 113 -150c0 -110 -99 -183 -238 -183c-90 0 -158 29 -206 90l96 86c31 -29 60 -44 103 -44c57 0 93 28 93 67s-37 67 -94 67h-63v108h28c69 0 107 34 102 69c-3 26 -32 46 -70 46c-39 0 -79 -20 -103 -47l-75 96c51 47 112 83 199 83
c110 0 200 -65 200 -172c0 -47 -33 -90 -85 -116z" />
    <glyph glyph-name="four.tosf" horiz-adv-x="580" 
d="M578 114v-121h-132v-131h-151v131h-306v46l354 427h103v-352h132zM184 114h111v132z" />
    <glyph glyph-name="five.tosf" horiz-adv-x="580" 
d="M322 276c121 0 205 -89 205 -205c0 -143 -126 -218 -255 -218c-109 0 -179 49 -230 113l112 81c31 -34 70 -58 111 -58c67 0 111 37 111 90c0 49 -41 85 -102 85c-46 0 -91 -19 -123 -50l-86 47l55 305h368v-136h-247l-18 -81c26 16 61 27 99 27z" />
    <glyph glyph-name="six.tosf" horiz-adv-x="580" 
d="M336 386c108 0 192 -83 192 -188c0 -124 -93 -207 -234 -207c-140 0 -243 111 -243 286c0 203 102 335 264 335c87 0 170 -47 205 -117l-114 -71c-15 31 -51 53 -88 53c-75 0 -123 -56 -127 -146c36 36 87 55 145 55zM300 123c48 0 82 34 82 75c0 44 -37 76 -82 76
c-43 0 -82 -32 -82 -76c0 -41 35 -74 82 -75z" />
    <glyph glyph-name="seven.tosf" horiz-adv-x="580" 
d="M56 468h485v-16l-244 -589h-167l194 468h-268v137z" />
    <glyph glyph-name="eight.tosf" horiz-adv-x="580" 
d="M420 332c66 -15 117 -74 117 -150c0 -115 -113 -190 -246 -190c-134 0 -247 75 -247 190c0 76 51 135 117 150c-39 14 -75 62 -75 123c0 98 93 158 205 158c111 0 204 -60 204 -158c0 -61 -36 -109 -75 -123zM291 490c-39 0 -66 -25 -66 -54c0 -28 27 -54 66 -54
c38 0 65 26 65 54c0 29 -27 54 -65 54zM291 122c56 0 95 31 95 74s-38 76 -95 76c-58 0 -96 -33 -96 -76s39 -74 96 -74z" />
    <glyph glyph-name="nine.tosf" horiz-adv-x="580" 
d="M286 478c140 0 243 -114 243 -286c0 -204 -102 -336 -264 -336c-88 0 -170 48 -205 118l114 70c15 -30 50 -52 88 -52c72 0 118 53 124 138c-29 -29 -71 -48 -128 -48c-125 0 -207 84 -207 189c0 124 94 207 235 207zM280 197c47 0 82 30 82 74c0 41 -35 74 -82 74
c-48 0 -82 -33 -82 -74c0 -44 33 -73 82 -74z" />
    <glyph glyph-name="zero.zero" horiz-adv-x="589" 
d="M296 665c191 0 244 -149 244 -338c0 -188 -53 -336 -244 -336c-192 0 -247 148 -247 336c0 189 55 338 247 338zM296 529c-72 0 -97 -88 -97 -202c0 -31 2 -60 6 -86l131 276c-11 8 -24 12 -40 12zM296 128c71 0 93 86 93 199c0 34 -2 66 -7 94l-132 -278
c13 -10 28 -15 46 -15z" />
    <glyph glyph-name="zero.osf.zero" horiz-adv-x="567" 
d="M283 477c147 0 244 -99 244 -246c0 -144 -97 -240 -244 -240c-145 0 -243 97 -244 243c1 146 99 243 244 243zM283 344c-57 0 -94 -44 -94 -110c0 -28 7 -52 18 -70l86 180h-10zM283 124c57 0 94 44 94 110c0 28 -6 51 -18 70l-85 -180h9z" />
    <glyph glyph-name="zero.tf.zero" horiz-adv-x="580" 
d="M292 665c190 0 244 -149 244 -338c0 -188 -54 -336 -244 -336c-193 0 -248 148 -248 336c0 189 55 338 248 338zM292 529c-73 0 -97 -88 -97 -202c0 -31 2 -60 6 -86l131 276c-11 8 -24 12 -40 12zM292 128c70 0 93 86 93 199c0 34 -2 66 -7 93l-132 -277
c13 -10 28 -15 46 -15z" />
    <glyph glyph-name="zero.tosf.zero" horiz-adv-x="580" 
d="M290 477c147 0 244 -99 244 -246c0 -144 -97 -240 -244 -240c-145 0 -242 97 -244 243c2 146 99 243 244 243zM290 344c-57 0 -94 -44 -94 -110c0 -28 7 -52 19 -70l86 179c-4 1 -7 1 -11 1zM290 124c57 0 94 44 94 110c0 28 -6 51 -18 70l-85 -180h9z" />
    <glyph glyph-name="zero.subs" horiz-adv-x="340" 
d="M170 -165c-105 0 -134 81 -134 182s29 183 134 183c106 0 135 -82 135 -183s-29 -182 -135 -182zM170 -90c41 0 53 49 53 107c0 57 -12 108 -53 108s-52 -51 -52 -108c0 -58 11 -107 52 -107z" />
    <glyph glyph-name="one.subs" horiz-adv-x="232" 
d="M177 200h4v-360h-81v248l-77 -28v76z" />
    <glyph glyph-name="two.subs" horiz-adv-x="314" 
d="M164 -83h115v-77h-246l1 41l124 151c20 25 33 40 33 62c0 16 -16 31 -42 31c-32 0 -49 -22 -48 -52l-72 15c4 66 47 112 122 112s122 -45 122 -112c0 -28 -19 -66 -42 -93z" />
    <glyph glyph-name="three.subs" horiz-adv-x="296" 
d="M208 30c34 -14 55 -44 55 -82c0 -67 -50 -113 -125 -113c-52 0 -100 25 -120 64l61 41c12 -18 34 -30 56 -30c28 0 46 15 46 39c0 28 -23 46 -59 46h-24v62h14c35 0 56 17 56 43c-1 18 -20 30 -37 30c-21 0 -38 -8 -51 -22l-43 48c19 26 60 44 105 44
c63 0 107 -38 107 -99c0 -32 -15 -57 -41 -71z" />
    <glyph glyph-name="four.subs" horiz-adv-x="339" 
d="M314 -25v-68h-49v-67h-81v67h-170v20l226 269h25v-221h49zM130 -25h54v66z" />
    <glyph glyph-name="five.subs" horiz-adv-x="327" 
d="M182 85c71 0 115 -49 115 -121c0 -79 -60 -129 -137 -129c-61 0 -112 33 -134 78l64 37c12 -23 36 -39 65 -39c36 0 60 21 60 51c0 33 -22 54 -55 54c-28 0 -51 -14 -72 -37l-52 37l31 180h207v-76h-140l-11 -53c14 11 35 18 59 18z" />
    <glyph glyph-name="six.subs" horiz-adv-x="340" 
d="M190 70c73 0 120 -53 120 -116c0 -71 -57 -119 -133 -119c-85 0 -143 62 -143 174c0 134 78 191 149 191c46 0 95 -25 118 -63l-62 -45c-16 24 -38 33 -53 33c-29 0 -68 -26 -71 -86c15 18 39 31 75 31zM178 -89c30 0 49 25 49 47c0 20 -16 45 -49 45
c-29 0 -49 -20 -49 -44c0 -27 21 -48 49 -48z" />
    <glyph glyph-name="seven.subs" horiz-adv-x="306" 
d="M28 196h267v-6l-160 -350h-96l127 280h-138v76z" />
    <glyph glyph-name="eight.subs" horiz-adv-x="348" 
d="M258 44c36 -15 60 -51 60 -96c0 -68 -59 -113 -143 -113c-85 0 -144 45 -144 112c0 45 24 82 61 97c-20 14 -32 36 -32 61c0 57 47 95 115 95c67 0 114 -38 114 -95c0 -25 -12 -47 -31 -61zM174 125c-20 0 -33 -13 -33 -33c0 -17 13 -30 33 -30s34 13 34 30
c0 20 -14 33 -34 33zM175 -91c34 0 57 20 57 49s-22 49 -57 49c-32 0 -54 -20 -54 -49s22 -49 54 -49z" />
    </font>
</defs>
</svg>
